<?xml version="1.0" encoding="utf-8"?>
<!-- Generator: Adobe Illustrator 16.0.0, SVG Export Plug-In . SVG Version: 6.00 Build 0)  -->
<!DOCTYPE svg PUBLIC "-//W3C//DTD SVG 1.1//EN" "http://www.w3.org/Graphics/SVG/1.1/DTD/svg11.dtd" [
	<!ENTITY ns_extend "http://ns.adobe.com/Extensibility/1.0/">
	<!ENTITY ns_ai "http://ns.adobe.com/AdobeIllustrator/10.0/">
	<!ENTITY ns_graphs "http://ns.adobe.com/Graphs/1.0/">
	<!ENTITY ns_vars "http://ns.adobe.com/Variables/1.0/">
	<!ENTITY ns_imrep "http://ns.adobe.com/ImageReplacement/1.0/">
	<!ENTITY ns_sfw "http://ns.adobe.com/SaveForWeb/1.0/">
	<!ENTITY ns_custom "http://ns.adobe.com/GenericCustomNamespace/1.0/">
	<!ENTITY ns_adobe_xpath "http://ns.adobe.com/XPath/1.0/">
]>
<svg version="1.1" id="Fish" xmlns:x="&ns_extend;" xmlns:i="&ns_ai;" xmlns:graph="&ns_graphs;"
	 xmlns="http://www.w3.org/2000/svg" xmlns:xlink="http://www.w3.org/1999/xlink" x="0px" y="0px" width="3000px" height="3000px"
	 viewBox="0 0 3000 3000" enable-background="new 0 0 3000 3000" xml:space="preserve">
<metadata>
	<sfw  xmlns="&ns_sfw;">
		<slices></slices>
		<sliceSourceBounds  height="952.48" width="988.499" x="844.838" y="-1853.25" bottomLeftOrigin="true"></sliceSourceBounds>
	</sfw>
</metadata>
<g id="BodySkin_2_">
	<defs>
		<path id="BodySkinMask_1_" d="M1270,1758c-23-177,23-499-226-600.5c26.5-8,74-15.5,101-20.5c36.974,13.596,108.332,42.544,166,116
			c97.224,123.841-14,346,60,498C1336,1755,1309,1756,1270,1758z M1523,1439c46.936-189.784-34-244-125-307c-86-10-72.5-3.5-116-5
			c103.495,94.496,156.999,155.01,127,344c-14.922,94.012-3.5,222,18,269c36.667-10.667,30-4,76-25C1484.5,1667,1500,1532,1523,1439
			z"/>
	</defs>
	<clipPath id="BodySkinMask_2_">
		<use xlink:href="#BodySkinMask_1_"  overflow="visible"/>
	</clipPath>
	
		<rect id="SkinSllColor" x="844.838" y="900.77" clip-path="url(#BodySkinMask_2_)" fill="#8ECEC4" width="988.499" height="952.48"/>
</g>
</svg>
