<?xml version="1.0" encoding="utf-8"?>
<!-- Generator: Adobe Illustrator 16.0.0, SVG Export Plug-In . SVG Version: 6.00 Build 0)  -->
<!DOCTYPE svg PUBLIC "-//W3C//DTD SVG 1.1//EN" "http://www.w3.org/Graphics/SVG/1.1/DTD/svg11.dtd" [
	<!ENTITY ns_extend "http://ns.adobe.com/Extensibility/1.0/">
	<!ENTITY ns_ai "http://ns.adobe.com/AdobeIllustrator/10.0/">
	<!ENTITY ns_graphs "http://ns.adobe.com/Graphs/1.0/">
	<!ENTITY ns_vars "http://ns.adobe.com/Variables/1.0/">
	<!ENTITY ns_imrep "http://ns.adobe.com/ImageReplacement/1.0/">
	<!ENTITY ns_sfw "http://ns.adobe.com/SaveForWeb/1.0/">
	<!ENTITY ns_custom "http://ns.adobe.com/GenericCustomNamespace/1.0/">
	<!ENTITY ns_adobe_xpath "http://ns.adobe.com/XPath/1.0/">
]>
<svg version="1.1" id="Fish" xmlns:x="&ns_extend;" xmlns:i="&ns_ai;" xmlns:graph="&ns_graphs;"
	 xmlns="http://www.w3.org/2000/svg" xmlns:xlink="http://www.w3.org/1999/xlink" x="0px" y="0px" 
	 viewBox="0 0 3000 3000" enable-background="new 0 0 3000 3000" xml:space="preserve">
<metadata>
	<sfw  xmlns="&ns_sfw;">
		<slices></slices>
		<sliceSourceBounds  height="2409.096" width="4001.947" y="314.367" x="-308.027" bottomLeftOrigin="true"></sliceSourceBounds>
	</sfw>
</metadata>
<g id="DorsalFin">
	<g id="DorsalFinColor_1_">
		<g>
			<g>
				<defs>
					<path id="SVGID_1_" d="M1163.35,1204.331c-53.142,10.012-77.787,10.526-117.063,12.836
						c-40.052-70.854-100.638-277.256,21.565-297.4C1163.313,904.028,1209.561,1182.254,1163.35,1204.331z M1292.654,877.644
						c-123.092-13.712-120.68,201.389-101.323,280.442c38.437,8.413,62.299,14.596,116.166,19.353
						C1357.961,1168.704,1388.811,888.354,1292.654,877.644z M1476.396,927.816c-120.908-26.865-141.631,187.247-130.885,267.923
						c37.313,12.496,60.374,21.208,113.414,31.729C1510.041,1224.21,1570.85,948.8,1476.396,927.816z M1692.548,1071.043
						c-97.591-76.258-208.397,108.119-233.397,185.571c28.302,27.329,45.375,45.115,88.729,77.428
						C1595.418,1353.086,1768.782,1130.613,1692.548,1071.043z"/>
				</defs>
				<clipPath id="SVGID_2_">
					<use xlink:href="#SVGID_1_"  overflow="visible"/>
				</clipPath>
				
					<rect id="FinAllColor_7_" x="359.145" y="438.087" clip-path="url(#SVGID_2_)" fill="#C9822A" width="2242.729" height="2218.08"/>
			</g>
		</g>
	</g>
	<path id="DorsalFinLine_1_" fill="none" stroke="#060001" stroke-width="6" stroke-miterlimit="10" d="M1070.545,1215.78
		c0,0-25.181-51.428-43.638-133.28c-15.247-67.616-19.613-117.729-19.613-117.729 M1055.348,922.685c0,0,2.42,42.988,14.813,111.186
		c14.274,78.557,46.946,177.846,46.946,177.846 M1156.49,1205.595c0,0-6.34-81.837-23.176-159.404
		c-14.615-67.338-28.942-117.632-28.942-117.632 M1067.852,919.766c-122.203,20.146-61.616,226.546-21.565,297.401
		c39.278-2.311,63.924-2.824,117.063-12.836C1209.561,1182.254,1163.313,904.028,1067.852,919.766z M1219.357,907.99
		c0,0-1.254-6.038-7.797,62.968c-7.539,79.486,4.024,192.479,4.024,192.479 M1279.832,877.06c0,0-9.321,42.042-15.864,111.045
		c-7.541,79.488-2.983,183.918-2.983,183.918 M1302.167,1175.812c0,0,14.452-79.509,19.253-158.734
		c4.176-68.781,4.008-121.063,4.008-121.063 M1292.654,877.644c-123.092-13.712-120.68,201.389-101.323,280.442
		c38.437,8.413,62.299,14.596,116.166,19.353C1357.961,1168.704,1388.811,888.354,1292.654,877.644z M1402.979,947.436
		c0,0-11.769,52.148-25.69,120.05c-16.041,78.219-9.085,135.897-9.085,135.897 M1463.379,925.828
		c-21.082,64.09-14.072,43.809-27.378,108.726c-16.034,78.215-22.711,179.092-22.711,179.092 M1454.088,1224.222
		c0,0,22.628-76.438,35.928-154.69c11.536-67.933,16.993-119.94,16.993-119.94 M1476.396,927.816
		c-120.908-26.865-141.631,187.247-130.885,267.923c37.313,12.496,60.374,21.208,113.414,31.729
		C1510.041,1224.21,1570.85,948.8,1476.396,927.816z M1614.232,1058.416c0,0-21.729,28.596-63.515,83.907
		c-48.118,63.709-74.168,131.16-74.168,131.16 M1681.934,1063.823c0,0-29.988,30.895-71.767,86.202
		c-48.126,63.71-99.04,154.999-99.04,154.999 M1543.457,1330.72c0,0,54.764-60.961,100.423-125.888
		c39.638-56.358,67.767-102.283,67.767-102.283 M1692.548,1071.043c-97.591-76.258-208.397,108.119-233.397,185.571
		c28.302,27.329,45.375,45.115,88.729,77.428C1595.418,1353.086,1768.782,1130.613,1692.548,1071.043z"/>
</g>
<!--<g id="VentralFin">-->
	<!--<g id="VentralFinColor_1_">-->
		<!--<g>-->
			<!--<g>-->
				<!--<defs>-->
					<!--<path id="SVGID_3_" d="M1490.811,1701.274c-53.434,29.809-89.739,45.873-107.168,58.749-->
						<!--c136.947,186.784,484.039,277.146,549.047,223.504c-60.221-12.321-250.875-110.655-213.904-240.044-->
						<!--C1653.723,1755.139,1546.258,1774.293,1490.811,1701.274z"/>-->
				<!--</defs>-->
				<!--<clipPath id="SVGID_4_">-->
					<!--<use xlink:href="#SVGID_3_"  overflow="visible"/>-->
				<!--</clipPath>-->
				<!---->
					<!--<rect id="FinAllColor_4_" x="359.145" y="438.087" clip-path="url(#SVGID_4_)" fill="#C9822A" width="2242.729" height="2218.08"/>-->
			<!--</g>-->
		<!--</g>-->
	<!--</g>-->
	<!--<path id="VentralFinLine_1_" fill="none" stroke="#060001" stroke-width="6" stroke-miterlimit="10" d="M1875.234,1962.259-->
		<!--c0,0-101.301,1.771-214.324-45.232c-153.063-63.655-256.458-169.772-256.458-169.772 M1429.63,1733.924-->
		<!--c0,0,60.778,58.941,138.758,97.523c125.074,61.87,209.418,65.881,209.418,65.881 M1460.376,1717.829-->
		<!--c0,0,53.522,53.743,135.793,82.79c59.687,21.071,129.549,24.791,129.549,24.791 M1560.682,1747.411-->
		<!--c0,0,28.314,15.169,86.818,25.978c25.936,4.788,66.576,2.736,66.576,2.736 M1490.811,1701.274-->
		<!--c-53.434,29.809-89.739,45.873-107.168,58.749c136.947,186.784,484.039,277.146,549.047,223.504-->
		<!--c-60.221-12.321-250.875-110.655-213.904-240.044C1653.723,1755.139,1546.258,1774.293,1490.811,1701.274z"/>-->
<!--</g>-->
<!--<g id="Body">-->
	<!--<g id="BodyColor">-->
		<!--<g>-->
			<!--<g>-->
				<!--<defs>-->
					<!--<path id="SVGID_5_" d="M1725.568,1434.022c0,12.5,20.727,344.153-434.187,344.153c-344.856,0-434.196-154.088-434.196-344.153-->
						<!--c0-190.064,194.396-344.144,434.196-344.144C1531.184,1089.879,1725.568,1243.958,1725.568,1434.022z"/>-->
				<!--</defs>-->
				<!--<clipPath id="SVGID_6_">-->
					<!--<use xlink:href="#SVGID_5_"  overflow="visible"/>-->
				<!--</clipPath>-->
				<!---->
					<!--<rect id="BodyAllColor_3_" x="-307.527" y="299.456" clip-path="url(#SVGID_6_)" fill="#549D86" width="3931.388" height="2386.677"/>-->
			<!--</g>-->
		<!--</g>-->
	<!--</g>-->
	<!--<path id="BodyMask" fill="none" d="M1725.568,1434.022c0,12.5,20.727,344.153-434.187,344.153-->
		<!--c-344.856,0-434.196-154.088-434.196-344.153c0-190.064,194.396-344.144,434.196-344.144-->
		<!--C1531.184,1089.879,1725.568,1243.958,1725.568,1434.022z"/>-->
	<!--<path id="BodyLine" fill="none" stroke="#231815" stroke-width="8" stroke-miterlimit="10" d="M1725.568,1434.022-->
		<!--c0,12.5,20.727,344.153-434.187,344.153c-344.856,0-434.196-154.088-434.196-344.153c0-190.064,194.396-344.144,434.196-344.144-->
		<!--C1531.184,1089.879,1725.568,1243.958,1725.568,1434.022z"/>-->
<!--</g>-->
<!--<g id="BodySkin">-->
	<!--<g>-->
		<!--<g>-->
			<!--<defs>-->
				<!--<path id="SVGID_7_" d="M1333.332,1773.43c-23.418-32.211-50.52-82.479-75.896-160.6-->
					<!--c-51.832-159.563,15.429-227.785-112.338-376.342c-33.275-38.69-72.355-64.429-103.785-80.677-->
					<!--c22.949-12.612,71.291-32.703,95.016-41.056c36.974,13.596,97.195,45.409,155.449,118.401-->
					<!--c84.354,105.699,66.242,227.938,80.471,318.898c9.421,60.23,76.507,146.447,117.013,193.926-->
					<!--C1449.117,1760.354,1397.947,1770.711,1333.332,1773.43z M1574.494,1527.666c-4.776-100.965-4.104-302.187-70.426-389.843-->
					<!--c-89.797-35.435-125.582-39.2-187.736-43.909c144.829,121.833,141.415,284.855,150.436,427.653-->
					<!--c5.888,93.188,25.137,167.683,60.188,210.332c33.583-16.623,52.784-22.434,91.713-56.742-->
					<!--C1589.809,1640.146,1577.02,1581.055,1574.494,1527.666z"/>-->
			<!--</defs>-->
			<!--<clipPath id="SVGID_8_">-->
				<!--<use xlink:href="#SVGID_7_"  overflow="visible"/>-->
			<!--</clipPath>-->
			<!--<rect id="SkinSllColor" x="841.838" y="900.771" clip-path="url(#SVGID_8_)" fill="#D791B7" width="988.499" height="952.479"/>-->
		<!--</g>-->
	<!--</g>-->
<!--</g>-->
<!--<g id="Tail">-->
	<!--<g id="TailColor">-->
		<!--<g>-->
			<!--<g>-->
				<!--<defs>-->
					<!--<path id="SVGID_9_" d="M1631,1670c5.521-3.538,126-53,223-87c89.374-31.327,126.539-31.85,131.002-27.665-->
						<!--c16,15,21.998,19.665,45.998,32.665c57.146,30.955,159.368,45.021,214,41c0,0-0.765-33.942-46-93c-36-47-79-67-116-82-->
						<!--c15.244-16.251,40.944-35.71,84.773-101.799c39.529-59.61,54.188-85.584,61.227-102.201c0,0-56.195-13.399-135,26-->
						<!--c-42.525,21.265-56.621,44.264-97,78c-10.949,9.147-15.27,12.653-40,9c-88-13-302-117-302-117L1631,1670z"/>-->
				<!--</defs>-->
				<!--<clipPath id="SVGID_10_">-->
					<!--<use xlink:href="#SVGID_9_"  overflow="visible"/>-->
				<!--</clipPath>-->
				<!---->
					<!--<rect id="BodyAllColor_4_" x="-240.969" y="281.037" clip-path="url(#SVGID_10_)" fill="#549D86" stroke="#231815" stroke-width="8" stroke-miterlimit="10" width="3931.389" height="2386.677"/>-->
			<!--</g>-->
		<!--</g>-->
	<!--</g>-->
	<!--<g id="TailFin_1_">-->
		<!--<g>-->
			<!--<g>-->
				<!--<defs>-->
					<!--<path id="SVGID_11_" d="M1948.082,1556.417c23.211-4.18,34.576-3.28,36.92-1.082c16,15,21.998,19.665,45.998,32.665-->
						<!--c57.147,30.955,159.368,45.021,214,41c0,0-0.765-33.942-46-93c-36-47-79-67-116-82c15.244-16.251,40.944-35.71,84.773-101.799-->
						<!--c39.529-59.61,54.188-85.584,61.227-102.201c0,0-56.195-13.399-135,26c-42.525,21.265-56.621,44.264-97,78-->
						<!--c-5.813,4.854-9.756,8.121-15.875,9.57C2009,1389,1977.5,1528.75,1948.082,1556.417z"/>-->
				<!--</defs>-->
				<!--<clipPath id="SVGID_12_">-->
					<!--<use xlink:href="#SVGID_11_"  overflow="visible"/>-->
				<!--</clipPath>-->
				<!---->
					<!--<rect id="TailFinAllColor_1_" x="1789.244" y="771.798" clip-path="url(#SVGID_12_)" fill="#AC5555" width="1071.038" height="1318.418"/>-->
			<!--</g>-->
		<!--</g>-->
	<!--</g>-->
	<!--<path id="TailLine_1_" fill="none" stroke="#231815" stroke-width="8" stroke-linecap="round" stroke-miterlimit="10" d="-->
		<!--M2213.298,1277.517c0,0-37.194,6.637-98.298,36.483c-78.72,38.454-121.331,69.335-121.331,69.335 M1988,1427c37-22,93-41,165-52-->
		 <!--M1981.002,1450.669c49.334-4.667,66.645-5.784,107.998,5.331 M2156,1625c-52-90-122.979-138.104-178-152 M2077.669,1606.669-->
		<!--c-32.786-44.807-56.669-77.002-101.669-109.002 M1985.002,1555.335c-4.666-10-4.669-14.668-17.333-28.666 M1631,1670-->
		<!--c5.521-3.538,126-53,223-87c89.374-31.327,126.539-31.85,131.002-27.665c16,15,21.998,19.665,45.998,32.665-->
		<!--c57.146,30.955,159.368,45.021,214,41c0,0-0.765-33.942-46-93c-36-47-79-67-116-82c15.244-16.251,40.944-35.71,84.773-101.799-->
		<!--c39.529-59.61,54.188-85.584,61.227-102.201c0,0-56.195-13.399-135,26c-42.525,21.265-56.621,44.264-97,78-->
		<!--c-10.949,9.147-15.27,12.653-40,9c-88-13-302-117-302-117"/>-->
<!--</g>-->
<!--<g id="PectoralFin">-->
	<!--<g id="PectoralFinColor_1_">-->
		<!--<g>-->
			<!--<g>-->
				<!--<defs>-->
					<!--<path id="SVGID_13_" d="M1392.229,1834.268c55.065,57.378,80.734,41.766,134.703,82.794-->
						<!--c24.219,18.418,7.775,69.7,79.398,110.134c65.508,36.979,157.889,35.813,246.625,36.969-->
						<!--c-223.898,99.733-419.081,7.027-504.98-75.249c-114.017-109.206-111.095-355.859-103.776-366.954-->
						<!--c4.433,5.326,12.356,7.101,18.264,6.326C1286.336,1685.752,1314.309,1753.08,1392.229,1834.268z"/>-->
				<!--</defs>-->
				<!--<clipPath id="SVGID_14_">-->
					<!--<use xlink:href="#SVGID_13_"  overflow="visible"/>-->
				<!--</clipPath>-->
				<!---->
					<!--<rect id="FinAllColor_1_" x="359.145" y="438.087" clip-path="url(#SVGID_14_)" fill="#C9822A" width="2242.729" height="2218.08"/>-->
			<!--</g>-->
		<!--</g>-->
	<!--</g>-->
	<!--<path id="PectoralFinLine_1_" fill="none" stroke="#060001" stroke-width="6" stroke-linecap="round" stroke-miterlimit="10" d="-->
		<!--M1373.239,2010.816c0,0-53.142-109.569-77.667-176.165c-23.038-62.554-45.483-207.428-45.483-207.428 M1256.682,1629.396-->
		<!--c0,0,50.443,168.286,94.619,236.214c93.315,143.479,166.197,220.525,166.197,220.525 M1323.643,1749.192-->
		<!--c0,0,49.599,109.336,112.353,163.135c82.366,70.604,132.129,84.361,132.129,84.361 M1244.163,1623.735-->
		<!--c-5.103,12.537-10.206,255.972,103.812,365.178c85.899,82.277,281.082,174.984,504.98,75.249-->
		<!--c-88.736-1.156-181.117,0.011-246.625-36.97c-71.623-40.433-55.18-91.715-79.399-110.133-->
		<!--c-53.968-41.028-79.637-25.416-134.702-82.794c-77.92-81.188-105.893-148.516-129.768-205.98"/>-->
<!--</g>-->
<!--<g id="Head">-->
	<!--<g id="HeadColor">-->
		<!--<g>-->
			<!--<g>-->
				<!--<defs>-->
					<!--<path id="SVGID_15_" d="M1189.926,1460.094c9.163,147.354-59.604,289.715-154.031,289.715-->
						<!--c-94.428,0-185.996-124.974-195.236-284.053c-8.216-141.451,51.988-295.509,160.838-295.615-->
						<!--C1096.997,1170.047,1180.037,1301.037,1189.926,1460.094z"/>-->
				<!--</defs>-->
				<!--<clipPath id="SVGID_16_">-->
					<!--<use xlink:href="#SVGID_15_"  overflow="visible"/>-->
				<!--</clipPath>-->
				<!---->
					<!--<rect id="BodyAllColor_1_" x="-307.527" y="295.456" clip-path="url(#SVGID_16_)" fill="#58A58C" width="3931.388" height="2386.677"/>-->
			<!--</g>-->
		<!--</g>-->
	<!--</g>-->
	<!--<path id="HeadLine" fill="none" stroke="#231815" stroke-width="8" stroke-miterlimit="10" d="M1189.926,1460.094-->
		<!--c9.163,147.354-59.604,289.715-154.031,289.715c-94.428,0-185.996-124.974-195.236-284.053-->
		<!--c-8.216-141.451,51.988-295.509,160.838-295.615C1096.997,1170.047,1180.037,1301.037,1189.926,1460.094z"/>-->
<!--</g>-->
<!--<g id="Mouth">-->
	<!--<path id="Mouth2Tooth" fill="#FFFFFF" stroke="#231815" stroke-width="5" stroke-linejoin="round" stroke-miterlimit="10" d="-->
		<!--M825.154,1512.073l-31.32,24.76l-7.502-30.508l-25.165,19.342l-2.333-33.333L730,1514.5l-4.333-33.333L699,1504.833l-5.5-44-->
		<!--L825.154,1512.073z M793,1557.5l-37.667-20.167L757,1573l-30-19l0.5,31.5l-29-13.5l1,41L793,1557.5z"/>-->
	<!--<g id="MouthColor_1_">-->
		<!--<g>-->
			<!--<g>-->
				<!--<defs>-->
					<!--<path id="SVGID_17_" d="M1062.331,1746.001c-220,52-325.639-5.344-375.331-132.001c117.333-60.999,145.5-90,145.5-90-->
						<!--s-68.836-40.332-147.503-57.666c-3.33-218.001,221.246-287.69,297.372-294.524L1062.331,1746.001z"/>-->
				<!--</defs>-->
				<!--<clipPath id="SVGID_18_">-->
					<!--<use xlink:href="#SVGID_17_"  overflow="visible"/>-->
				<!--</clipPath>-->
				<!---->
					<!--<rect id="BodyAllColor_7_" x="-307.527" y="298.123" clip-path="url(#SVGID_18_)" fill="#58A58C" width="3931.388" height="2386.676"/>-->
			<!--</g>-->
		<!--</g>-->
	<!--</g>-->
	<!--<path id="MouthLine_1_" fill="none" stroke="#231815" stroke-width="7" stroke-miterlimit="10" d="M1063.331,1746.001-->
		<!--c-220,52-326.639-5.344-376.331-132.001c117.333-60.999,145.5-90,145.5-90s-68.836-40.332-147.503-57.666-->
		<!--C679,1234.333,924.884,1174.001,982.369,1171.81"/>-->
<!--</g>-->
<!--<g id="Eye">-->
	<!--<path id="Eye5" opacity="0.3" fill="#514F4F" enable-background="new    " d="M1106.229,1342.775-->
		<!--c0,64.625-52.385,117.007-117.007,117.007s-117.008-52.382-117.008-117.007c0-64.622,52.386-117.005,117.008-117.005-->
		<!--C1053.845,1225.771,1106.229,1278.153,1106.229,1342.775z"/>-->
	<!---->
		<!--<radialGradient id="Eye4_1_" cx="-1415.46" cy="-816.3022" r="99.3323" gradientTransform="matrix(1 0 0 1 2404.6797 2159.0791)" gradientUnits="userSpaceOnUse">-->
		<!--<stop  offset="0.8316" style="stop-color:#FFFFFF"/>-->
		<!--<stop  offset="1" style="stop-color:#C4C4C4"/>-->
	<!--</radialGradient>-->
	<!--<path id="Eye4" fill="url(#Eye4_1_)" stroke="#000000" stroke-width="8" stroke-miterlimit="10" d="M1088.552,1342.775-->
		<!--c0,54.861-44.471,99.334-99.33,99.334c-54.862,0-99.334-44.473-99.334-99.334c0-54.86,44.472-99.331,99.334-99.331-->
		<!--C1044.082,1243.444,1088.552,1287.915,1088.552,1342.775z"/>-->
	<!--<g id="Eye3">-->
		<!--<g>-->
			<!--<g>-->
				<!--<defs>-->
					<!--<circle id="SVGID_19_" cx="989.221" cy="1342.775" r="70.58"/>-->
				<!--</defs>-->
				<!--<clipPath id="SVGID_20_">-->
					<!--<use xlink:href="#SVGID_19_"  overflow="visible"/>-->
				<!--</clipPath>-->
				<!--<rect id="EyeAllColor" x="870.383" y="1209.973" clip-path="url(#SVGID_20_)" fill="#6E438F" width="250" height="250"/>-->
			<!--</g>-->
		<!--</g>-->
	<!--</g>-->
	<!--<path id="Eye2" fill="#231815" d="M1040.343,1342.775c0,28.235-22.884,51.124-51.12,51.124s-51.123-22.889-51.123-51.124-->
		<!--c0-28.233,22.886-51.121,51.123-51.121C1017.459,1291.655,1040.343,1314.542,1040.343,1342.775z"/>-->
	<!--<path id="Eye1" fill="#FFFFFF" d="M1053.641,1307.654c0,14.77-11.968,26.737-26.729,26.737c-14.771,0-26.736-11.969-26.736-26.737-->
		<!--c0-14.761,11.968-26.73,26.736-26.73C1041.673,1280.924,1053.641,1292.893,1053.641,1307.654z"/>-->
<!--</g>-->
<!--<g id="Eyelid">-->
	<!--<g id="EyelidColor_1_">-->
		<!--<g>-->
			<!--<g>-->
				<!--<defs>-->
					<!--<path id="SVGID_21_" d="M1086.137,1364.646c-9.961,44.342-49.568,77.465-96.914,77.465c-39.011,0-72.768-22.485-89.018-55.203-->
						<!--c16.795,3.093,45.295,7.593,92.961,2.927C1040.686,1385.182,1069.5,1371.5,1086.137,1364.646z"/>-->
				<!--</defs>-->
				<!--<clipPath id="SVGID_22_">-->
					<!--<use xlink:href="#SVGID_21_"  overflow="visible"/>-->
				<!--</clipPath>-->
				<!---->
					<!--<rect id="BodyAllColor_12_" x="-307.527" y="299.456" clip-path="url(#SVGID_22_)" fill="#549D86" width="3931.388" height="2386.677"/>-->
			<!--</g>-->
		<!--</g>-->
	<!--</g>-->
	<!--<path id="EyelidLine_1_" fill="none" stroke="#000000" stroke-width="4" stroke-miterlimit="10" d="M1086.137,1364.646-->
		<!--c-9.961,44.342-49.568,77.465-96.914,77.465c-39.011,0-72.768-22.485-89.018-55.203c16.795,3.093,45.295,7.593,92.961,2.927-->
		<!--C1040.686,1385.182,1069.5,1371.5,1086.137,1364.646z"/>-->
<!--</g>-->
<!--<g id="Headwear">-->
	<!---->
		<!--<linearGradient id="HeadwearLine2_1_" gradientUnits="userSpaceOnUse" x1="-1647.9609" y1="-966.7446" x2="-1395.1057" y2="-1112.7307" gradientTransform="matrix(1 0 0 1 2404.6797 2159.0791)">-->
		<!--<stop  offset="0" style="stop-color:#E2E2E2"/>-->
		<!--<stop  offset="0.102" style="stop-color:#9B9B9E"/>-->
		<!--<stop  offset="0.3163" style="stop-color:#BBBBBB"/>-->
		<!--<stop  offset="0.5969" style="stop-color:#95969E"/>-->
		<!--<stop  offset="0.8571" style="stop-color:#E2E2E2"/>-->
	<!--</linearGradient>-->
	<!---->
		<!--<path id="HeadwearLine2" fill="url(#HeadwearLine2_1_)" stroke="#000000" stroke-width="8" stroke-linecap="round" stroke-linejoin="round" stroke-miterlimit="10" d="-->
		<!--M973,983c0,0,37,104.667,60,177.667c-24,29-74.648,50.816-101,62.333c-58.766,25.683-131.067,44.789-136,37c-19-30-83-156-83-156-->
		<!--s56,14.333,111.333,30c1.333-32.333,6.333-121.333,6.333-121.333L931,1090L973,983z"/>-->
	<!---->
		<!--<path id="HeadwearLine1" fill="none" stroke="#000000" stroke-width="5" stroke-linecap="round" stroke-linejoin="round" stroke-miterlimit="10" d="-->
		<!--M776,1217c0,0,63.786-10.012,126-36c79-33,115-67,115-67"/>-->
<!--</g>-->
<!--<g id="Nose">-->
	<!---->
		<!--<path id="null_7_" fill="none" stroke="#231815" stroke-width="8" stroke-linecap="round" stroke-linejoin="round" stroke-miterlimit="10" d="-->
		<!--M957.12,1444.09"/>-->
<!--</g>-->
<!--<g id="Moustache">-->
	<!--<path id="Moustache1" d="M905.333,1490.667c10.354,1.294,14.369-4.319,16-8.333c4.333-10.667-7-14.333-9.667-4.333-->
		<!--c-8.333,9-15.409-13.035-8.667-22.667c16.399-23.429,36.819-7.119,42.333,0.999c16.847,24.801,12.426,82.48-71.667,48.334-->
		<!--c-55-22.333-74.333-70.667-78.667-69.333c-6.938,2.135,30,78.333,114,91c37.286,5.622,49.945-19.54,53.333-34-->
		<!--c2.218-9.463-0.603-30.411-12.667-44.667c-14.667-17.333-40.2-21.254-57,7C885.333,1467.001,892,1489.001,905.333,1490.667z"/>-->
<!--</g>-->
<!--<g id="Brow">-->
	<!--<path id="Brow1" stroke="#1A1A1A" stroke-width="3" stroke-miterlimit="10" d="M1056.746,1213.015-->
		<!--c0.58,4.935-2.95,9.408-7.885,9.989l-144.116,16.976c-4.937,0.582-9.409-2.945-9.99-7.884l-2.632-22.344-->
		<!--c-0.581-4.937,2.95-9.41,7.885-9.99l144.116-16.976c4.937-0.581,9.408,2.947,9.991,7.884L1056.746,1213.015z"/>-->
<!--</g>-->
</svg>
