<?xml version="1.0" encoding="utf-8"?>
<!-- Generator: Adobe Illustrator 16.0.0, SVG Export Plug-In . SVG Version: 6.00 Build 0)  -->
<!DOCTYPE svg PUBLIC "-//W3C//DTD SVG 1.1//EN" "http://www.w3.org/Graphics/SVG/1.1/DTD/svg11.dtd">
<svg version="1.1"
	 xmlns="http://www.w3.org/2000/svg" xmlns:xlink="http://www.w3.org/1999/xlink" x="0px" y="0px" 
	 viewBox="0 0 3000 3000" enable-background="new 0 0 3000 3000" xml:space="preserve">
<metadata>
	<sfw>
		<slices></slices>
		<sliceSourceBounds  height="2690.133" width="5272.88" y="310.367" x="-1645.519" bottomLeftOrigin="true"></sliceSourceBounds>
	</sfw>
</metadata>
<g>
	<g><g><defs>
				<path id="SVGID_1_" d="M1605.773,1040.291c5.264,14.647-76.5,20.024-157.113,46.21c-93.063,30.23-189.355,77.823-196.682,74.823
					c-53.396-3.595-69.285-15.776-96.494-42.988c28.082-35.942,261.984-244.535,454.4-211.54
					c16.316,2.797-57.232,52.988-53.91,75.477C1562.645,1027.457,1599.932,1024.027,1605.773,1040.291z"/>
			</defs>
			<clipPath id="SVGID_2_">
				<use xlink:href="#SVGID_1_"  overflow="visible"/>
			</clipPath>
			
				<rect x="359.145" y="438.087" clip-path="url(#SVGID_2_)" fill="#C9822A" width="2242.728" height="2218.08"/>
		</g>
	</g>
	<path fill="none" stroke="#060001" stroke-width="6" stroke-miterlimit="10" d="M1174.532,1136.027
		c0,0,61.56-74.168,201.217-134.757c136.101-59.044,214.392-66.414,214.392-66.414 M1555.975,982.272
		c0,0-25.162-5.66-172.107,56.992c-141.949,60.521-184.523,111.869-184.523,111.869 M1582.506,1022.931
		c0,0-42.454-2.149-141.034,30.713c-146.393,48.801-215.895,104.712-215.895,104.712 M1555.975,982.272
		c-3.322-22.487,70.228-72.68,53.91-75.477c-192.416-32.995-426.318,175.598-454.4,211.54
		c27.209,27.211,43.099,39.394,96.494,42.988c7.326,3,103.619-44.593,196.682-74.823c80.613-26.186,162.377-31.563,157.113-46.21
		C1599.932,1024.027,1562.645,1027.457,1555.975,982.272z"/>
</g>
<g>
	<g>
		<g>
			<defs>
				<path id="SVGID_3_" d="M1630.23,1534.174c-118.086,82.154-307.716,202.597-320.387,217.416
					c62.653,59.589,221.807,81.288,315.258,77.015c53.174-36.623,107.819-82.146,145.196-140.682
					C1731.754,1633.868,1673.361,1608.11,1630.23,1534.174z"/>
			</defs>
			<clipPath id="SVGID_4_">
				<use xlink:href="#SVGID_3_"  overflow="visible"/>
			</clipPath>
				<rect x="359.145" y="438.087" clip-path="url(#SVGID_4_)" fill="#C9822A" width="2242.728" height="2218.08"/>
		</g>
	</g>
	<path fill="none" stroke="#231815" stroke-width="6" stroke-miterlimit="10" d="M1472.857,1817.334
		c0,0-39.586-10.913-95.154-55.066c-14.436-11.466-39.243-32.32-39.243-32.32 M1373.998,1705.752c0,0,64.152,51.763,115.443,86.121
		c30.926,20.71,66.949,35.705,66.949,35.705 M1411.41,1680.794c0,0,56.779,49.64,113.723,86.433
		c51.663,33.382,107.588,54.898,107.588,54.898 M1451.173,1653.522c0,0,46.759,42.413,113.744,84.57
		c54.735,34.44,109.456,53.795,109.456,53.795 M1484,1632.713c0,0,45.8,36.103,110.014,67.531
		c89.711,43.915,125.815,50.431,125.815,50.431 M1523.229,1606.66c0,0,28.138,23.971,94.409,56.601
		c89.979,44.295,132.255,53.315,132.255,53.315 M1556.896,1584.15c0,0,28.353,28.182,92.588,54.452
		c93.057,38.051,116.979,44.123,116.979,44.123 M1591.241,1560.961c0,0,17.885,16.972,78.271,48.483
		c11.239,5.865,38.774,15.953,38.774,15.953 M1630.23,1534.174c-118.086,82.154-307.716,202.597-320.387,217.416
		c62.653,59.589,221.807,81.288,315.258,77.015c53.174-36.623,107.819-82.146,145.196-140.682
		C1731.754,1633.868,1673.361,1608.11,1630.23,1534.174z"/>
</g>
<g>
	<g>
		<g>
			<defs>
				<path id="SVGID_5_" d="M1725.568,1434.022c0,12.5,20.727,344.154-434.186,344.154c-344.857,0-434.197-154.088-434.197-344.154
					c0-190.064,194.396-344.143,434.197-344.143S1725.568,1243.958,1725.568,1434.022z"/>
			</defs>
			<clipPath id="SVGID_6_">
				<use xlink:href="#SVGID_5_"  overflow="visible"/>
			</clipPath>

				<rect x="-307.527" y="299.456" clip-path="url(#SVGID_6_)" fill="#549D86" width="3931.388" height="2386.677"/>
		</g>
	</g>
	<path fill="none" d="M1725.568,1434.022c0,12.5,20.727,344.154-434.186,344.154
		c-344.857,0-434.197-154.088-434.197-344.154c0-190.064,194.396-344.143,434.197-344.143S1725.568,1243.958,1725.568,1434.022z"/>
	<path fill="none" stroke="#231815" stroke-width="8" stroke-miterlimit="10" d="M1725.568,1434.022
		c0,12.5,20.727,344.154-434.186,344.154c-344.857,0-434.197-154.088-434.197-344.154c0-190.064,194.396-344.143,434.197-344.143
		S1725.568,1243.958,1725.568,1434.022z"/>
</g>
<g >
	<g>
		<defs>
			<path id="SVGID_7_" d="M1587.083,1398.096c-28.374,38.304-166.438,100.884-255.425,93.799
				c-169.977-13.527-252.332-40.565-435.84-187.276c51.908-111.945,220.139-232.021,444.65-210.13
				c117.713,11.477,211.36,55.618,276.541,117.605C1676.146,1268.335,1617.082,1357.598,1587.083,1398.096z"/>
		</defs>
		<clipPath id="SVGID_8_">
			<use xlink:href="#SVGID_7_"  overflow="visible"/>
		</clipPath>

			<rect x="841.838" y="900.771" clip-path="url(#SVGID_8_)" fill="#D791B7" width="988.499" height="952.479"/>
	</g>
</g>
<g id="Tail">
	<g>
		<g>
			<defs>
				<path id="SVGID_9_" d="M1655.854,1636.466c22.407-14.302,106.26-14.013,131.869,4.717
					c79.014,57.775,63.87,57.513,143.457,99.102c131.08,68.494,237.993,75.031,362.391,65.908c0,0,7.546-74.262-91.354-211.352
					c-56.587-78.423-153.47-141.177-160.54-147.221c34.715-36.889,91.934-78.719,191.74-228.729
					c90.03-135.302,116.234-191.948,132.27-229.667c0,0-102.841-24.849-282.282,64.583
					c-96.851,48.267-137.8,103.132-229.749,179.704c-24.926,20.764-84.68,33.75-130.025,34.045
					c-42.098,0.273-67.773-11.126-67.773-11.126"/>
			</defs>
			<clipPath id="SVGID_10_">
				<use xlink:href="#SVGID_9_"  overflow="visible"/>
			</clipPath>

				<rect x="-307.527" y="299.456" clip-path="url(#SVGID_10_)" fill="#549D86" stroke="#231815" stroke-width="8" stroke-miterlimit="10" width="3931.388" height="2386.677"/>
		</g>
	</g>
	<g id="TailFin">
		<g>
			<defs>
				<path id="SVGID_11_" d="M1759.98,1630.244c12.405,2.444,22.978,6.064,29.623,10.938c78.754,57.775,63.662,57.513,142.989,99.102
					c130.656,68.494,237.211,75.032,361.216,65.907c0,0,7.516-74.261-91.064-211.351
					c-56.393-78.423-152.965-141.177-160.013-147.221c34.604-36.888,91.637-78.719,191.123-228.729
					c89.726-135.302,115.854-191.948,131.831-229.667c0,0-102.497-24.849-281.369,64.583
					c-96.527,48.267-137.348,103.131-228.998,179.704c-18.568,15.522-56.541,26.699-93.413,31.475
					C1793.804,1362.229,1791.842,1536.229,1759.98,1630.244z"/>
			</defs>
			<clipPath id="SVGID_12_">
				<use xlink:href="#SVGID_11_"  overflow="visible"/>
			</clipPath>

				<rect x="1697.188" y="767.718" clip-path="url(#SVGID_12_)" fill="#AC5555" width="1071.039" height="1318.418"/>
		</g>
	</g>
	<path fill="none" stroke="#231815" stroke-width="8" stroke-linecap="round" stroke-miterlimit="10" d="
		M2337.186,1049.373c0,0-113.144,83.232-251.836,150.981c-178.678,87.285-310.188,110.617-310.188,110.617 M1784.445,1395.626
		c204.347-25.879,334.787-114.878,454.145-181.654 M1784.445,1492.396c56.548,0,146.861,8.106,262.33-48.984 M2293.809,1806.191
		c-126.307-193.189-311.313-281.856-436.199-313.398 M2094.137,1798.563c-74.42-101.698-201.851-196.285-318.984-239.354
		 M1814.582,1656.983c-18.436-25.498-20.777-31.661-52.461-50.323 M1658.168,1636.466c22.33-14.302,105.909-14.013,131.438,4.717
		c78.752,57.775,63.662,57.513,142.988,99.102c130.656,68.494,237.211,75.031,361.215,65.908c0,0,7.517-74.262-91.063-211.352
		c-56.394-78.423-152.965-141.177-160.013-147.221c34.604-36.889,91.637-78.719,191.123-228.729
		c89.726-135.302,115.854-191.948,131.831-229.667c0,0-102.497-24.849-281.369,64.583
		c-96.526,48.267-137.347,103.132-228.998,179.704c-24.853,20.764-84.401,33.75-129.601,34.045
		c-41.965,0.273-67.551-11.126-67.551-11.126"/>
</g>
<g>
	<g>
		<g>
			<defs>
				<path id="SVGID_13_" d="M1304.368,1668.22c26.114,5.077,131.38,46.617,165.419,110.44c19.611,36.764,18.189,74.734,17.7,138.51
					c-92.456-18.503-225.412-123.234-289.138-260.521c0,0,28.318,10.448,56.056,10.418
					C1285.923,1667.033,1304.368,1668.22,1304.368,1668.22z"/>
			</defs>
			<clipPath id="SVGID_14_">
				<use xlink:href="#SVGID_13_"  overflow="visible"/>
			</clipPath>

				<rect x="359.145" y="438.087" clip-path="url(#SVGID_14_)" fill="#C9822A" width="2242.728" height="2218.08"/>
		</g>
	</g>
	<path fill="none" stroke="#060001" stroke-width="6" stroke-linecap="round" stroke-miterlimit="10" d="
		M1386.602,1874.671c0,0-35.336-26.409-77.358-82.144c-40.136-53.228-77.771-126.933-77.771-126.933 M1265.938,1667.807
		c0,0,41.355,64.222,89.533,113.9c95.287,98.282,132.18,116.641,132.18,116.641 M1285.923,1667.033c0,0,27.459,29.933,77.868,69.217
		c67.482,52.571,117.408,71.766,117.408,71.766 M1198.352,1656.647c63.725,137.287,196.681,242.02,289.137,260.521
		c0.49-63.774,1.91-101.746-17.7-138.51c-34.039-63.823-139.306-105.363-165.419-110.44"/>
</g>
<g>
	<g>
		<g>
			<defs>
				<path id="SVGID_15_" d="M1189.926,1460.094c9.163,147.354-59.605,289.715-154.031,289.715
					c-94.428,0-185.996-124.974-195.237-284.053c-8.216-141.451,51.989-295.509,160.838-295.615
					C1096.997,1170.047,1180.037,1301.037,1189.926,1460.094z"/>
			</defs>
			<clipPath id="SVGID_16_">
				<use xlink:href="#SVGID_15_"  overflow="visible"/>
			</clipPath>

				<rect x="-307.527" y="295.456" clip-path="url(#SVGID_16_)" fill="#58A58C" width="3931.388" height="2386.677"/>
		</g>
	</g>
	<path fill="none" stroke="#231815" stroke-width="8" stroke-miterlimit="10" d="M1189.926,1460.094
		c9.163,147.354-59.605,289.715-154.031,289.715c-94.428,0-185.996-124.974-195.237-284.053
		c-8.216-141.451,51.989-295.509,160.838-295.615C1096.997,1170.047,1180.037,1301.037,1189.926,1460.094z"/>
</g>
<g>
	<g>
		<g>
			<defs>
				<path id="SVGID_17_" d="M1026.336,1749.303c-95.213,1.193-260.062-75.289-309.754-201.946
					c42.76-9.512,100.452-28.337,100.452-28.337s-46.396-44.968-114.254-51.718c6.455-139.681,169.377-291.291,279.589-295.491
					L1026.336,1749.303z"/>
			</defs>
			<clipPath id="SVGID_18_">
				<use xlink:href="#SVGID_17_"  overflow="visible"/>
			</clipPath>

				<rect x="-305.694" y="290.622" clip-path="url(#SVGID_18_)" fill="#58A58C" width="3931.389" height="2386.677"/>
		</g>
	</g>
	<path fill="none" stroke="#231815" stroke-width="8" stroke-miterlimit="10" d="M1026.336,1749.303
		c-95.213,1.193-260.062-75.289-309.754-201.946c42.76-9.512,100.452-28.337,100.452-28.337s-46.396-44.968-114.254-51.718
		c6.455-139.681,169.377-291.291,279.589-295.491"/>
</g>
<g >
	<path opacity="0.3" fill="#514F4F" enable-background="new    " d="M1106.229,1342.775
		c0,64.625-52.385,117.007-117.007,117.007s-117.008-52.382-117.008-117.007c0-64.622,52.386-117.005,117.008-117.005
		C1053.845,1225.771,1106.229,1278.153,1106.229,1342.775z"/>

		<radialGradient id="Eye4_1_" cx="-213.1201" cy="2737.2617" r="99.3325" gradientTransform="matrix(1 0 0 -1 1202.3398 4080.0391)" gradientUnits="userSpaceOnUse">
		<stop  offset="0.8316" style="stop-color:#FFFFFF"/>
		<stop  offset="1" style="stop-color:#C4C4C4"/>
	</radialGradient>
	<path fill="url(#Eye4_1_)" stroke="#000000" stroke-width="8" stroke-miterlimit="10" d="M1088.552,1342.775
		c0,54.862-44.471,99.334-99.33,99.334c-54.862,0-99.334-44.472-99.334-99.334c0-54.86,44.472-99.331,99.334-99.331
		C1044.082,1243.444,1088.552,1287.915,1088.552,1342.775z"/>
	<g>
		<g>
			<defs>
				<circle id="SVGID_19_" cx="989.221" cy="1342.775" r="70.58"/>
			</defs>
			<clipPath id="SVGID_20_">
				<use xlink:href="#SVGID_19_"  overflow="visible"/>
			</clipPath>
			<rect x="870.383" y="1209.973" clip-path="url(#SVGID_20_)" fill="#6E438F" width="250" height="250"/>
		</g>
	</g>
	<path fill="#231815" d="M1040.343,1342.775c0,28.236-22.884,51.124-51.12,51.124c-28.237,0-51.123-22.888-51.123-51.124
		c0-28.233,22.885-51.121,51.123-51.121C1017.459,1291.655,1040.343,1314.542,1040.343,1342.775z"/>
	<path fill="#FFFFFF" d="M1053.641,1307.654c0,14.77-11.968,26.737-26.73,26.737c-14.77,0-26.736-11.968-26.736-26.737
		c0-14.761,11.967-26.73,26.736-26.73C1041.673,1280.924,1053.641,1292.893,1053.641,1307.654z"/>
</g>
<g>
	<g >
		<g>
			<defs>
				<path id="SVGID_21_" d="M892.706,1321.487c9.961-44.34,49.569-77.463,96.914-77.463c39.011,0,72.768,22.484,89.018,55.203
					c-16.795-3.094-45.295-7.594-92.961-2.928C938.157,1300.952,909.342,1314.633,892.706,1321.487z"/>
			</defs>
			<clipPath id="SVGID_22_">
				<use xlink:href="#SVGID_21_"  overflow="visible"/>
			</clipPath>
			<rect x="-1645.019" clip-path="url(#SVGID_22_)" fill="#549D86" width="3931.388" height="2386.677"/>
		</g>
	</g>
	<path fill="none" stroke="#000000" stroke-width="4" stroke-miterlimit="10" d="M892.706,1321.487
		c9.961-44.34,49.569-77.463,96.914-77.463c39.011,0,72.768,22.484,89.018,55.203c-16.795-3.094-45.295-7.594-92.961-2.928
		C938.157,1300.952,909.342,1314.633,892.706,1321.487z"/>
</g>
<g>

		<linearGradient id="HeadwearLine2_2_" gradientUnits="userSpaceOnUse" x1="-445.6211" y1="2887.7051" x2="-192.7662" y2="3033.6909" gradientTransform="matrix(1 0 0 -1 1202.3398 4080.0391)">
		<stop  offset="0" style="stop-color:#F3EC45"/>
		<stop  offset="0.102" style="stop-color:#D5A61E"/>
		<stop  offset="0.3214" style="stop-color:#E3C52A"/>
		<stop  offset="0.5918" style="stop-color:#D5A61E"/>
		<stop  offset="0.852" style="stop-color:#F3EC45"/>
	</linearGradient>

		<path fill="url(#HeadwearLine2_2_)" stroke="#755223" stroke-width="8" stroke-linecap="round" stroke-linejoin="round" stroke-miterlimit="10" d="
		M973,983c0,0,37,104.667,60,177.667c-24,29-74.648,50.816-101,62.333c-58.766,25.683-131.067,44.789-136,37c-19-30-83-156-83-156
		s56,14.333,111.333,30c1.333-32.333,6.333-121.333,6.333-121.333L931,1090L973,983z"/>

		<path  fill="none" stroke="#755223" stroke-width="5" stroke-linecap="round" stroke-linejoin="round" stroke-miterlimit="10" d="
		M776,1217c0,0,63.786-10.012,126-36c79-33,115-67,115-67"/>
</g>
<g >
	<path id="Nose1" stroke="#1A1A1A" stroke-width="2" stroke-miterlimit="10" d="M758.097,1410.643
		c-4.515,5.27-10.104,6.615-12.122,5.51c-2.018-1.106-2.542-6.635-0.176-13.313c2.029-5.729,8.725-7.662,12.121-5.508
		C761.314,1399.485,762.081,1405.992,758.097,1410.643z"/>
</g>
<g >
	<path  d="M1065,1867.333c-1.416,0.473-106.907-16.543-142-85.999C891,1718,905.095,1645.347,885.667,1580
		c-29.334-98.667-98.167-138.5-93.834-146.5c-4.167-8,66.276,38.728,97.833,112.5c49.833,116.5,17.333,156.5,50,236
		C969.537,1854.695,1066.016,1866.995,1065,1867.333z"/>
</g>
<g >
	<path id="Brow1" d="M1057.333,1232.667c-11-9.5-20.667-30.333-64.167-33.833c-48-2-63,31.333-68.667,33.667
		c-2.167-6,17.795-41.236,72-40.5C1033.333,1192.5,1060,1226,1057.333,1232.667z"/>
</g>
</svg>
