<?xml version="1.0" encoding="utf-8"?>
<!-- Generator: Adobe Illustrator 16.0.0, SVG Export Plug-In . SVG Version: 6.00 Build 0)  -->
<!DOCTYPE svg PUBLIC "-//W3C//DTD SVG 1.1//EN" "http://www.w3.org/Graphics/SVG/1.1/DTD/svg11.dtd" [
	<!ENTITY ns_extend "http://ns.adobe.com/Extensibility/1.0/">
	<!ENTITY ns_ai "http://ns.adobe.com/AdobeIllustrator/10.0/">
	<!ENTITY ns_graphs "http://ns.adobe.com/Graphs/1.0/">
	<!ENTITY ns_vars "http://ns.adobe.com/Variables/1.0/">
	<!ENTITY ns_imrep "http://ns.adobe.com/ImageReplacement/1.0/">
	<!ENTITY ns_sfw "http://ns.adobe.com/SaveForWeb/1.0/">
	<!ENTITY ns_custom "http://ns.adobe.com/GenericCustomNamespace/1.0/">
	<!ENTITY ns_adobe_xpath "http://ns.adobe.com/XPath/1.0/">
]>
<svg version="1.1" id="Fish" xmlns:x="&ns_extend;" xmlns:i="&ns_ai;" xmlns:graph="&ns_graphs;"
	 xmlns="http://www.w3.org/2000/svg" xmlns:xlink="http://www.w3.org/1999/xlink" x="0px" y="0px" 
	 viewBox="0 0 3000 3000" enable-background="new 0 0 3000 3000" xml:space="preserve">
<metadata>
	<sfw  xmlns="&ns_sfw;">
		<slices></slices>
		<sliceSourceBounds  height="2418.299" width="4027.445" y="298.66" x="-308.027" bottomLeftOrigin="true"></sliceSourceBounds>
	</sfw>
</metadata>
<!--<g id="DorsalFin">-->
	<!--<g id="DorsalFinColor_2_">-->
		<!--<g>-->
			<!--<defs>-->
				<!--<path id="SVGID_1_" d="M1732.766,1160.741c5.264,14.647-79.072,47.238,15.275,154.863-->
					<!--c-627.424-158.142-636.855-93.311-644.18-96.311c-53.396-3.595-69.285-15.776-96.497-42.987-->
					<!--c28.084-35.941,143.151-235.319,302.323-343.02c13.707-9.279,67.199,214.864,251.589,159.046-->
					<!--C1567.943,1037.517,1558.189,1162.796,1732.766,1160.741z"/>-->
			<!--</defs>-->
			<!--<clipPath id="SVGID_2_">-->
				<!--<use xlink:href="#SVGID_1_"  overflow="visible"/>-->
			<!--</clipPath>-->
			<!---->
				<!--<rect id="FinAllColor_6_" x="359.145" y="438.087" clip-path="url(#SVGID_2_)" fill="#C9822A" width="2242.728" height="2218.08"/>-->
		<!--</g>-->
	<!--</g>-->
	<!--<path id="DorsalFinLine_2_" fill="none" stroke="#060001" stroke-width="6" stroke-miterlimit="10" d="M1069.665,1215.835-->
		<!--c0,0,47.323-101.542,123.979-196.805c79.863-99.25,139.4-148.992,139.4-148.992 M1356.896,910.286-->
		<!--c0,0-53.063,44.03-116.013,127.229c-67.416,89.103-109.698,172.276-109.698,172.276 M1384.947,945.873-->
		<!--c0,0-39.375,31.403-99.908,111.154c-60.227,79.347-98.873,151.94-98.873,151.94 M1430.938,982.365c0,0-33.629,32.33-80.443,91.418-->
		<!--c-49.178,62.073-91.98,141.181-91.98,141.181 M1496.313,1001.058c0,0-43.221,42.365-81.884,92.938-->
		<!--c-42.616,55.753-88.069,130.478-88.069,130.478 M1563.93,1018.209c0,0-30.746,23.695-88.916,97.351-->
		<!--c-60.228,76.266-80.789,120.631-80.789,120.631 M1578.521,1082.881c0,0-16.846,14.478-57.299,66.565-->
		<!--c-39.684,51.105-68.965,97.998-68.965,97.998 M1611.639,1127.554c0,0-7.545,4.519-45.442,48.582-->
		<!--c-32.655,37.969-63.089,81.896-63.089,81.896 M1658.168,1151.598c0,0-22.16,16.645-56.824,55.697-->
		<!--c-21.499,24.208-52.906,60.652-52.906,60.652 M1728.506,1161.46c0,0-36.291,25.006-85.08,69.983-->
		<!--c-20.591,18.979-47.428,47.313-47.428,47.313 M1704.383,1238.651c0,0-7.262,5.374-25.021,21.701-->
		<!--c-17.232,15.846-33.125,30.228-33.125,30.228 M1561.275,992.334c-184.391,55.818-237.883-168.326-251.588-159.046-->
		<!--c-159.172,107.7-274.24,307.077-302.324,343.02c27.212,27.211,43.101,39.393,96.496,42.987c7.326,3,16.757-61.831,644.181,96.312-->
		<!--c-94.349-107.625-10.013-140.217-15.274-154.864C1558.189,1162.796,1567.943,1037.517,1561.275,992.334z"/>-->
<!--</g>-->
<!--<g id="VentralFin">-->
	<!--<g id="VentralFinColor_2_">-->
		<!--<g>-->
			<!--<defs>-->
				<!--<path id="SVGID_3_" d="M1561.521,1630.631c-53.435,29.806-166.394,99.873-183.817,112.752-->
					<!--c153.013,178.552,369.396,242.921,462.838,255.454c-11.293-84.202-105.471-234.131-182.276-275.354-->
					<!--C1609.126,1684.633,1570.761,1650.003,1561.521,1630.631z"/>-->
			<!--</defs>-->
			<!--<clipPath id="SVGID_4_">-->
				<!--<use xlink:href="#SVGID_3_"  overflow="visible"/>-->
			<!--</clipPath>-->
			<!---->
				<!--<rect id="FinAllColor_3_" x="359.145" y="438.087" clip-path="url(#SVGID_4_)" fill="#C9822A" width="2242.728" height="2218.08"/>-->
		<!--</g>-->
	<!--</g>-->
	<!--<path id="VentralFinLine_2_" fill="none" stroke="#060001" stroke-width="6" stroke-miterlimit="10" d="M1552.814,1891.048-->
		<!--c0,0-42.521-38.935-67.09-67.755c-36.976-43.377-77.095-96.975-77.095-96.975 M1443.538,1703.729-->
		<!--c0,0,44.181,61.611,106.688,125.668c51.867,53.148,189.525,146.135,189.525,146.135 M1482.818,1677.01-->
		<!--c0,0,50.052,75.167,152.235,152.697c93.027,70.584,197.628,135.021,197.628,135.021 M1524.389,1652.073-->
		<!--c0,0,53.473,69.665,136.745,134.834c64.584,50.543,125.109,77.813,125.109,77.813 M1561.521,1630.631-->
		<!--c-53.435,29.806-166.394,99.873-183.817,112.752c153.013,178.552,369.396,242.921,462.838,255.454-->
		<!--c-11.293-84.202-105.471-234.131-182.276-275.354C1609.126,1684.633,1570.761,1650.003,1561.521,1630.631z"/>-->
<!--</g>-->
<!--<g id="Body">-->
	<!--<g id="BodyColor">-->
		<!--<g>-->
			<!--<defs>-->
				<!--<path id="SVGID_5_" d="M1725.568,1434.022c0,12.5,20.727,344.154-434.186,344.154c-344.857,0-434.197-154.088-434.197-344.154-->
					<!--c0-190.064,194.396-344.143,434.197-344.143S1725.568,1243.958,1725.568,1434.022z"/>-->
			<!--</defs>-->
			<!--<clipPath id="SVGID_6_">-->
				<!--<use xlink:href="#SVGID_5_"  overflow="visible"/>-->
			<!--</clipPath>-->
			<!---->
				<!--<rect id="BodyAllColor_3_" x="-307.527" y="299.456" clip-path="url(#SVGID_6_)" fill="#549D86" width="3931.388" height="2386.677"/>-->
		<!--</g>-->
	<!--</g>-->
	<!--<path id="BodyMask" fill="none" d="M1725.568,1434.022c0,12.5,20.727,344.154-434.186,344.154-->
		<!--c-344.857,0-434.197-154.088-434.197-344.154c0-190.064,194.396-344.143,434.197-344.143S1725.568,1243.958,1725.568,1434.022z"/>-->
	<!--<path id="BodyLine" fill="none" stroke="#231815" stroke-width="8" stroke-miterlimit="10" d="M1725.568,1434.022-->
		<!--c0,12.5,20.727,344.154-434.186,344.154c-344.857,0-434.197-154.088-434.197-344.154c0-190.064,194.396-344.143,434.197-344.143-->
		<!--S1725.568,1243.958,1725.568,1434.022z"/>-->
<!--</g>-->
<!--<g id="BodySkin">-->
	<!--<g>-->
		<!--<defs>-->
			<!--<path id="SVGID_7_" d="M1487.911,1393.055c0,44.296-33.384,80.199-74.56,80.199c-41.18,0-74.56-35.904-74.56-80.199-->
				<!--c0-44.292,33.38-80.198,74.56-80.198C1454.527,1312.856,1487.911,1348.763,1487.911,1393.055z M1521.191,1165.397-->
				<!--c-20.901,24.716-13.799,65.061,15.836,90.123c29.642,25.057,70.604,25.343,91.504,0.618c3.794-4.486,6.661-9.487,8.646-14.819-->
				<!--c-6.31-20.612-86.215-93.64-106.996-84.217C1526.506,1158.771,1523.882,1162.222,1521.191,1165.397z M1327.943,1132.376-->
				<!--c-16.981,20.083-11.211,52.864,12.871,73.229c24.08,20.358,57.371,20.592,74.354,0.504c16.98-20.081,11.203-52.863-12.881-73.227-->
				<!--C1378.207,1112.521,1344.926,1112.294,1327.943,1132.376z M1100.977,1150.05c4.176,16.072,37.914,21.194,75.344,11.458-->
				<!--c37.426-9.741,64.388-30.661,60.197-46.737c-4.175-16.069-37.767-17.043-75.197-7.307-->
				<!--C1123.891,1117.205,1096.794,1133.978,1100.977,1150.05z M1196.159,1407.486c26.821,2.194,50.722-22.722,53.412-55.638-->
				<!--c2.688-32.908-16.86-61.369-43.7-63.551c-26.809-2.198-50.711,22.723-53.404,55.634-->
				<!--C1149.785,1376.846,1169.341,1405.298,1196.159,1407.486z M1355.715,1643.021c7.984-25.705-14.331-55.453-49.811-66.474-->
				<!--c-35.484-11.013-70.717,0.871-78.689,26.586c-7.988,25.688,14.326,55.439,49.809,66.463-->
				<!--C1312.508,1680.609,1347.734,1668.714,1355.715,1643.021z M1599.824,1592.245c5.514-35.573-21.834-69.307-61.069-75.395-->
				<!--c-39.229-6.08-75.508,17.795-81.015,53.368c-5.521,35.549,21.834,69.29,61.063,75.377-->
				<!--C1558.031,1651.677,1594.311,1627.798,1599.824,1592.245z"/>-->
		<!--</defs>-->
		<!--<clipPath id="SVGID_8_">-->
			<!--<use xlink:href="#SVGID_7_"  overflow="visible"/>-->
		<!--</clipPath>-->
		<!--<rect id="SkinAllColor" x="638.459" y="580.823" clip-path="url(#SVGID_8_)" fill="#D791B7" width="2029.134" height="1955.199"/>-->
	<!--</g>-->
<!--</g>-->
<!--<g id="Tail">-->
	<!--<g id="TailColor_4_">-->
		<!--<g>-->
			<!--<defs>-->
				<!--<path id="SVGID_9_" d="M1672.332,1620.332c5.521-3.539,255.333-115,297.333-100C2102,1672,2048,1987,2753,1939-->
					<!--c-113.515-58.548-458.48-132.535-430-498c21.501-275.897,202-312,518-636c-478-74-726.917,450.404-866.002,537.332-->
					<!--c-32,20-303.999-75.333-303.999-75.333L1672.332,1620.332z"/>-->
			<!--</defs>-->
			<!--<clipPath id="SVGID_10_">-->
				<!--<use xlink:href="#SVGID_9_"  overflow="visible"/>-->
			<!--</clipPath>-->
			<!---->
				<!--<rect id="BodyAllColor_8_" x="-215.471" y="303.536" clip-path="url(#SVGID_10_)" fill="#549D86" stroke="#231815" stroke-width="8" stroke-miterlimit="10" width="3931.389" height="2386.677"/>-->
		<!--</g>-->
	<!--</g>-->
	<!--<g id="TailFin_4_">-->
		<!--<g>-->
			<!--<defs>-->
				<!--<path id="SVGID_11_" d="M1959.465,1518.944c4.139,0.007,7.575,0.449,10.2,1.388C2102,1672,2048,1987,2753,1939-->
					<!--c-113.515-58.548-458.48-132.535-430-498c21.501-275.897,202-312,518-636c-469.484-72.682-717.977,431.91-858.464,532.275-->
					<!--C1988.332,1369.667,2000.332,1469.667,1959.465,1518.944z"/>-->
			<!--</defs>-->
			<!--<clipPath id="SVGID_12_">-->
				<!--<use xlink:href="#SVGID_11_"  overflow="visible"/>-->
			<!--</clipPath>-->
			<!---->
				<!--<rect id="TailFinAllColor_5_" x="1789.244" y="771.798" clip-path="url(#SVGID_12_)" fill="#AC5555" width="1071.038" height="1318.418"/>-->
		<!--</g>-->
	<!--</g>-->
	<!--<path id="TailLine_4_" fill="none" stroke="#231815" stroke-width="8" stroke-linecap="round" stroke-miterlimit="10" d="-->
		<!--M2793.025,849.124c0,0-114.025,9.876-290.025,83.876c-257.862,108.419-412,292-412,292 M2019,1307-->
		<!--c200-156,535.03-344.381,669.03-360.381 M1982,1359c74-2,459.539-254.889,533.539-260.889 M2362.333,1281.667-->
		<!--C2267,1315,2175.001,1369,1981,1385 M2331.666,1381c-89.333,30-291.333,33-352.666,29 M2322.333,1527-->
		<!--c-38.667-15.333-165-74.667-342.333-92 M2352.333,1640.333C2313,1614.333,2141.334,1492,1978,1454 M2695,1913.667-->
		<!--c-25.999-6-136.665,30-299.999-88C2248.299,1719.683,2064,1519,1974,1477 M2442,1933c-27-11-165-67-252-152-->
		<!--c-129.452-126.478-141.334-228.333-222-281 M1672.332,1620.332c5.521-3.539,255.333-115,297.333-100C2102,1672,2048,1987,2753,1939-->
		<!--c-113.515-58.548-458.48-132.535-430-498c21.501-275.897,202-312,518-636c-478-74-726.917,450.404-866.002,537.332-->
		<!--c-32,20-303.999-75.333-303.999-75.333"/>-->
<!--</g>-->
<!--<g id="PectoralFin">-->
	<!--<g id="PectoralFinColor_2_">-->
		<!--<g>-->
			<!--<defs>-->
				<!--<path id="SVGID_13_" d="M1210.757,1633.986c25.929-10.96,75.861-54.81,132.949-99.227-->
					<!--c69.086-53.754,177.382-103.977,176.653-42.592c-2.824,237.703-207.176,177.813-246.195,185.845c0,0-12.13-15.565-27.153-26.71-->
					<!--C1231.984,1640.161,1210.757,1633.986,1210.757,1633.986z"/>-->
			<!--</defs>-->
			<!--<clipPath id="SVGID_14_">-->
				<!--<use xlink:href="#SVGID_13_"  overflow="visible"/>-->
			<!--</clipPath>-->
			<!--<rect id="FinAllColor" x="359.145" y="438.087" clip-path="url(#SVGID_14_)" fill="#C9822A" width="2242.728" height="2218.08"/>-->
		<!--</g>-->
	<!--</g>-->
	<!--<path id="PectoralFinLine_2_" fill="none" stroke="#060001" stroke-width="6" stroke-linecap="round" stroke-miterlimit="10" d="-->
		<!--M1490.066,1614.692c0,0-35.684,27.91-111.287,38.675c-66,9.399-115.711,12.169-115.711,12.169 M1247.011,1651.304-->
		<!--c0,0,106.9-21.77,170.406-49.277c85.235-36.929,97.917-54.619,97.917-54.619 M1228.964,1640.112c0,0,117.132-52.839,173.049-83.786-->
		<!--c81.638-45.181,116.845-75.717,116.845-75.717 M1274.164,1678.014c39.02-8.031,243.371,51.857,246.195-185.845-->
		<!--c0.729-61.385-107.567-11.162-176.653,42.592c-57.088,44.417-105.229,86.594-131.156,97.555"/>-->
<!--</g>-->
<!--<g id="Head">-->
	<!--<g id="HeadColor">-->
		<!--<g>-->
			<!--<defs>-->
				<!--<path id="SVGID_15_" d="M1189.926,1460.094c9.163,147.354-59.605,289.715-154.031,289.715-->
					<!--c-94.428,0-185.996-124.974-195.237-284.053c-8.216-141.451,51.989-295.509,160.838-295.615-->
					<!--C1096.997,1170.047,1180.037,1301.037,1189.926,1460.094z"/>-->
			<!--</defs>-->
			<!--<clipPath id="SVGID_16_">-->
				<!--<use xlink:href="#SVGID_15_"  overflow="visible"/>-->
			<!--</clipPath>-->
			<!---->
				<!--<rect id="BodyAllColor_1_" x="-307.527" y="295.456" clip-path="url(#SVGID_16_)" fill="#58A58C" width="3931.388" height="2386.677"/>-->
		<!--</g>-->
	<!--</g>-->
	<!--<path id="HeadLine" fill="none" stroke="#231815" stroke-width="8" stroke-miterlimit="10" d="M1189.926,1460.094-->
		<!--c9.163,147.354-59.605,289.715-154.031,289.715c-94.428,0-185.996-124.974-195.237-284.053-->
		<!--c-8.216-141.451,51.989-295.509,160.838-295.615C1096.997,1170.047,1180.037,1301.037,1189.926,1460.094z"/>-->
<!--</g>-->
<!--<g id="Mouth">-->
	<!--<g id="MouthColor_3_">-->
		<!--<g>-->
			<!--<defs>-->
				<!--<path id="SVGID_17_" d="M1029,1749c-232.5,7-301.5-108.5-309-232c-7.182-118.252,19.104-296.149,252-343L1029,1749z"/>-->
			<!--</defs>-->
			<!--<clipPath id="SVGID_18_">-->
				<!--<use xlink:href="#SVGID_17_"  overflow="visible"/>-->
			<!--</clipPath>-->
			<!---->
				<!--<rect id="BodyAllColor_10_" x="-295.71" y="283.541" clip-path="url(#SVGID_18_)" fill="#58A58C" width="3983.478" height="2418.299"/>-->
		<!--</g>-->
	<!--</g>-->
	<!---->
		<!--<path id="MouthLine_3_" fill="none" stroke="#231815" stroke-width="8" stroke-linecap="round" stroke-linejoin="round" stroke-miterlimit="10" d="-->
		<!--M1029,1749c-232.5,7-301.5-108.5-309-232c-6.806-112.066,15.511-295.426,252-343"/>-->
	<!--<g id="MouthLipColor">-->
		<!--<g>-->
			<!--<defs>-->
				<!--<path id="SVGID_19_" d="M875.667,1567.667c34,45.666-34.467,79.616-86.167,88c-30.833,5-76.446,0.918-93.833-14.334-->
					<!--C681.189,1628.634,687,1589.667,700,1575c-40.333-32.333,2.333-98.333,55.333-62.333c34.667-27.667,64.586-11.268,86,1.666-->
					<!--C875,1534.667,888,1555,875.667,1567.667z"/>-->
			<!--</defs>-->
			<!--<clipPath id="SVGID_20_">-->
				<!--<use xlink:href="#SVGID_19_"  overflow="visible"/>-->
			<!--</clipPath>-->
			<!---->
				<!--<rect id="BodyAllColor_11_" x="-295.71" y="283.541" clip-path="url(#SVGID_20_)" fill="#58A58C" width="3983.478" height="2418.299"/>-->
		<!--</g>-->
	<!--</g>-->
	<!---->
		<!--<path id="MouthLipLine" fill="none" stroke="#231815" stroke-width="8" stroke-linecap="round" stroke-linejoin="round" stroke-miterlimit="10" d="-->
		<!--M690.333,1591c3.271-7.681,7.214-12.212,12.667-17.875c60.5-2.625,63,7.125,63,7.125s15.25-20.125,75.625-8.375-->
		<!--c23.239,4.522,29.292-4.084,32.75-6.625C944.458,1654.834,641.405,1705.943,690.333,1591z M756.333,1512-->
		<!--c-43-29.333-76.085,1.639-71.667,40.667c4,35.333,57.667,10,80.667,27.333c40.333-31,93.667,13,114.333-21.667-->
		<!--C889.372,1542.054,803,1464.333,756.333,1512z"/>-->
<!--</g>-->
<!--<g id="Eye">-->
	<!--<path id="Eye5" opacity="0.3" fill="#514F4F" enable-background="new    " d="M1106.229,1342.775-->
		<!--c0,64.625-52.385,117.007-117.007,117.007s-117.008-52.382-117.008-117.007c0-64.622,52.386-117.005,117.008-117.005-->
		<!--C1053.845,1225.771,1106.229,1278.153,1106.229,1342.775z"/>-->
	<!---->
		<!--<radialGradient id="Eye4_1_" cx="-213.1201" cy="2737.2617" r="99.3325" gradientTransform="matrix(1 0 0 -1 1202.3398 4080.0391)" gradientUnits="userSpaceOnUse">-->
		<!--<stop  offset="0.8316" style="stop-color:#FFFFFF"/>-->
		<!--<stop  offset="1" style="stop-color:#C4C4C4"/>-->
	<!--</radialGradient>-->
	<!--<path id="Eye4" fill="url(#Eye4_1_)" stroke="#000000" stroke-width="8" stroke-miterlimit="10" d="M1088.552,1342.775-->
		<!--c0,54.862-44.471,99.334-99.33,99.334c-54.862,0-99.334-44.472-99.334-99.334c0-54.86,44.472-99.331,99.334-99.331-->
		<!--C1044.082,1243.444,1088.552,1287.915,1088.552,1342.775z"/>-->
	<!--<g id="Eye3">-->
		<!--<g>-->
			<!--<defs>-->
				<!--<circle id="SVGID_21_" cx="989.221" cy="1342.775" r="70.58"/>-->
			<!--</defs>-->
			<!--<clipPath id="SVGID_22_">-->
				<!--<use xlink:href="#SVGID_21_"  overflow="visible"/>-->
			<!--</clipPath>-->
			<!--<rect id="EyeAllColor" x="870.383" y="1209.973" clip-path="url(#SVGID_22_)" fill="#6E438F" width="250" height="250"/>-->
		<!--</g>-->
	<!--</g>-->
	<!--<path id="Eye2" fill="#231815" d="M1040.343,1342.775c0,28.236-22.884,51.124-51.12,51.124c-28.237,0-51.123-22.888-51.123-51.124-->
		<!--c0-28.233,22.885-51.121,51.123-51.121C1017.459,1291.655,1040.343,1314.542,1040.343,1342.775z"/>-->
	<!--<path id="Eye1" fill="#FFFFFF" d="M1053.641,1307.654c0,14.77-11.968,26.737-26.73,26.737c-14.77,0-26.736-11.968-26.736-26.737-->
		<!--c0-14.761,11.967-26.73,26.736-26.73C1041.673,1280.924,1053.641,1292.893,1053.641,1307.654z"/>-->
<!--</g>-->
<!--<g id="Eyelid_1_">-->
	<!---->
		<!--<path id="null_9_" fill="none" stroke="#231815" stroke-width="8" stroke-linecap="round" stroke-linejoin="round" stroke-miterlimit="10" d="-->
		<!--M924.12,1508.09"/>-->
<!--</g>-->
<!--<g id="HeadWear_1_">-->
	<!---->
		<!--<path id="null_2_" fill="none" stroke="#231815" stroke-width="8" stroke-linecap="round" stroke-linejoin="round" stroke-miterlimit="10" d="-->
		<!--M924.12,1508.09"/>-->
<!--</g>-->
<!--<g id="Nose">-->
	<!---->
		<!--<path id="null_1_" fill="none" stroke="#231815" stroke-width="8" stroke-linecap="round" stroke-linejoin="round" stroke-miterlimit="10" d="-->
		<!--M924.12,1508.09"/>-->
<!--</g>-->
<!--<g id="Moustache">-->
	<!---->
		<!--<path id="null_8_" fill="none" stroke="#231815" stroke-width="8" stroke-linecap="round" stroke-linejoin="round" stroke-miterlimit="10" d="-->
		<!--M924.12,1508.09"/>-->
<!--</g>-->
<!--<g id="Brow">-->
	<!---->
		<!--<path id="null_12_" fill="none" stroke="#231815" stroke-width="8" stroke-linecap="round" stroke-linejoin="round" stroke-miterlimit="10" d="-->
		<!--M924.12,1508.09"/>-->
<!--</g>-->
</svg>
