<?xml version="1.0" encoding="utf-8"?>
<!-- Generator: Adobe Illustrator 16.0.0, SVG Export Plug-In . SVG Version: 6.00 Build 0)  -->
<!DOCTYPE svg PUBLIC "-//W3C//DTD SVG 1.1//EN" "http://www.w3.org/Graphics/SVG/1.1/DTD/svg11.dtd" [
	<!ENTITY ns_extend "http://ns.adobe.com/Extensibility/1.0/">
	<!ENTITY ns_ai "http://ns.adobe.com/AdobeIllustrator/10.0/">
	<!ENTITY ns_graphs "http://ns.adobe.com/Graphs/1.0/">
	<!ENTITY ns_vars "http://ns.adobe.com/Variables/1.0/">
	<!ENTITY ns_imrep "http://ns.adobe.com/ImageReplacement/1.0/">
	<!ENTITY ns_sfw "http://ns.adobe.com/SaveForWeb/1.0/">
	<!ENTITY ns_custom "http://ns.adobe.com/GenericCustomNamespace/1.0/">
	<!ENTITY ns_adobe_xpath "http://ns.adobe.com/XPath/1.0/">
]>
<svg version="1.1" id="Fish" xmlns:x="&ns_extend;" xmlns:i="&ns_ai;" xmlns:graph="&ns_graphs;"
	 xmlns="http://www.w3.org/2000/svg" xmlns:xlink="http://www.w3.org/1999/xlink" x="0px" y="0px" width="3000px" height="3000px"
	 viewBox="0 0 3000 3000" enable-background="new 0 0 3000 3000" xml:space="preserve">
<metadata>
	<sfw  xmlns="&ns_sfw;">
		<slices></slices>
		<sliceSourceBounds  height="2386.677" width="3931.389" x="-369.944" y="-2694.383" bottomLeftOrigin="true"></sliceSourceBounds>
	</sfw>
</metadata>
<g id="Face_2_">
	
		<path id="Mouth_2_" fill="#3F1708" stroke="#000000" stroke-width="8" stroke-linecap="round" stroke-linejoin="round" stroke-miterlimit="10" d="
		M881,1588c-44.783,40.229-93.333,58.668-131.333,49.668c30,26,90.166,35.666,131.999,26.666C1046.246,1628.927,940,1535,881,1588z"
		/>
	<g id="FaceColor_1_">
		<defs>
			<path id="FaceMask_1_" d="M1035.895,1749.809C960,1750,896,1758,772.333,1655.001C830,1669,919.5,1657.5,962,1618
				c1.333-8,11-16.5-8-31.5c-58.5,5-93,17.5-200-1.5c-97.593-17.329-227-150-221-191.999c16-38,84.667,1.333,207.333-86.667
				C829.883,1242.091,883,1223,957.118,1179.606"/>
		</defs>
		<clipPath id="FaceMask_2_">
			<use xlink:href="#FaceMask_1_"  overflow="visible"/>
		</clipPath>
		
			<rect id="BodyColor_4_" x="-369.944" y="307.706" clip-path="url(#FaceMask_2_)" fill="#57A48A" width="3931.389" height="2386.677"/>
	</g>
	
		<path id="FaceLine_2_" fill="none" stroke="#000000" stroke-width="8" stroke-linecap="round" stroke-linejoin="round" stroke-miterlimit="10" d="
		M1035.895,1749.809C991,1749.667,897.667,1773,747.667,1638.334C791,1666,905,1671,957.667,1620.333
		c14-10.333,7.798-34.032-12-32.666C908.938,1590.202,824.308,1616.134,708,1570c-75.115-29.794-186.504-152.552-175-176.999
		c3.71-7.884,2.305-16.693,60.667-22.667c84.667-8.667,278.667-158.667,363.451-190.728"/>
	<path id="Nose" stroke="#1A1A1A" stroke-width="2" stroke-miterlimit="10" d="M621,1388.924c4.996-3.145,9.877-2.831,11.238-1.424
		c1.36,1.407,2.611,6.031-0.993,10.864c-3.091,4.145-11.236,4.03-13.454,1.423C615.575,1397.181,616.591,1391.701,621,1388.924z"/>
</g>
</svg>
