<?xml version="1.0" encoding="utf-8"?>
<!-- Generator: Adobe Illustrator 16.0.0, SVG Export Plug-In . SVG Version: 6.00 Build 0)  -->
<!DOCTYPE svg PUBLIC "-//W3C//DTD SVG 1.1//EN" "http://www.w3.org/Graphics/SVG/1.1/DTD/svg11.dtd" [
	<!ENTITY ns_extend "http://ns.adobe.com/Extensibility/1.0/">
	<!ENTITY ns_ai "http://ns.adobe.com/AdobeIllustrator/10.0/">
	<!ENTITY ns_graphs "http://ns.adobe.com/Graphs/1.0/">
	<!ENTITY ns_vars "http://ns.adobe.com/Variables/1.0/">
	<!ENTITY ns_imrep "http://ns.adobe.com/ImageReplacement/1.0/">
	<!ENTITY ns_sfw "http://ns.adobe.com/SaveForWeb/1.0/">
	<!ENTITY ns_custom "http://ns.adobe.com/GenericCustomNamespace/1.0/">
	<!ENTITY ns_adobe_xpath "http://ns.adobe.com/XPath/1.0/">
]>
<svg version="1.1" id="Fish" xmlns:x="&ns_extend;" xmlns:i="&ns_ai;" xmlns:graph="&ns_graphs;"
	 xmlns="http://www.w3.org/2000/svg" xmlns:xlink="http://www.w3.org/1999/xlink" x="0px" y="0px" width="3000px" height="3000px"
	 viewBox="0 0 3000 3000" enable-background="new 0 0 3000 3000" xml:space="preserve">
<metadata>
	<sfw  xmlns="&ns_sfw;">
		<slices></slices>
		<sliceSourceBounds  height="2386.677" width="3931.389" x="-366.944" y="-2689.383" bottomLeftOrigin="true"></sliceSourceBounds>
	</sfw>
</metadata>
<g id="Face_3_">
	
		<path id="Mouth_3_" fill="#3F1708" stroke="#000000" stroke-width="8" stroke-linecap="round" stroke-linejoin="round" stroke-miterlimit="10" d="
		M981.667,1514.333C949,1575,883,1644,811.667,1707c15.333,16,80.336,19.375,137.333,0
		C1135.15,1643.722,1014.899,1452.616,981.667,1514.333z"/>
	<path id="Tooth" fill="#FFFFFF" stroke="#221714" stroke-width="5" stroke-linejoin="round" stroke-miterlimit="10" d="
		M986.334,1510.333L1013,1595l-50-18l-4,54.667l-47.333-23.333l-21.333,49.999l-42.667-36.666l-26,42.666l-38-40.666L772,1664
		l-53-59c0,0,58,16.667,152.667-10.666S986.334,1510.333,986.334,1510.333z M815,1711.667l2-34L861,1709l8-36l54,36.667
		L942.334,1665L985,1687.667l17.333-67.333l40.667,40c0,0-40.736,53.842-102.409,72.709C871,1754.333,815,1711.667,815,1711.667z"/>
	<g id="FaceColor_3_">
		<defs>
			<path id="FaceMask_3_" d="M1035.895,1749.809C974,1778,814,1752,803,1710c-2-20,66,22,146-3c95.152-29.735,137.883-122.09,41-178
				c0.884,68.91-139,128.5-272.87,80.586C597.5,1433,788.809,1258.175,957.118,1179.606l145.492,341.483L1035.895,1749.809z"/>
		</defs>
		<clipPath id="FaceMask_1_">
			<use xlink:href="#FaceMask_3_"  overflow="visible"/>
		</clipPath>
		
			<rect id="BodyColor_5_" x="-366.944" y="302.706" clip-path="url(#FaceMask_1_)" fill="#57A48A" width="3931.389" height="2386.677"/>
	</g>
	
		<path id="FaceLine_4_" fill="none" stroke="#000000" stroke-width="8" stroke-linecap="round" stroke-linejoin="round" stroke-miterlimit="10" d="
		M957.118,1179.606C781.627,1258.604,597.667,1443,717.13,1609.586c175.204,52.747,283.754-37.343,272.87-80.586
		c100.884,62.91,51,162-57,184c-51.021,10.393-80-2.001-121.333-10c-8.667,0.666-8.328,15.17,2.667,20.667
		C929,1781.001,993.001,1759,1035.895,1749.809"/>
</g>
</svg>
