<?xml version="1.0" encoding="utf-8"?>
<!-- Generator: Adobe Illustrator 16.0.0, SVG Export Plug-In . SVG Version: 6.00 Build 0)  -->
<!DOCTYPE svg PUBLIC "-//W3C//DTD SVG 1.1//EN" "http://www.w3.org/Graphics/SVG/1.1/DTD/svg11.dtd" [
	<!ENTITY ns_extend "http://ns.adobe.com/Extensibility/1.0/">
	<!ENTITY ns_ai "http://ns.adobe.com/AdobeIllustrator/10.0/">
	<!ENTITY ns_graphs "http://ns.adobe.com/Graphs/1.0/">
	<!ENTITY ns_vars "http://ns.adobe.com/Variables/1.0/">
	<!ENTITY ns_imrep "http://ns.adobe.com/ImageReplacement/1.0/">
	<!ENTITY ns_sfw "http://ns.adobe.com/SaveForWeb/1.0/">
	<!ENTITY ns_custom "http://ns.adobe.com/GenericCustomNamespace/1.0/">
	<!ENTITY ns_adobe_xpath "http://ns.adobe.com/XPath/1.0/">
]>
<svg version="1.1" id="Fish" xmlns:x="&ns_extend;" xmlns:i="&ns_ai;" xmlns:graph="&ns_graphs;"
	 xmlns="http://www.w3.org/2000/svg" xmlns:xlink="http://www.w3.org/1999/xlink" x="0px" y="0px" width="3000px" height="3000px"
	 viewBox="0 0 3000 3000" enable-background="new 0 0 3000 3000" xml:space="preserve">
<metadata>
	<sfw  xmlns="&ns_sfw;">
		<slices></slices>
		<sliceSourceBounds  height="2386.677" width="3931.389" x="-307.527" y="-2682.133" bottomLeftOrigin="true"></sliceSourceBounds>
	</sfw>
</metadata>
<g id="Face">
	<g id="FaceColor">
		<defs>
			<path id="FaceMask" d="M1035.895,1749.809c-158.992,22.498-284.713-77.686-311.265-171.723
				c-35.998-127.493,82.544-314.423,231.037-398.419C973.666,1277.162,1014.115,1621.584,1035.895,1749.809z"/>
		</defs>
		<clipPath id="FaceMask_1_">
			<use xlink:href="#FaceMask"  overflow="visible"/>
		</clipPath>
		
			<rect id="BodyColor_1_" x="-307.527" y="295.456" clip-path="url(#FaceMask_1_)" fill="#57A48A" width="3931.389" height="2386.677"/>
	</g>
	<path id="FaceLine" fill="none" stroke="#000000" stroke-width="8" stroke-miterlimit="10" d="M1035.895,1749.809
		c-158.992,22.498-281.889-78.529-311.265-171.723c-48.973-155.36,139.416-362.816,232.489-398.479"/>
	<path id="Mouth" fill="#7E3000" stroke="#000000" stroke-width="5" stroke-linecap="round" stroke-miterlimit="10" d="
		M1011.576,1582.645c16,36-29,93.5-80.349,98.576c-70.695,6.988-119.651-31.576-143.317-61.91
		C834.576,1635.979,955.909,1661.311,1011.576,1582.645z"/>
</g>
</svg>
