<?xml version="1.0" encoding="utf-8"?>
<!-- Generator: Adobe Illustrator 16.0.0, SVG Export Plug-In . SVG Version: 6.00 Build 0)  -->
<!DOCTYPE svg PUBLIC "-//W3C//DTD SVG 1.1//EN" "http://www.w3.org/Graphics/SVG/1.1/DTD/svg11.dtd" [
	<!ENTITY ns_extend "http://ns.adobe.com/Extensibility/1.0/">
	<!ENTITY ns_ai "http://ns.adobe.com/AdobeIllustrator/10.0/">
	<!ENTITY ns_graphs "http://ns.adobe.com/Graphs/1.0/">
	<!ENTITY ns_vars "http://ns.adobe.com/Variables/1.0/">
	<!ENTITY ns_imrep "http://ns.adobe.com/ImageReplacement/1.0/">
	<!ENTITY ns_sfw "http://ns.adobe.com/SaveForWeb/1.0/">
	<!ENTITY ns_custom "http://ns.adobe.com/GenericCustomNamespace/1.0/">
	<!ENTITY ns_adobe_xpath "http://ns.adobe.com/XPath/1.0/">
]>
<svg version="1.1" id="pet" xmlns:x="&ns_extend;" xmlns:i="&ns_ai;" xmlns:graph="&ns_graphs;"
	 xmlns="http://www.w3.org/2000/svg" xmlns:xlink="http://www.w3.org/1999/xlink" x="0px" y="0px" 
	 viewBox="0 0 3000 3000" enable-background="new 0 0 3000 3000" xml:space="preserve">
<metadata>
	<sfw  xmlns="&ns_sfw;">
		<slices></slices>
		<sliceSourceBounds  height="2418.299" width="4027.445" y="298.66" x="-308.027" bottomLeftOrigin="true"></sliceSourceBounds>
	</sfw>
</metadata>
<g id="DorsalFin">
	<g id="DorsalFinColor_2_">
		<g>
			<g>
				<defs>
					<path id="SVGID_1_" d="M1732.766,1160.741c5.265,14.646-79.072,47.238,15.275,154.863
						c-627.424-158.143-636.855-93.312-644.18-96.312c-53.396-3.595-69.285-15.776-96.497-42.987
						c28.084-35.94,143.151-235.318,302.323-343.02c13.707-9.279,67.198,214.863,251.588,159.046
						C1567.943,1037.517,1558.189,1162.796,1732.766,1160.741z"/>
				</defs>
				<clipPath id="SVGID_2_">
					<use xlink:href="#SVGID_1_"  overflow="visible"/>
				</clipPath>
				
					<rect id="FinAllColor_6_" x="359.145" y="438.087" clip-path="url(#SVGID_2_)" fill="#C9822A" width="2242.729" height="2218.08"/>
			</g>
		</g>
	</g>
	<path id="DorsalFinLine_2_" fill="none" stroke="#060001" stroke-width="6" stroke-miterlimit="10" d="M1069.665,1215.835
		c0,0,47.323-101.542,123.979-196.805c79.862-99.25,139.399-148.992,139.399-148.992 M1356.896,910.286
		c0,0-53.063,44.03-116.014,127.229c-67.416,89.104-109.697,172.276-109.697,172.276 M1384.947,945.873
		c0,0-39.375,31.403-99.908,111.154c-60.227,79.347-98.873,151.939-98.873,151.939 M1430.938,982.365
		c0,0-33.629,32.33-80.442,91.418c-49.179,62.073-91.979,141.181-91.979,141.181 M1496.313,1001.058
		c0,0-43.221,42.365-81.884,92.938c-42.616,55.753-88.069,130.478-88.069,130.478 M1563.93,1018.209
		c0,0-30.746,23.695-88.916,97.351c-60.228,76.267-80.789,120.631-80.789,120.631 M1578.521,1082.881
		c0,0-16.847,14.479-57.299,66.565c-39.685,51.104-68.966,97.998-68.966,97.998 M1611.639,1127.554c0,0-7.545,4.52-45.441,48.582
		c-32.655,37.969-63.09,81.896-63.09,81.896 M1658.168,1151.598c0,0-22.16,16.646-56.824,55.697
		c-21.499,24.208-52.906,60.652-52.906,60.652 M1728.506,1161.46c0,0-36.291,25.006-85.08,69.983
		c-20.591,18.979-47.428,47.313-47.428,47.313 M1704.383,1238.651c0,0-7.262,5.374-25.021,21.701
		c-17.232,15.846-33.125,30.228-33.125,30.228 M1561.275,992.334c-184.392,55.818-237.883-168.326-251.588-159.046
		c-159.172,107.7-274.24,307.077-302.324,343.02c27.212,27.211,43.101,39.394,96.496,42.987c7.326,3,16.757-61.831,644.181,96.312
		c-94.349-107.625-10.013-140.217-15.274-154.863C1558.189,1162.796,1567.943,1037.517,1561.275,992.334z"/>
</g>
<g id="VentralFin">
	<g id="VentralFinColor_2_">
		<g>
			<g>
				<defs>
					<path id="SVGID_3_" d="M1561.521,1630.631c-53.436,29.806-166.395,99.873-183.817,112.752
						c153.013,178.552,369.396,242.921,462.838,255.454c-11.293-84.202-105.471-234.131-182.276-275.354
						C1609.126,1684.633,1570.761,1650.003,1561.521,1630.631z"/>
				</defs>
				<clipPath id="SVGID_4_">
					<use xlink:href="#SVGID_3_"  overflow="visible"/>
				</clipPath>
				
					<rect id="FinAllColor_3_" x="359.145" y="438.087" clip-path="url(#SVGID_4_)" fill="#C9822A" width="2242.729" height="2218.08"/>
			</g>
		</g>
	</g>
	<path id="VentralFinLine_2_" fill="none" stroke="#060001" stroke-width="6" stroke-miterlimit="10" d="M1552.814,1891.048
		c0,0-42.521-38.935-67.09-67.755c-36.977-43.377-77.096-96.975-77.096-96.975 M1443.538,1703.729c0,0,44.181,61.61,106.688,125.668
		c51.866,53.147,189.524,146.135,189.524,146.135 M1482.818,1677.01c0,0,50.052,75.167,152.234,152.697
		c93.027,70.584,197.629,135.021,197.629,135.021 M1524.389,1652.073c0,0,53.474,69.665,136.745,134.834
		c64.584,50.543,125.109,77.813,125.109,77.813 M1561.521,1630.631c-53.436,29.806-166.395,99.873-183.817,112.752
		c153.013,178.552,369.396,242.921,462.838,255.454c-11.293-84.202-105.471-234.131-182.276-275.354
		C1609.126,1684.633,1570.761,1650.003,1561.521,1630.631z"/>
</g>
<g id="Body">
	<g id="BodyColor">
		<g>
			<g>
				<defs>
					<path id="SVGID_5_" d="M1725.568,1434.022c0,12.5,20.727,344.153-434.187,344.153c-344.856,0-434.196-154.088-434.196-344.153
						c0-190.064,194.396-344.144,434.196-344.144C1531.184,1089.879,1725.568,1243.958,1725.568,1434.022z"/>
				</defs>
				<clipPath id="SVGID_6_">
					<use xlink:href="#SVGID_5_"  overflow="visible"/>
				</clipPath>
				
					<rect id="BodyAllColor_3_" x="-307.527" y="299.456" clip-path="url(#SVGID_6_)" fill="#549D86" width="3931.388" height="2386.677"/>
			</g>
		</g>
	</g>
	<path id="BodyMask" fill="none" d="M1725.568,1434.022c0,12.5,20.727,344.153-434.187,344.153
		c-344.856,0-434.196-154.088-434.196-344.153c0-190.064,194.396-344.144,434.196-344.144
		C1531.184,1089.879,1725.568,1243.958,1725.568,1434.022z"/>
	<path id="BodyLine" fill="none" stroke="#231815" stroke-width="8" stroke-miterlimit="10" d="M1725.568,1434.022
		c0,12.5,20.727,344.153-434.187,344.153c-344.856,0-434.196-154.088-434.196-344.153c0-190.064,194.396-344.144,434.196-344.144
		C1531.184,1089.879,1725.568,1243.958,1725.568,1434.022z"/>
</g>
<g id="BodySkin">
	<g>
		<g>
			<defs>
				<path id="SVGID_7_" d="M1487.911,1393.055c0,44.296-33.384,80.199-74.56,80.199c-41.181,0-74.561-35.904-74.561-80.199
					c0-44.292,33.38-80.197,74.561-80.197C1454.527,1312.856,1487.911,1348.763,1487.911,1393.055z M1521.191,1165.397
					c-20.901,24.716-13.799,65.061,15.836,90.123c29.642,25.057,70.604,25.343,91.504,0.617c3.794-4.485,6.661-9.486,8.646-14.818
					c-6.311-20.612-86.216-93.641-106.996-84.217C1526.506,1158.771,1523.882,1162.222,1521.191,1165.397z M1327.943,1132.376
					c-16.981,20.083-11.211,52.864,12.871,73.229c24.08,20.358,57.371,20.593,74.354,0.505
					c16.98-20.081,11.203-52.863-12.881-73.228C1378.207,1112.521,1344.926,1112.294,1327.943,1132.376z M1100.977,1150.05
					c4.177,16.072,37.914,21.194,75.345,11.458c37.426-9.741,64.388-30.661,60.196-46.737c-4.175-16.068-37.767-17.043-75.196-7.307
					C1123.891,1117.205,1096.794,1133.978,1100.977,1150.05z M1196.159,1407.486c26.821,2.193,50.722-22.723,53.412-55.639
					c2.688-32.907-16.86-61.369-43.7-63.551c-26.809-2.198-50.711,22.723-53.404,55.634
					C1149.785,1376.846,1169.341,1405.298,1196.159,1407.486z M1355.715,1643.021c7.984-25.704-14.331-55.452-49.811-66.474
					c-35.484-11.013-70.717,0.871-78.689,26.586c-7.988,25.688,14.326,55.439,49.809,66.463
					C1312.508,1680.609,1347.734,1668.714,1355.715,1643.021z M1599.824,1592.245c5.514-35.573-21.834-69.307-61.069-75.396
					c-39.229-6.079-75.508,17.796-81.015,53.368c-5.521,35.549,21.834,69.29,61.063,75.377
					C1558.031,1651.677,1594.311,1627.798,1599.824,1592.245z"/>
			</defs>
			<clipPath id="SVGID_8_">
				<use xlink:href="#SVGID_7_"  overflow="visible"/>
			</clipPath>
			
				<rect id="SkinAllColor" x="638.459" y="580.823" clip-path="url(#SVGID_8_)" fill="#D791B7" width="2029.134" height="1955.199"/>
		</g>
	</g>
</g>
<g id="Tail">
	<g id="TailColor_3_">
		<g>
			<g>
				<defs>
					<path id="SVGID_9_" d="M1658.5,1640.5c5.521-3.538,277.5-128.5,319.5-113.5c79,63,152.5,68,207,68c0,0,36.625-342.627,38-369
						c-87-1-108.271,6.108-236,109c-36,29-327-78-327-78L1658.5,1640.5z"/>
				</defs>
				<clipPath id="SVGID_10_">
					<use xlink:href="#SVGID_9_"  overflow="visible"/>
				</clipPath>
				
					<rect id="BodyAllColor_6_" x="-215.471" y="303.536" clip-path="url(#SVGID_10_)" fill="#549D86" stroke="#231815" stroke-width="8" stroke-miterlimit="10" width="3931.389" height="2386.677"/>
			</g>
		</g>
	</g>
	<g id="TailFin_3_">
		<g>
			<g>
				<defs>
					<path id="SVGID_11_" d="M1991.053,1536.928C2065.07,1590.537,2133.514,1595,2185,1595c0,0,36.625-342.627,38-369
						c-85.965-0.988-107.757,5.94-231.484,105.368c-1.49,1.197-2.996,2.408-4.516,3.632
						C2013.001,1369.667,2003.667,1499.667,1991.053,1536.928z"/>
				</defs>
				<clipPath id="SVGID_12_">
					<use xlink:href="#SVGID_11_"  overflow="visible"/>
				</clipPath>
				
					<rect id="TailFinAllColor_3_" x="1789.244" y="771.798" clip-path="url(#SVGID_12_)" fill="#AC5555" width="1071.038" height="1318.418"/>
			</g>
		</g>
	</g>
	<path id="TailLine_3_" fill="none" stroke="#231815" stroke-width="8" stroke-linecap="round" stroke-miterlimit="10" d="
		M2218.5,1271c0,0-46.5,5-116.5,32c-73.219,28.241-104,47-104,47 M2000.5,1370.5c111-34,141-42.5,213-53.5 M2001,1402
		c58-11,159-30,207-33 M2200,1427c-104,3-135,4-198,3 M2193,1496c-75-4-135.003-18-192-27 M2187,1563.667
		c-38.5-10-119.5-18.667-189-55.667 M1658.5,1640.5c5.521-3.538,277.5-128.5,319.5-113.5c79,63,152.5,68,207,68
		c0,0,36.625-342.627,38-369c-87-1-108.271,6.108-236,109c-36,29-327-78-327-78"/>
</g>
<g id="PectoralFin">
	<g id="PectoralFinColor_2_">
		<g>
			<g>
				<defs>
					<path id="SVGID_13_" d="M1210.757,1633.986c25.929-10.96,75.861-54.811,132.949-99.228
						c69.086-53.754,177.382-103.977,176.653-42.592c-2.824,237.703-207.177,177.813-246.195,185.845
						c0,0-12.131-15.564-27.153-26.71C1231.984,1640.161,1210.757,1633.986,1210.757,1633.986z"/>
				</defs>
				<clipPath id="SVGID_14_">
					<use xlink:href="#SVGID_13_"  overflow="visible"/>
				</clipPath>
				
					<rect id="FinAllColor" x="359.145" y="438.087" clip-path="url(#SVGID_14_)" fill="#C9822A" width="2242.729" height="2218.08"/>
			</g>
		</g>
	</g>
	<path id="PectoralFinLine_2_" fill="none" stroke="#060001" stroke-width="6" stroke-linecap="round" stroke-miterlimit="10" d="
		M1490.066,1614.692c0,0-35.685,27.91-111.287,38.675c-66,9.399-115.711,12.169-115.711,12.169 M1247.011,1651.304
		c0,0,106.9-21.77,170.406-49.276c85.235-36.93,97.917-54.619,97.917-54.619 M1228.964,1640.112c0,0,117.132-52.839,173.049-83.786
		c81.638-45.181,116.845-75.717,116.845-75.717 M1274.164,1678.014c39.02-8.03,243.371,51.857,246.195-185.845
		c0.729-61.385-107.567-11.162-176.653,42.592c-57.088,44.417-105.229,86.595-131.156,97.556"/>
</g>
<g id="Head">
	<g id="HeadColor">
		<g>
			<g>
				<defs>
					<path id="SVGID_15_" d="M1189.926,1460.094c9.163,147.354-59.604,289.715-154.031,289.715
						c-94.428,0-185.996-124.974-195.236-284.053c-8.216-141.451,51.988-295.509,160.838-295.615
						C1096.997,1170.047,1180.037,1301.037,1189.926,1460.094z"/>
				</defs>
				<clipPath id="SVGID_16_">
					<use xlink:href="#SVGID_15_"  overflow="visible"/>
				</clipPath>
				
					<rect id="BodyAllColor_1_" x="-307.527" y="295.456" clip-path="url(#SVGID_16_)" fill="#58A58C" width="3931.388" height="2386.677"/>
			</g>
		</g>
	</g>
	<path id="HeadLine" fill="none" stroke="#231815" stroke-width="8" stroke-miterlimit="10" d="M1189.926,1460.094
		c9.163,147.354-59.604,289.715-154.031,289.715c-94.428,0-185.996-124.974-195.236-284.053
		c-8.216-141.451,51.988-295.509,160.838-295.615C1096.997,1170.047,1180.037,1301.037,1189.926,1460.094z"/>
</g>
<g id="Mouth">
	<g id="MouthColor_3_">
		<g>
			<g>
				<defs>
					<path id="SVGID_17_" d="M1029,1749c-232.5,7-301.5-108.5-309-232c-7.182-118.252,19.104-296.149,252-343L1029,1749z"/>
				</defs>
				<clipPath id="SVGID_18_">
					<use xlink:href="#SVGID_17_"  overflow="visible"/>
				</clipPath>
				
					<rect id="BodyAllColor_10_" x="-295.71" y="283.541" clip-path="url(#SVGID_18_)" fill="#58A58C" width="3983.478" height="2418.299"/>
			</g>
		</g>
	</g>
	
		<path id="MouthLine_3_" fill="none" stroke="#231815" stroke-width="8" stroke-linecap="round" stroke-linejoin="round" stroke-miterlimit="10" d="
		M1029,1749c-232.5,7-301.5-108.5-309-232c-6.806-112.066,15.511-295.426,252-343"/>
	<g id="MouthLipColor">
		<g>
			<g>
				<defs>
					<path id="SVGID_19_" d="M875.667,1567.667c34,45.666-34.467,79.616-86.167,88c-30.833,5-76.446,0.918-93.833-14.334
						C681.189,1628.634,687,1589.667,700,1575c-40.333-32.333,2.333-98.333,55.333-62.333c34.667-27.667,64.586-11.268,86,1.666
						C875,1534.667,888,1555,875.667,1567.667z"/>
				</defs>
				<clipPath id="SVGID_20_">
					<use xlink:href="#SVGID_19_"  overflow="visible"/>
				</clipPath>
				
					<rect id="BodyAllColor_11_" x="-295.71" y="283.541" clip-path="url(#SVGID_20_)" fill="#58A58C" width="3983.478" height="2418.299"/>
			</g>
		</g>
	</g>
	
		<path id="MouthLipLine" fill="none" stroke="#231815" stroke-width="8" stroke-linecap="round" stroke-linejoin="round" stroke-miterlimit="10" d="
		M690.333,1591c3.271-7.681,7.214-12.212,12.667-17.875c60.5-2.625,63,7.125,63,7.125s15.25-20.125,75.625-8.375
		c23.239,4.522,29.292-4.084,32.75-6.625C944.458,1654.834,641.405,1705.943,690.333,1591z M756.333,1512
		c-43-29.333-76.085,1.639-71.667,40.667c4,35.333,57.667,10,80.667,27.333c40.333-31,93.667,13,114.333-21.667
		C889.372,1542.054,803,1464.333,756.333,1512z"/>
</g>
<g id="Eye">
	<path id="Eye5" opacity="0.3" fill="#514F4F" enable-background="new    " d="M1106.229,1342.775
		c0,64.625-52.385,117.007-117.007,117.007s-117.008-52.382-117.008-117.007c0-64.622,52.386-117.005,117.008-117.005
		C1053.845,1225.771,1106.229,1278.153,1106.229,1342.775z"/>
	
		<radialGradient id="Eye4_1_" cx="-1415.46" cy="-816.3022" r="99.3323" gradientTransform="matrix(1 0 0 1 2404.6797 2159.0791)" gradientUnits="userSpaceOnUse">
		<stop  offset="0.8316" style="stop-color:#FFFFFF"/>
		<stop  offset="1" style="stop-color:#C4C4C4"/>
	</radialGradient>
	<path id="Eye4" fill="url(#Eye4_1_)" stroke="#000000" stroke-width="8" stroke-miterlimit="10" d="M1088.552,1342.775
		c0,54.861-44.471,99.334-99.33,99.334c-54.862,0-99.334-44.473-99.334-99.334c0-54.86,44.472-99.331,99.334-99.331
		C1044.082,1243.444,1088.552,1287.915,1088.552,1342.775z"/>
	<g id="Eye3">
		<g>
			<g>
				<defs>
					<circle id="SVGID_21_" cx="989.221" cy="1342.775" r="70.58"/>
				</defs>
				<clipPath id="SVGID_22_">
					<use xlink:href="#SVGID_21_"  overflow="visible"/>
				</clipPath>
				<rect id="EyeAllColor" x="870.383" y="1209.973" clip-path="url(#SVGID_22_)" fill="#6E438F" width="250" height="250"/>
			</g>
		</g>
	</g>
	<path id="Eye2" fill="#231815" d="M1040.343,1342.775c0,28.235-22.884,51.124-51.12,51.124s-51.123-22.889-51.123-51.124
		c0-28.233,22.886-51.121,51.123-51.121C1017.459,1291.655,1040.343,1314.542,1040.343,1342.775z"/>
	<path id="Eye1" fill="#FFFFFF" d="M1053.641,1307.654c0,14.77-11.968,26.737-26.729,26.737c-14.771,0-26.736-11.969-26.736-26.737
		c0-14.761,11.968-26.73,26.736-26.73C1041.673,1280.924,1053.641,1292.893,1053.641,1307.654z"/>
</g>
<g id="Eyelid">
	<path fill="none" stroke="#231815" stroke-width="8" stroke-linecap="round" stroke-linejoin="round" stroke-miterlimit="10" d="
		M924.12,1508.09"/>
</g>
<g id="HeadWear">
	
		<path id="HeadWearColor" fill="#F8E289" stroke="#000000" stroke-width="6" stroke-linecap="round" stroke-linejoin="round" stroke-miterlimit="10" d="
		M986.333,1177.667c0.333,6-5.759,12.651-26,18.333c-19,5.333-19,4.333-33.333,3.333C898,1166,606.333,814.667,605.333,791.667
		C625.667,796.333,923.333,1109.667,986.333,1177.667z"/>
	
		<path id="HeadWearLine" fill="none" stroke="#000000" stroke-width="6" stroke-linecap="round" stroke-linejoin="round" stroke-miterlimit="10" d="
		M930.5,1200c-6.068-23.396-8.046-23.543-12.5-51.75c-4.5-28.5-6-50.75-6-50.75 M912,1097.5c0,0,1.5,22.25,6,50.75
		c4.454,28.207,6.432,28.354,12.5,51.75 M827,1010.5c2.333,18.333,1.311,17.478,7.5,45.333c4.667,21,8,33.167,17.5,54.917
		 M760.5,942.5c0.25,6.25,2,14.75,5.5,35.75c3.537,21.22,13,38.25,16,47.25 M702.25,881.75c0,12,0.104,10.467,1.25,24.5
		c1,12.25,3.5,19.75,11.5,36.667 M649.25,829.5c-0.5,5.75-0.5,7-0.25,15c0.135,4.313,3.25,15.5,6.25,20.5"/>
</g>
<g id="Nose">
	
		<path id="null_1_" fill="none" stroke="#231815" stroke-width="8" stroke-linecap="round" stroke-linejoin="round" stroke-miterlimit="10" d="
		M924.12,1508.09"/>
</g>
<g id="Moustache">
	
		<path id="null_7_" fill="none" stroke="#231815" stroke-width="8" stroke-linecap="round" stroke-linejoin="round" stroke-miterlimit="10" d="
		M924.12,1508.09"/>
</g>
<g id="Brow">
	
		<path id="null_11_" fill="none" stroke="#231815" stroke-width="8" stroke-linecap="round" stroke-linejoin="round" stroke-miterlimit="10" d="
		M924.12,1508.09"/>
</g>
</svg>
