<?xml version="1.0" encoding="utf-8"?>
<!-- Generator: Adobe Illustrator 16.0.0, SVG Export Plug-In . SVG Version: 6.00 Build 0)  -->
<!DOCTYPE svg PUBLIC "-//W3C//DTD SVG 1.1//EN" "http://www.w3.org/Graphics/SVG/1.1/DTD/svg11.dtd" [
	<!ENTITY ns_extend "http://ns.adobe.com/Extensibility/1.0/">
	<!ENTITY ns_ai "http://ns.adobe.com/AdobeIllustrator/10.0/">
	<!ENTITY ns_graphs "http://ns.adobe.com/Graphs/1.0/">
	<!ENTITY ns_vars "http://ns.adobe.com/Variables/1.0/">
	<!ENTITY ns_imrep "http://ns.adobe.com/ImageReplacement/1.0/">
	<!ENTITY ns_sfw "http://ns.adobe.com/SaveForWeb/1.0/">
	<!ENTITY ns_custom "http://ns.adobe.com/GenericCustomNamespace/1.0/">
	<!ENTITY ns_adobe_xpath "http://ns.adobe.com/XPath/1.0/">
]>
<svg version="1.1" id="Fish" xmlns:x="&ns_extend;" xmlns:i="&ns_ai;" xmlns:graph="&ns_graphs;"
	 xmlns="http://www.w3.org/2000/svg" xmlns:xlink="http://www.w3.org/1999/xlink" x="0px" y="0px" width="3000px" height="3000px"
	 viewBox="0 0 3000 3000" enable-background="new 0 0 3000 3000" xml:space="preserve">
<metadata>
	<sfw  xmlns="&ns_sfw;">
		<slices></slices>
		<sliceSourceBounds  height="2394.679" width="3939.389" x="-332.713" y="-2665.216" bottomLeftOrigin="true"></sliceSourceBounds>
	</sfw>
</metadata>
<g id="Tail">
	<g id="TailColor_5_">
		<defs>
			<path id="TailMask_1_" d="M1549.5,1693.5c34.499-17.999,57.5-24,183.756-47.499c58.436-10.876,259,17,262-47
				c4.374-93.303-121.467-198.358-125-199.001c109.563-55.403,180.739-155.912,104-196c-67-35-284.614-43.146-321-46
				c-153-12-168.165-7.391-168.165-7.391L1549.5,1693.5z"/>
		</defs>
		<clipPath id="TailMask_2_">
			<use xlink:href="#TailMask_1_"  overflow="visible"/>
		</clipPath>
		
			<rect id="BodyAllColor_15_" x="-328.713" y="274.537" clip-path="url(#TailMask_2_)" fill="#539C85" stroke="#221714" stroke-width="8" stroke-miterlimit="10" width="3931.389" height="2386.679"/>
	</g>
	<g id="TailFin_5_">
		<defs>
			<path id="TailFinMask_5_" d="M1698.256,1650.001c76.496-7.498,73.197-9.125,178.665-8.666
				c153.333,0.668,124.283-62.26,101.335-107.334c-37.335-73.334-70.001-111.334-111.542-134.226
				c50.997-26.999,112.208-73.108,137.542-141.775c24.742-67.064-168-104-348-98c34.002,19.075,82,122,94,222
				C1762.742,1486.055,1738.256,1558.001,1698.256,1650.001z"/>
		</defs>
		<clipPath id="TailFinMask_1_">
			<use xlink:href="#TailFinMask_5_"  overflow="visible"/>
		</clipPath>
		<polygon id="TailFinAllColor_4_" clip-path="url(#TailFinMask_1_)" fill="#AB5555" points="2447.34,2069.806 1376.302,2061.806 
			1376.302,743.386 2447.34,751.386 		"/>
	</g>
	<path id="TailLine_5_" fill="none" stroke="#221714" stroke-width="8" stroke-linecap="round" stroke-miterlimit="10" d="
		M1551.5,1696.5c41.585-22.418,113.5-49.5,218.756-52.499c73.71-2.101,232,6,226-50c-8.547-79.768-78-164.001-126-194.001
		c49.778-25.171,164.888-118.238,128-174c-44.303-66.972-295.26-65.817-328-68c-132.146-8.81-186.256-11-186.256-11"/>
</g>
</svg>
