<?xml version="1.0" encoding="utf-8"?>
<!-- Generator: Adobe Illustrator 16.0.0, SVG Export Plug-In . SVG Version: 6.00 Build 0)  -->
<!DOCTYPE svg PUBLIC "-//W3C//DTD SVG 1.1//EN" "http://www.w3.org/Graphics/SVG/1.1/DTD/svg11.dtd" [
	<!ENTITY ns_extend "http://ns.adobe.com/Extensibility/1.0/">
	<!ENTITY ns_ai "http://ns.adobe.com/AdobeIllustrator/10.0/">
	<!ENTITY ns_graphs "http://ns.adobe.com/Graphs/1.0/">
	<!ENTITY ns_vars "http://ns.adobe.com/Variables/1.0/">
	<!ENTITY ns_imrep "http://ns.adobe.com/ImageReplacement/1.0/">
	<!ENTITY ns_sfw "http://ns.adobe.com/SaveForWeb/1.0/">
	<!ENTITY ns_custom "http://ns.adobe.com/GenericCustomNamespace/1.0/">
	<!ENTITY ns_adobe_xpath "http://ns.adobe.com/XPath/1.0/">
]>
<svg version="1.1" id="Fish" xmlns:x="&ns_extend;" xmlns:i="&ns_ai;" xmlns:graph="&ns_graphs;"
	 xmlns="http://www.w3.org/2000/svg" xmlns:xlink="http://www.w3.org/1999/xlink" x="0px" y="0px" width="3000px" height="3000px"
	 viewBox="0 0 3000 3000" enable-background="new 0 0 3000 3000" xml:space="preserve">
<metadata>
	<sfw  xmlns="&ns_sfw;">
		<slices></slices>
		<sliceSourceBounds  height="2394.678" width="3939.389" x="-313.582" y="-2689.194" bottomLeftOrigin="true"></sliceSourceBounds>
	</sfw>
</metadata>
<g id="Tail_4_">
	<g id="TailColor_1_">
		<defs>
			<path id="TailMask_3_" d="M1642,1630c22.407-14.301,112.059-4.485,137.668,14.243c79.014,57.775,63.871,57.512,143.458,99.102
				c131.08,68.494,237.993,75.031,362.39,65.908c0,0,7.546-74.262-91.354-211.352c-56.587-78.422-153.47-141.177-160.54-147.221
				c34.715-36.888,91.933-78.719,191.74-228.729c90.03-135.302,116.234-191.949,132.269-229.667c0,0-102.84-24.849-282.282,64.583
				c-96.85,48.266-137.8,103.131-229.749,179.704c-24.926,20.763-84.679,33.75-130.025,34.045
				c-42.098,0.273-73.24-42.284-73.24-42.284"/>
		</defs>
		<clipPath id="TailMask_1_">
			<use xlink:href="#TailMask_3_"  overflow="visible"/>
		</clipPath>
		
			<rect id="BodyAllColor_2_" x="-309.582" y="298.517" clip-path="url(#TailMask_1_)" fill="#539C85" stroke="#221714" stroke-width="8" stroke-miterlimit="10" width="3931.389" height="2386.678"/>
	</g>
	<g id="TailFin">
		<defs>
			<path id="TailFinMask" d="M1751.926,1633.306c12.406,2.445,22.978,6.064,29.624,10.938
				c78.753,57.775,63.662,57.512,142.989,99.102c130.656,68.494,237.211,75.031,361.215,65.908c0,0,7.516-74.262-91.064-211.352
				c-56.393-78.422-152.965-141.177-160.013-147.221c34.604-36.888,91.637-78.719,191.123-228.729
				c89.726-135.302,115.855-191.949,131.831-229.667c0,0-102.497-24.849-281.369,64.583
				c-96.527,48.266-137.347,103.131-228.998,179.704c-18.568,15.522-56.541,26.699-93.413,31.474
				C1785.749,1365.29,1783.787,1539.29,1751.926,1633.306z"/>
		</defs>
		<clipPath id="TailFinMask_1_">
			<use xlink:href="#TailFinMask"  overflow="visible"/>
		</clipPath>
		
			<rect id="TailFinAllColor" x="1689.133" y="770.778" clip-path="url(#TailFinMask_1_)" fill="#AB5555" width="1071.038" height="1318.418"/>
	</g>
	<path id="TailLine" fill="none" stroke="#221714" stroke-width="8" stroke-linecap="round" stroke-miterlimit="10" d="
		M2329.13,1052.434c0,0-113.143,83.232-251.835,150.982c-178.678,87.285-310.189,110.617-310.189,110.617 M1776.391,1398.687
		c204.347-25.879,334.788-114.878,454.145-181.654 M1776.391,1495.456c56.548,0,146.862,8.105,262.331-48.985 M2285.754,1809.253
		c-126.307-193.189-311.313-281.857-436.2-313.398 M2086.082,1801.624c-74.42-101.697-201.851-196.285-318.984-239.354
		 M1806.527,1660.044c-18.436-25.498-20.778-31.66-52.461-50.322 M1642.5,1628.5c22.33-14.301,113.522-2.985,139.05,15.743
		c78.753,57.775,63.662,57.512,142.989,99.102c130.656,68.494,237.211,75.031,361.215,65.908c0,0,7.516-74.262-91.064-211.352
		c-56.393-78.422-152.965-141.177-160.013-147.221c34.604-36.888,91.637-78.719,191.123-228.729
		c89.726-135.302,115.855-191.949,131.831-229.667c0,0-102.497-24.849-281.369,64.583
		c-96.527,48.266-137.347,103.131-228.998,179.704c-24.852,20.763-84.402,33.75-129.601,34.045
		c-41.964,0.273-75.329-42.284-75.329-42.284"/>
</g>
</svg>
