<?xml version="1.0" encoding="utf-8"?>
<!-- Generator: Adobe Illustrator 16.0.0, SVG Export Plug-In . SVG Version: 6.00 Build 0)  -->
<!DOCTYPE svg PUBLIC "-//W3C//DTD SVG 1.1//EN" "http://www.w3.org/Graphics/SVG/1.1/DTD/svg11.dtd" [
	<!ENTITY ns_extend "http://ns.adobe.com/Extensibility/1.0/">
	<!ENTITY ns_ai "http://ns.adobe.com/AdobeIllustrator/10.0/">
	<!ENTITY ns_graphs "http://ns.adobe.com/Graphs/1.0/">
	<!ENTITY ns_vars "http://ns.adobe.com/Variables/1.0/">
	<!ENTITY ns_imrep "http://ns.adobe.com/ImageReplacement/1.0/">
	<!ENTITY ns_sfw "http://ns.adobe.com/SaveForWeb/1.0/">
	<!ENTITY ns_custom "http://ns.adobe.com/GenericCustomNamespace/1.0/">
	<!ENTITY ns_adobe_xpath "http://ns.adobe.com/XPath/1.0/">
]>
<svg version="1.1" id="Fish" xmlns:x="&ns_extend;" xmlns:i="&ns_ai;" xmlns:graph="&ns_graphs;"
	 xmlns="http://www.w3.org/2000/svg" xmlns:xlink="http://www.w3.org/1999/xlink" x="0px" y="0px" width="3000px" height="3000px"
	 viewBox="0 0 3000 3000" enable-background="new 0 0 3000 3000" xml:space="preserve">
<metadata>
	<sfw  xmlns="&ns_sfw;">
		<slices></slices>
		<sliceSourceBounds  height="2394.679" width="3939.389" x="-300.713" y="-2663.216" bottomLeftOrigin="true"></sliceSourceBounds>
	</sfw>
</metadata>
<g id="Tail_2_">
	<g id="TailColor_7_">
		<defs>
			<path id="TailMask_4_" d="M1514.592,1716.081c187.49-47.998,381.742-197.746,461.076-275.08
				c-88.667-5.333-105.667-32-258.666-172.333c-81.589-74.834-219.001-114.667-219.001-114.667s40,69,52,283
				C1559.93,1614.064,1514.592,1716.081,1514.592,1716.081z"/>
		</defs>
		<clipPath id="TailMask_1_">
			<use xlink:href="#TailMask_4_"  overflow="visible"/>
		</clipPath>
		
			<rect id="BodyAllColor_16_" x="-296.713" y="272.537" clip-path="url(#TailMask_1_)" fill="#539C85" stroke="#221714" stroke-width="8" stroke-miterlimit="10" width="3931.389" height="2386.679"/>
	</g>
	<g id="TailFin_3_">
		<defs>
			<path id="TailFinMask_3_" d="M1881.668,1520.335c131.5,101,263.773,149.071,296.832,117.665c20-19-17-139.5-102.5-144
				c50.997-26.999,106.471-143.656,73.5-209c-91.832-182-89.832,15.333-153.166,125.333
				C1963.668,1457,1947.668,1468.333,1881.668,1520.335z"/>
		</defs>
		<clipPath id="TailFinMask_1_">
			<use xlink:href="#TailFinMask_3_"  overflow="visible"/>
		</clipPath>
		<polygon id="TailFinAllColor_3_" clip-path="url(#TailFinMask_1_)" fill="#AB5555" points="2370.34,2069.806 1299.302,2061.806 
			1299.302,743.386 2370.34,751.386 		"/>
	</g>
	<path id="TailLine_3_" fill="none" stroke="#221714" stroke-width="8" stroke-linecap="round" stroke-miterlimit="10" d="
		M1974,1439 M1886,1523 M1504.591,1719.079c66-26,141.409-26.079,381.409-196.079c168,126,306.563,151.665,298,96
		c-16-104-71-119-108-125c49.778-25.171,145-179,22-280c-41.222-33.849-56,147-124,225c-106-8-124.631-52.17-245-160
		c-96-86-234.666-130-234.666-130"/>
</g>
</svg>
