<?xml version="1.0" encoding="utf-8"?>
<!-- Generator: Adobe Illustrator 16.0.0, SVG Export Plug-In . SVG Version: 6.00 Build 0)  -->
<!DOCTYPE svg PUBLIC "-//W3C//DTD SVG 1.1//EN" "http://www.w3.org/Graphics/SVG/1.1/DTD/svg11.dtd" [
	<!ENTITY ns_extend "http://ns.adobe.com/Extensibility/1.0/">
	<!ENTITY ns_ai "http://ns.adobe.com/AdobeIllustrator/10.0/">
	<!ENTITY ns_graphs "http://ns.adobe.com/Graphs/1.0/">
	<!ENTITY ns_vars "http://ns.adobe.com/Variables/1.0/">
	<!ENTITY ns_imrep "http://ns.adobe.com/ImageReplacement/1.0/">
	<!ENTITY ns_sfw "http://ns.adobe.com/SaveForWeb/1.0/">
	<!ENTITY ns_custom "http://ns.adobe.com/GenericCustomNamespace/1.0/">
	<!ENTITY ns_adobe_xpath "http://ns.adobe.com/XPath/1.0/">
]>
<svg version="1.1" id="Fish" xmlns:x="&ns_extend;" xmlns:i="&ns_ai;" xmlns:graph="&ns_graphs;"
	 xmlns="http://www.w3.org/2000/svg" xmlns:xlink="http://www.w3.org/1999/xlink" x="0px" y="0px" width="3000px" height="3000px"
	 viewBox="0 0 3000 3000" enable-background="new 0 0 3000 3000" xml:space="preserve">
<metadata>
	<sfw  xmlns="&ns_sfw;">
		<slices></slices>
		<sliceSourceBounds  height="2394.677" width="3939.389" x="-221.471" y="-2683.213" bottomLeftOrigin="true"></sliceSourceBounds>
	</sfw>
</metadata>
<g id="Tail_6_">
	<g id="TailColor_2_">
		<defs>
			<path id="TailMask_11_" d="M1511,1715c5.522-3.538,272.5-99,374-58c56.052,22.642,335,119,389.5,119c0,0-31.867-172.958-40.5-360
				c-4.5-97.5,112.625-392.127,114-418.5c-114,12.5-337,111.5-516,242.5c-51.038,37.352-268.913-63.893-268.913-63.893L1511,1715z"
				/>
		</defs>
		<clipPath id="TailMask_1_">
			<use xlink:href="#TailMask_11_"  overflow="visible"/>
		</clipPath>
		
			<rect id="BodyAllColor_5_" x="-217.471" y="292.536" clip-path="url(#TailMask_1_)" fill="#539C85" stroke="#221714" stroke-width="8" stroke-miterlimit="10" width="3931.389" height="2386.677"/>
	</g>
	<g id="TailFin_2_">
		<defs>
			<path id="TailFinMask_2_" d="M1853.001,1646.001c6.694,2.24,25.436,8.348,31.999,10.999c56.052,22.642,335,119,389.5,119
				c0,0-31.867-172.958-40.5-360c-4.5-97.5,112.625-392.127,114-418.5c-114,12.5-337,111.5-516,242.5
				c-5.05,3.695-10.73,6.777-16.867,9.33C1881,1293,1915.906,1539.331,1853.001,1646.001z"/>
		</defs>
		<clipPath id="TailFinMask_1_">
			<use xlink:href="#TailFinMask_2_"  overflow="visible"/>
		</clipPath>
		
			<rect id="TailFinAllColor_2_" x="1787.244" y="760.798" clip-path="url(#TailFinMask_1_)" fill="#AB5555" width="1071.038" height="1318.418"/>
	</g>
	<path id="TailLine_2_" fill="none" stroke="#221714" stroke-width="8" stroke-linecap="round" stroke-miterlimit="10" d="
		M2332.049,1049.612c0,0-149.992,49.498-272.986,104.995c-110.953,50.064-220.488,124.494-220.488,124.494 M1859.572,1316.599
		c98.995-56.997,358.479-123.993,430.479-134.993 M1877.572,1373.596c52.497-16.499,326.127-56.113,367.481-44.998
		 M2230.054,1445.593c-103.494-25.499-283.485-9-343.482-4.5 M2248.054,1594.085c-55.498-38.998-304.485-73.496-361.482-82.496
		 M2269.052,1738.078c-20.998-25.499-305.984-130.494-380.98-157.492 M1956,1682.5c-31.498-17.999-60.43-38.917-84.429-56.916
		 M1511,1715c5.522-3.538,272.5-99,374-58c56.052,22.642,335,119,389.5,119c0,0-31.867-172.958-40.5-360
		c-4.5-97.5,112.625-392.127,114-418.5c-114,12.5-337,111.5-516,242.5c-51.038,37.352-269.174-67.213-269.174-67.213"/>
</g>
</svg>
