<?xml version="1.0" encoding="utf-8"?>
<!-- Generator: Adobe Illustrator 16.0.0, SVG Export Plug-In . SVG Version: 6.00 Build 0)  -->
<!DOCTYPE svg PUBLIC "-//W3C//DTD SVG 1.1//EN" "http://www.w3.org/Graphics/SVG/1.1/DTD/svg11.dtd" [
	<!ENTITY ns_extend "http://ns.adobe.com/Extensibility/1.0/">
	<!ENTITY ns_ai "http://ns.adobe.com/AdobeIllustrator/10.0/">
	<!ENTITY ns_graphs "http://ns.adobe.com/Graphs/1.0/">
	<!ENTITY ns_vars "http://ns.adobe.com/Variables/1.0/">
	<!ENTITY ns_imrep "http://ns.adobe.com/ImageReplacement/1.0/">
	<!ENTITY ns_sfw "http://ns.adobe.com/SaveForWeb/1.0/">
	<!ENTITY ns_custom "http://ns.adobe.com/GenericCustomNamespace/1.0/">
	<!ENTITY ns_adobe_xpath "http://ns.adobe.com/XPath/1.0/">
]>
<svg version="1.1" id="Fish" xmlns:x="&ns_extend;" xmlns:i="&ns_ai;" xmlns:graph="&ns_graphs;"
	 xmlns="http://www.w3.org/2000/svg" xmlns:xlink="http://www.w3.org/1999/xlink" x="0px" y="0px" width="3000px" height="3000px"
	 viewBox="0 0 3000 3000" enable-background="new 0 0 3000 3000" xml:space="preserve">
<metadata>
	<sfw  xmlns="&ns_sfw;">
		<slices></slices>
		<sliceSourceBounds  height="2394.679" width="3939.389" x="-439.713" y="-3094.216" bottomLeftOrigin="true"></sliceSourceBounds>
	</sfw>
</metadata>
<g id="Tail_3_">
	<path id="TailFin_7_" fill="#A65253" d="M2274.052,1275.102c-134.993,4.5-271.486,35.998-364.481,74.996
		c-26.627,11.166-47.998,19.499-79.496,25.499c5.472,15.356-14.186,98.766,4.5,104.995c17.999,6,65.658,19.664,79.496,26.999
		c136.063,72.123,373.48,73.496,373.48,73.496S2161.558,1558.588,2008,1417C2155.558,1312.6,2131.559,1338.099,2274.052,1275.102z"
		/>
	<g id="TailColor_3_">
		<defs>
			<path id="TailMask_2_" d="M1541.667,1697.667c53.723-23.024,165.593-125.429,250.666-210.667c18.167-6.5,30.167-8,48.167-6
				c0.579-4.76,6.5-20,6-54.5c-0.471-32.512-7.11-47.393-7-51.5c-15.666,2.168-27.167-0.001-43.833-4
				C1662.333,1223.667,1577,1184.333,1577,1184.333L1541.667,1697.667z"/>
		</defs>
		<clipPath id="TailMask_1_">
			<use xlink:href="#TailMask_2_"  overflow="visible"/>
		</clipPath>
		
			<rect id="BodyAllColor_17_" x="-435.713" y="703.537" clip-path="url(#TailMask_1_)" fill="#539C85" stroke="#221714" stroke-width="8" stroke-miterlimit="10" width="3931.389" height="2386.679"/>
	</g>
	<path id="TailLine_7_" fill="none" stroke="#221714" stroke-width="8" stroke-linecap="round" stroke-miterlimit="10" d="
		M1543,1701c57.209-24.107,166.434-130.576,249.333-214c21-8,52.667-9,75.667,1c87.244,37.933,278.5,107.5,428.5,90.5
		c-69-7.5-196.5-60.5-288.5-161.5c71.5-55,113-87,274-143c-221,9.667-341.575,63.773-412.334,93
		c-26.14,10.797-49.999,9.334-74.666,2c-118-137-219-187-219-187"/>
</g>
</svg>
