<?xml version="1.0" encoding="utf-8"?>
<!-- Generator: Adobe Illustrator 16.0.0, SVG Export Plug-In . SVG Version: 6.00 Build 0)  -->
<!DOCTYPE svg PUBLIC "-//W3C//DTD SVG 1.1//EN" "http://www.w3.org/Graphics/SVG/1.1/DTD/svg11.dtd" [
	<!ENTITY ns_extend "http://ns.adobe.com/Extensibility/1.0/">
	<!ENTITY ns_ai "http://ns.adobe.com/AdobeIllustrator/10.0/">
	<!ENTITY ns_graphs "http://ns.adobe.com/Graphs/1.0/">
	<!ENTITY ns_vars "http://ns.adobe.com/Variables/1.0/">
	<!ENTITY ns_imrep "http://ns.adobe.com/ImageReplacement/1.0/">
	<!ENTITY ns_sfw "http://ns.adobe.com/SaveForWeb/1.0/">
	<!ENTITY ns_custom "http://ns.adobe.com/GenericCustomNamespace/1.0/">
	<!ENTITY ns_adobe_xpath "http://ns.adobe.com/XPath/1.0/">
]>
<svg version="1.1" id="Fish" xmlns:x="&ns_extend;" xmlns:i="&ns_ai;" xmlns:graph="&ns_graphs;"
	 xmlns="http://www.w3.org/2000/svg" xmlns:xlink="http://www.w3.org/1999/xlink" x="0px" y="0px" width="3000px" height="3000px"
	 viewBox="0 0 3000 3000" enable-background="new 0 0 3000 3000" xml:space="preserve">
<metadata>
	<sfw  xmlns="&ns_sfw;">
		<slices></slices>
		<sliceSourceBounds  height="3002.669" width="4940.889" x="-826.186" y="-2965.694" bottomLeftOrigin="true"></sliceSourceBounds>
	</sfw>
</metadata>
<g id="Tail_5_">
	<g id="TailColor">
		<defs>
			<path id="TailMask_7_" d="M1593,1675c6.93-4.44,91.754-31.682,213.465-74.344c112.142-39.309,158.774-39.963,164.374-34.713
				c20.075,18.82,27.602,24.676,57.716,40.987c71.705,38.841,199.966,56.487,268.516,51.444c0,0-0.96-42.59-57.719-116.691
				c-45.171-58.974-99.125-84.068-145.551-102.89c19.128-20.391,51.375-44.807,106.369-127.731
				c49.602-74.796,67.993-107.386,76.824-128.236c0,0-70.511-16.813-169.391,32.623c-53.359,26.682-71.045,55.54-121.711,97.87
				c-13.738,11.478-19.157,15.877-50.189,11.293c-110.417-16.312-378.933-150.805-378.933-150.805L1593,1675z"/>
		</defs>
		<clipPath id="TailMask_1_">
			<use xlink:href="#TailMask_7_"  overflow="visible"/>
		</clipPath>
		
			<rect id="BodyAllColor_4_" x="-822.186" y="-32.975" clip-path="url(#TailMask_1_)" fill="#539C85" stroke="#221714" stroke-width="8" stroke-miterlimit="10" width="4932.889" height="2994.669"/>
	</g>
	<g id="TailFin_1_">
		<defs>
			<path id="TailFinMask_1_" d="M1924.514,1567.301c29.124-5.244,43.384-4.115,46.325-1.357
				c20.075,18.82,27.602,24.676,57.716,40.987c71.705,38.841,199.966,56.487,268.516,51.444c0,0-0.96-42.59-57.719-116.691
				c-45.171-58.974-99.125-84.068-145.551-102.89c19.128-20.391,51.375-44.807,106.369-127.731
				c49.602-74.796,67.993-107.386,76.824-128.236c0,0-70.511-16.813-169.391,32.623c-53.359,26.682-71.045,55.54-121.711,97.87
				c-7.291,6.093-12.24,10.19-19.919,12.009C2000.95,1357.235,1961.426,1532.587,1924.514,1567.301z"/>
		</defs>
		<clipPath id="TailFinMask_2_">
			<use xlink:href="#TailFinMask_1_"  overflow="visible"/>
		</clipPath>
		
			<rect id="TailFinAllColor_1_" x="1725.213" y="582.805" clip-path="url(#TailFinMask_2_)" fill="#AB5555" width="1343.879" height="1654.277"/>
	</g>
	<path id="TailLine_1_" fill="none" stroke="#221714" stroke-width="8" stroke-linecap="round" stroke-miterlimit="10" d="
		M2257.292,1217.353c0,0-46.671,8.325-123.339,45.777c-98.773,48.25-152.239,86.998-152.239,86.998 M1974.601,1404.916
		c46.426-27.604,116.691-51.444,207.032-65.247 M1965.819,1434.614c61.901-5.855,83.621-7.257,135.511,6.689 M2185.397,1653.355
		c-65.247-112.927-154.306-173.287-223.345-190.721 M2087.112,1630.354c-41.139-56.221-71.105-96.617-127.569-136.769
		 M1970.839,1565.943c-5.854-12.548-5.858-18.405-21.749-35.969 M1592.999,1670.334c6.93-4.44,91.755-27.016,213.466-69.678
		c112.142-39.309,158.774-39.963,164.374-34.713c20.075,18.82,27.602,24.676,57.716,40.987
		c71.705,38.841,199.966,56.487,268.516,51.444c0,0-0.96-42.59-57.719-116.691c-45.171-58.974-99.125-84.068-145.551-102.89
		c19.128-20.391,51.375-44.807,106.369-127.731c49.602-74.796,67.993-107.386,76.824-128.236c0,0-70.511-16.813-169.391,32.623
		c-53.359,26.682-71.045,55.54-121.711,97.87c-13.738,11.478-19.157,15.877-50.189,11.293
		c-110.417-16.312-377.933-151.805-377.933-151.805"/>
</g>
</svg>
