<?xml version="1.0" encoding="utf-8"?>
<!-- Generator: Adobe Illustrator 16.0.0, SVG Export Plug-In . SVG Version: 6.00 Build 0)  -->
<!DOCTYPE svg PUBLIC "-//W3C//DTD SVG 1.1//EN" "http://www.w3.org/Graphics/SVG/1.1/DTD/svg11.dtd" [
	<!ENTITY ns_extend "http://ns.adobe.com/Extensibility/1.0/">
	<!ENTITY ns_ai "http://ns.adobe.com/AdobeIllustrator/10.0/">
	<!ENTITY ns_graphs "http://ns.adobe.com/Graphs/1.0/">
	<!ENTITY ns_vars "http://ns.adobe.com/Variables/1.0/">
	<!ENTITY ns_imrep "http://ns.adobe.com/ImageReplacement/1.0/">
	<!ENTITY ns_sfw "http://ns.adobe.com/SaveForWeb/1.0/">
	<!ENTITY ns_custom "http://ns.adobe.com/GenericCustomNamespace/1.0/">
	<!ENTITY ns_adobe_xpath "http://ns.adobe.com/XPath/1.0/">
]>
<svg version="1.1" id="Fish" xmlns:x="&ns_extend;" xmlns:i="&ns_ai;" xmlns:graph="&ns_graphs;"
	 xmlns="http://www.w3.org/2000/svg" xmlns:xlink="http://www.w3.org/1999/xlink" x="0px" y="0px" width="3000px" height="3000px"
	 viewBox="0 0 3000 3000" enable-background="new 0 0 3000 3000" xml:space="preserve">
<metadata>
	<sfw  xmlns="&ns_sfw;">
		<slices></slices>
		<sliceSourceBounds  height="1832.702" width="1725.71" x="704.063" y="-2428.712" bottomLeftOrigin="true"></sliceSourceBounds>
	</sfw>
</metadata>
<g id="VentralFin_1_">
	<g id="VentralFinColor_2_">
		<defs>
			<path id="VentralFinMask_2_" d="M1629.255,1581.356c-41.115,24.627-128.034,82.521-141.441,93.162
				c117.738,147.529,182.873,148.634,225.687,98.481c35-41,48.5-72-9.804-114.925
				C1665.886,1625.976,1636.365,1597.362,1629.255,1581.356z"/>
		</defs>
		<clipPath id="VentralFinMask_1_">
			<use xlink:href="#VentralFinMask_2_"  overflow="visible"/>
		</clipPath>
		
			<rect id="FinAllColor_3_" x="704.063" y="596.01" clip-path="url(#VentralFinMask_1_)" fill="#C8812A" width="1725.71" height="1832.702"/>
	</g>
	<path id="VentralFinLine_2_" fill="none" stroke="#050001" stroke-width="6" stroke-miterlimit="10" d="M1622.557,1796.527
		c0,0-32.718-32.17-51.623-55.982c-28.452-35.841-59.322-80.126-59.322-80.126 M1538.472,1641.756c0,0,30.345,50.489,64.528,88.244
		c33.5,37,78,69.5,78,69.5 M1568.696,1619.678c0,0,46.141,61.973,64.304,79.822c29,28.5,82.5,66.5,82.5,66.5 M1600.684,1599.073
		c0,0,19.17,29.712,78.816,88.427c32,31.5,59.5,46.5,59.5,46.5 M1629.255,1581.356c-41.115,24.627-128.034,82.521-141.441,93.162
		c117.738,147.529,186.688,152.479,225.687,98.481s45-71.5-9.804-114.925C1665.886,1625.976,1636.365,1597.362,1629.255,1581.356z"
		/>
</g>
</svg>
