<?xml version="1.0" encoding="utf-8"?>
<!-- Generator: Adobe Illustrator 16.0.0, SVG Export Plug-In . SVG Version: 6.00 Build 0)  -->
<!DOCTYPE svg PUBLIC "-//W3C//DTD SVG 1.1//EN" "http://www.w3.org/Graphics/SVG/1.1/DTD/svg11.dtd" [
	<!ENTITY ns_extend "http://ns.adobe.com/Extensibility/1.0/">
	<!ENTITY ns_ai "http://ns.adobe.com/AdobeIllustrator/10.0/">
	<!ENTITY ns_graphs "http://ns.adobe.com/Graphs/1.0/">
	<!ENTITY ns_vars "http://ns.adobe.com/Variables/1.0/">
	<!ENTITY ns_imrep "http://ns.adobe.com/ImageReplacement/1.0/">
	<!ENTITY ns_sfw "http://ns.adobe.com/SaveForWeb/1.0/">
	<!ENTITY ns_custom "http://ns.adobe.com/GenericCustomNamespace/1.0/">
	<!ENTITY ns_adobe_xpath "http://ns.adobe.com/XPath/1.0/">
]>
<svg version="1.1" id="Fish" xmlns:x="&ns_extend;" xmlns:i="&ns_ai;" xmlns:graph="&ns_graphs;"
	 xmlns="http://www.w3.org/2000/svg" xmlns:xlink="http://www.w3.org/1999/xlink" x="0px" y="0px" width="3000px" height="3000px"
	 viewBox="0 0 3000 3000" enable-background="new 0 0 3000 3000" xml:space="preserve">
<metadata>
	<sfw  xmlns="&ns_sfw;">
		<slices></slices>
		<sliceSourceBounds  height="2218.08" width="2242.727" x="402.216" y="-2636.816" bottomLeftOrigin="true"></sliceSourceBounds>
	</sfw>
</metadata>
<g id="VentralFin">
	<g id="VentralFinColor">
		<defs>
			<path id="VentralFinMask" d="M1673.303,1514.823c-118.087,82.154-307.716,202.597-320.387,217.416
				c62.653,59.589,221.807,81.288,315.257,77.014c53.174-36.623,107.82-82.146,145.197-140.681
				C1774.825,1614.518,1716.433,1588.76,1673.303,1514.823z"/>
		</defs>
		<clipPath id="VentralFinMask_1_">
			<use xlink:href="#VentralFinMask"  overflow="visible"/>
		</clipPath>
		
			<rect id="FinAllColor_5_" x="402.216" y="418.737" clip-path="url(#VentralFinMask_1_)" fill="#C8812A" width="2242.727" height="2218.08"/>
	</g>
	<path id="VentralFinLine" fill="none" stroke="#221714" stroke-width="6" stroke-miterlimit="10" d="M1515.93,1797.983
		c0,0-39.586-10.913-95.155-55.066c-14.435-11.466-39.243-32.321-39.243-32.321 M1417.069,1686.401
		c0,0,64.152,51.763,115.444,86.121c30.926,20.71,66.949,35.705,66.949,35.705 M1454.481,1661.443c0,0,56.779,49.64,113.723,86.433
		c51.663,33.382,107.588,54.898,107.588,54.898 M1494.244,1634.173c0,0,46.759,42.413,113.744,84.57
		c54.735,34.44,109.456,53.795,109.456,53.795 M1527.071,1613.362c0,0,45.801,36.102,110.015,67.531
		c89.71,43.915,125.815,50.431,125.815,50.431 M1566.301,1587.31c0,0,28.137,23.971,94.409,56.601
		c89.978,44.295,132.255,53.315,132.255,53.315 M1599.968,1564.8c0,0,28.353,28.182,92.588,54.453
		c93.057,38.05,116.979,44.123,116.979,44.123 M1634.313,1541.61c0,0,17.885,16.972,78.271,48.483
		c11.239,5.865,38.774,15.953,38.774,15.953 M1673.303,1514.823c-118.087,82.154-307.716,202.597-320.387,217.416
		c62.653,59.589,221.807,81.288,315.257,77.014c53.174-36.623,107.82-82.146,145.197-140.681
		C1774.825,1614.518,1716.433,1588.76,1673.303,1514.823z"/>
</g>
</svg>
