<?xml version="1.0" encoding="utf-8"?>
<!-- Generator: Adobe Illustrator 16.0.0, SVG Export Plug-In . SVG Version: 6.00 Build 0)  -->
<!DOCTYPE svg PUBLIC "-//W3C//DTD SVG 1.1//EN" "http://www.w3.org/Graphics/SVG/1.1/DTD/svg11.dtd" [
	<!ENTITY ns_extend "http://ns.adobe.com/Extensibility/1.0/">
	<!ENTITY ns_ai "http://ns.adobe.com/AdobeIllustrator/10.0/">
	<!ENTITY ns_graphs "http://ns.adobe.com/Graphs/1.0/">
	<!ENTITY ns_vars "http://ns.adobe.com/Variables/1.0/">
	<!ENTITY ns_imrep "http://ns.adobe.com/ImageReplacement/1.0/">
	<!ENTITY ns_sfw "http://ns.adobe.com/SaveForWeb/1.0/">
	<!ENTITY ns_custom "http://ns.adobe.com/GenericCustomNamespace/1.0/">
	<!ENTITY ns_adobe_xpath "http://ns.adobe.com/XPath/1.0/">
]>
<svg version="1.1" id="Fish" xmlns:x="&ns_extend;" xmlns:i="&ns_ai;" xmlns:graph="&ns_graphs;"
	 xmlns="http://www.w3.org/2000/svg" xmlns:xlink="http://www.w3.org/1999/xlink" x="0px" y="0px" width="3000px" height="3000px"
	 viewBox="0 0 3000 3000" enable-background="new 0 0 3000 3000" xml:space="preserve">
<metadata>
	<sfw  xmlns="&ns_sfw;">
		<slices></slices>
		<sliceSourceBounds  height="2218.08" width="2242.727" x="359.145" y="-2656.167" bottomLeftOrigin="true"></sliceSourceBounds>
	</sfw>
</metadata>
<g id="PectoralFin_2_">
	<g id="PectoralFinColor_2_">
		<defs>
			<path id="PectoralFinMask_2_" d="M1206.922,1606.691c27.278,18.998,102.526,41.262,182.848,70.314
				c97.206,35.158,215.579,111.707,153.801,149.64c-239.226,146.88-308.098-94.97-340.696-128.888c0,0,7.911-21.921,9.58-43.945
				C1214.123,1631.784,1206.922,1606.691,1206.922,1606.691z"/>
		</defs>
		<clipPath id="PectoralFinMask_1_">
			<use xlink:href="#PectoralFinMask_2_"  overflow="visible"/>
		</clipPath>
		
			<rect id="FinAllColor_10_" x="359.145" y="438.087" clip-path="url(#PectoralFinMask_1_)" fill="#C8812A" width="2242.727" height="2218.08"/>
	</g>
	<path id="PectoralFinLine_2_" fill="none" stroke="#050001" stroke-width="6" stroke-linecap="round" stroke-miterlimit="10" d="
		M1402.1,1873.55c0,0-50.352-18.068-108.719-86.812c-50.956-60.009-85.029-107.923-85.029-107.923 M1212.456,1653.813
		c0,0,89.071,93.074,156.544,139.188c90.569,61.885,116.228,63.412,116.228,63.412 M1212.27,1628.737
		c0,0,126.551,83.729,192.68,120.094c96.547,53.097,149.223,69.033,149.223,69.033 M1202.875,1697.758
		c32.598,33.918,101.47,275.768,340.696,128.888c61.777-37.933-56.596-114.481-153.801-149.64
		c-80.322-29.053-152.771-50.579-180.049-69.576"/>
</g>
</svg>
