<?xml version="1.0" encoding="utf-8"?>
<!-- Generator: Adobe Illustrator 16.0.0, SVG Export Plug-In . SVG Version: 6.00 Build 0)  -->
<!DOCTYPE svg PUBLIC "-//W3C//DTD SVG 1.1//EN" "http://www.w3.org/Graphics/SVG/1.1/DTD/svg11.dtd" [
	<!ENTITY ns_extend "http://ns.adobe.com/Extensibility/1.0/">
	<!ENTITY ns_ai "http://ns.adobe.com/AdobeIllustrator/10.0/">
	<!ENTITY ns_graphs "http://ns.adobe.com/Graphs/1.0/">
	<!ENTITY ns_vars "http://ns.adobe.com/Variables/1.0/">
	<!ENTITY ns_imrep "http://ns.adobe.com/ImageReplacement/1.0/">
	<!ENTITY ns_sfw "http://ns.adobe.com/SaveForWeb/1.0/">
	<!ENTITY ns_custom "http://ns.adobe.com/GenericCustomNamespace/1.0/">
	<!ENTITY ns_adobe_xpath "http://ns.adobe.com/XPath/1.0/">
]>
<svg version="1.1" id="Fish" xmlns:x="&ns_extend;" xmlns:i="&ns_ai;" xmlns:graph="&ns_graphs;"
	 xmlns="http://www.w3.org/2000/svg" xmlns:xlink="http://www.w3.org/1999/xlink" x="0px" y="0px" width="3000px" height="3000px"
	 viewBox="0 0 3000 3000" enable-background="new 0 0 3000 3000" xml:space="preserve">
<metadata>
	<sfw  xmlns="&ns_sfw;">
		<slices></slices>
		<sliceSourceBounds  height="2386.677" width="3931.388" x="-304.861" y="-2698.133" bottomLeftOrigin="true"></sliceSourceBounds>
	</sfw>
</metadata>
<g id="Head">
	<g id="HeadColor">
		<defs>
			<path id="HeadMask" d="M1189.926,1460.094c9.163,147.354-59.606,289.715-154.031,289.715
				c-94.428,0-185.996-124.974-195.238-284.053c-8.216-141.451,51.989-295.509,160.838-295.615
				C1096.997,1170.047,1180.037,1301.037,1189.926,1460.094z"/>
		</defs>
		<clipPath id="HeadMask_1_">
			<use xlink:href="#HeadMask"  overflow="visible"/>
		</clipPath>
		
			<rect id="BodyAllColor_1_" x="-304.861" y="311.456" clip-path="url(#HeadMask_1_)" fill="#57A48A" width="3931.388" height="2386.677"/>
	</g>
	<path id="HeadLine" fill="none" stroke="#221714" stroke-width="8" stroke-miterlimit="10" d="M1189.926,1460.094
		c9.163,147.354-59.606,289.715-154.031,289.715c-94.428,0-185.996-124.974-195.238-284.053
		c-8.216-141.451,51.989-295.509,160.838-295.615C1096.997,1170.047,1180.037,1301.037,1189.926,1460.094z"/>
</g>
</svg>
