<?xml version="1.0" encoding="utf-8"?>
<!-- Generator: Adobe Illustrator 22.0.0, SVG Export Plug-In . SVG Version: 6.00 Build 0)  -->
<svg version="1.1" id="图层_1" xmlns="http://www.w3.org/2000/svg" xmlns:xlink="http://www.w3.org/1999/xlink" x="0px" y="0px"
	 viewBox="0 0 99.387 61.682" enable-background="new 0 0 99.387 61.682" xml:space="preserve">
<g>
	<g>
		<g>
			<g>
				<g>
					<defs>
						<path id="SVGID_1_" d="M54.206,9.385c0.307,0.853-4.454,1.166-9.148,2.691c-5.419,1.76-11.026,4.531-11.452,4.357
							c-3.109-0.209-4.034-0.919-5.619-2.503C29.622,11.836,43.241-0.31,54.445,1.612c0.95,0.163-3.332,3.085-3.139,4.395
							C51.695,8.637,53.866,8.438,54.206,9.385z"/>
					</defs>
					<clipPath id="SVGID_2_">
						<use xlink:href="#SVGID_1_"  overflow="visible"/>
					</clipPath>
					<rect x="-18.382" y="-25.68" clip-path="url(#SVGID_2_)" fill="#C9822A" width="130.588" height="129.152"/>
				</g>
			</g>
		</g>
		<path fill="#060001" d="M33.656,16.613c-0.031,0-0.057-0.003-0.08-0.008c-3.084-0.21-4.064-0.904-5.712-2.553l-0.109-0.109
			l0.095-0.122c0.904-1.157,4.794-4.718,9.688-7.705c4.423-2.7,10.952-5.703,16.938-4.677c0.188,0.032,0.249,0.145,0.269,0.209
			c0.096,0.307-0.337,0.75-1.247,1.644c-0.89,0.874-2.11,2.071-2.018,2.689v0c0.236,1.598,1.158,2.091,1.9,2.488
			c0.454,0.243,0.847,0.453,0.992,0.857c0.04,0.112,0.031,0.226-0.028,0.33c-0.242,0.435-1.322,0.681-3.547,1.153
			c-1.634,0.347-3.667,0.778-5.684,1.433c-2.949,0.958-5.955,2.216-8.149,3.135C34.735,16.309,33.972,16.613,33.656,16.613z
			 M33.66,16.266c0.249,0.011,1.666-0.582,3.167-1.211c2.201-0.921,5.214-2.183,8.177-3.145c2.034-0.661,4.078-1.094,5.72-1.443
			c1.614-0.342,3.139-0.666,3.314-0.981c0.01-0.018,0.009-0.027,0.004-0.042c-0.1-0.277-0.421-0.449-0.828-0.667
			c-0.131-0.07-0.271-0.145-0.413-0.229c-0.349-0.004-2.872,0.036-8.106,1.781c-7.053,2.351-11.065,5.014-12.188,5.822
			c0.336,0.045,0.704,0.08,1.111,0.107l0.028,0.002L33.66,16.266z M30.842,15.77c0.348,0.126,0.733,0.226,1.178,0.305
			c0.542-0.415,4.665-3.446,12.564-6.079c4.254-1.418,6.708-1.723,7.724-1.785c-0.504-0.403-0.968-1.004-1.152-2.039
			c-0.481,0.004-2.618,0.25-9.803,3.313C34.364,12.465,31.519,15.076,30.842,15.77z M29.349,14.936
			c0.362,0.281,0.728,0.51,1.143,0.694c0.504-0.551,3.242-3.275,10.724-6.466c6.965-2.97,9.272-3.317,9.914-3.338
			c0.07-0.66,0.85-1.518,1.67-2.337c-1.398,0.218-5.604,1.044-11.919,3.784C33.681,10.397,30.033,14.179,29.349,14.936z
			 M28.222,13.917c0.303,0.3,0.581,0.565,0.855,0.798c0.299-0.335,1.177-1.267,2.719-2.492c1.753-1.394,4.729-3.44,8.947-5.27
			c7.363-3.194,11.893-3.806,12.473-3.874c0.012-0.012,0.024-0.024,0.037-0.036c0.451-0.443,1.059-1.039,1.145-1.262
			c-5.874-0.999-12.311,1.967-16.679,4.633C33.022,9.281,29.269,12.666,28.222,13.917z"/>
	</g>
	<g>
		<g>
			<g>
				<g>
					<defs>
						<path id="SVGID_3_" d="M55.63,38.142c-6.876,4.784-17.917,11.797-18.655,12.66c3.648,3.47,12.915,4.733,18.357,4.484
							c3.096-2.132,6.278-4.783,8.454-8.192C61.541,43.947,58.141,42.447,55.63,38.142z"/>
					</defs>
					<clipPath id="SVGID_4_">
						<use xlink:href="#SVGID_3_"  overflow="visible"/>
					</clipPath>
					<rect x="-18.382" y="-25.68" clip-path="url(#SVGID_4_)" fill="#C9822A" width="130.588" height="129.152"/>
				</g>
			</g>
		</g>
		<path fill="#231815" d="M53.937,55.491c-5.517,0-13.665-1.313-17.082-4.563l-0.12-0.114l0.108-0.126
			c0.429-0.501,3.951-2.833,8.411-5.784c3.398-2.249,7.249-4.798,10.278-6.905l0.155-0.108l0.095,0.163
			c1.426,2.444,3.128,3.964,4.775,5.434c1.236,1.103,2.403,2.145,3.372,3.505l0.068,0.096l-0.063,0.099
			c-1.855,2.905-4.557,5.524-8.502,8.241l-0.041,0.028l-0.05,0.002C54.896,55.481,54.426,55.491,53.937,55.491z M51.373,55.055
			c1.364,0.09,2.691,0.112,3.9,0.059c0.067-0.046,0.133-0.092,0.199-0.138c-0.811-0.33-3.535-1.488-6.057-3.117
			c-2.966-1.917-5.959-4.46-6.541-4.96c-0.66,0.439-1.288,0.857-1.87,1.247c0.79,0.631,3.954,3.136,6.524,4.857
			C49.191,54.115,51.134,54.953,51.373,55.055z M46.507,54.46c1.252,0.226,2.556,0.4,3.845,0.516
			c-0.785-0.373-1.957-0.973-3.017-1.683c-2.687-1.8-6.018-4.45-6.634-4.943c-0.665,0.447-1.263,0.853-1.773,1.205
			c0.41,0.343,1.45,1.211,2.107,1.732C44.117,53.735,46.37,54.42,46.507,54.46z M43.177,46.698c0.723,0.62,3.589,3.034,6.428,4.868
			c2.823,1.824,5.904,3.051,6.208,3.171c0.723-0.512,1.402-1.022,2.039-1.531c-0.86-0.329-3.504-1.396-6.119-3.041
			c-3.381-2.128-5.909-4.293-6.511-4.821C44.52,45.808,43.834,46.262,43.177,46.698z M37.228,50.798
			c1.866,1.686,4.949,2.703,7.483,3.292c-0.979-0.489-2.325-1.283-3.894-2.53c-0.704-0.559-1.843-1.511-2.187-1.8
			C37.951,50.235,37.462,50.593,37.228,50.798z M45.525,45.142c0.702,0.612,3.153,2.685,6.395,4.726
			c2.837,1.785,5.707,2.883,6.248,3.082c0.855-0.698,1.632-1.396,2.339-2.101c-0.754-0.193-2.927-0.856-7.062-2.88
			c-3.311-1.62-5.814-3.476-6.337-3.874C46.573,44.449,46.044,44.799,45.525,45.142z M47.416,43.89
			c0.676,0.508,3.068,2.241,6.182,3.765c4.566,2.235,6.755,2.803,7.196,2.903c0.542-0.558,1.041-1.12,1.5-1.691
			c-0.766-0.204-3.179-0.938-7.475-3.053c-3.348-1.648-5.016-2.905-5.431-3.236C48.729,43.019,48.069,43.457,47.416,43.89z
			 M49.696,42.375c0.524,0.404,2.195,1.608,5.278,3.127c4.571,2.25,7.042,2.936,7.558,3.066c0.375-0.482,0.721-0.971,1.043-1.467
			c-0.038-0.052-0.076-0.104-0.115-0.155c-0.318-0.09-1.942-0.584-6.774-2.56c-3.252-1.33-4.924-2.729-5.343-3.11
			C50.797,41.64,50.247,42.007,49.696,42.375z M51.642,41.073c0.494,0.431,2.153,1.752,5.175,2.988
			c3.625,1.482,5.453,2.132,6.256,2.396c-0.824-0.989-1.765-1.829-2.75-2.708c-0.064-0.057-0.129-0.115-0.193-0.172l-0.015,0.041
			c-0.066-0.024-1.621-0.595-2.278-0.938c-2.932-1.53-4.148-2.47-4.49-2.758C52.79,40.3,52.22,40.684,51.642,41.073z M53.648,39.717
			c0.414,0.333,1.653,1.246,4.35,2.653c0.354,0.185,0.999,0.446,1.507,0.643c-1.366-1.246-2.735-2.623-3.929-4.62
			C54.961,38.819,54.315,39.262,53.648,39.717z"/>
	</g>
	<g>
		<g>
			<g>
				<g>
					<defs>
						<path id="SVGID_5_" d="M61.181,32.311c0,0.728,1.207,20.039-25.281,20.039c-20.08,0-25.282-8.972-25.282-20.039
							c0-11.067,11.319-20.038,25.282-20.038S61.181,21.244,61.181,32.311z"/>
					</defs>
					<clipPath id="SVGID_6_">
						<use xlink:href="#SVGID_5_"  overflow="visible"/>
					</clipPath>
					<rect x="-57.2" y="-33.752" clip-path="url(#SVGID_6_)" fill="#549D86" width="228.913" height="138.969"/>
				</g>
			</g>
		</g>
		<path fill="none" d="M61.181,32.311c0,0.728,1.207,20.039-25.281,20.039c-20.08,0-25.282-8.972-25.282-20.039
			c0-11.067,11.319-20.038,25.282-20.038S61.181,21.244,61.181,32.311z"/>
		<path fill="#231815" d="M35.9,52.583c-4.853,0-9.055-0.533-12.49-1.585c-3.202-0.98-5.84-2.443-7.842-4.349
			c-3.488-3.319-5.183-8.009-5.183-14.338c0-2.744,0.678-5.405,2.014-7.909c1.289-2.415,3.132-4.582,5.479-6.442
			c4.816-3.817,11.216-5.92,18.022-5.92c6.805,0,13.206,2.102,18.021,5.92c2.347,1.86,4.19,4.028,5.479,6.442
			c1.336,2.505,2.014,5.166,2.014,7.909c0,0.018,0.001,0.047,0.002,0.088c0.053,2.041-0.272,3.852-0.555,5.011
			c-0.794,3.264-2.335,6.087-4.579,8.39C51.896,50.3,45.038,52.583,35.9,52.583z M35.9,12.505c-6.701,0-12.998,2.066-17.732,5.819
			c-4.718,3.74-7.317,8.707-7.317,13.987c0,6.195,1.648,10.774,5.039,14.001c4.048,3.852,10.78,5.805,20.01,5.805
			c9.008,0,15.754-2.235,20.049-6.643c4.827-4.953,5.048-11.251,5.002-13.064c-0.001-0.046-0.002-0.08-0.002-0.1
			c0-5.28-2.598-10.247-7.316-13.987C48.898,14.571,42.6,12.505,35.9,12.505z"/>
	</g>
	<g>
		<g>
			<g>
				<defs>
					<path id="SVGID_7_" d="M53.118,30.219c-1.652,2.23-9.691,5.874-14.873,5.462c-9.897-0.788-14.693-2.362-25.378-10.905
						c3.022-6.518,12.818-13.51,25.891-12.235c6.854,0.668,12.307,3.238,16.102,6.848C58.303,22.663,54.864,27.861,53.118,30.219z"
						/>
				</defs>
				<clipPath id="SVGID_8_">
					<use xlink:href="#SVGID_7_"  overflow="visible"/>
				</clipPath>
				<rect x="9.724" y="1.261" clip-path="url(#SVGID_8_)" fill="#D791B7" width="57.557" height="55.46"/>
			</g>
		</g>
	</g>
	<g id="Tail_1_">
		<g>
			<g>
				<g>
					<defs>
						<path id="SVGID_9_" d="M57.122,44.098c1.305-0.833,6.187-0.816,7.678,0.275c4.601,3.364,3.719,3.349,8.353,5.77
							c7.632,3.988,13.858,4.369,21.101,3.838c0,0,0.439-4.324-5.319-12.306c-3.295-4.566-8.936-8.22-9.348-8.572
							c2.021-2.148,5.353-4.584,11.164-13.318c5.242-7.878,6.768-11.177,7.702-13.373c0,0-5.988-1.447-16.436,3.76
							c-5.639,2.81-8.024,6.005-13.378,10.464c-1.451,1.209-4.931,1.965-7.571,1.982c-2.451,0.016-3.946-0.648-3.946-0.648"/>
					</defs>
					<clipPath id="SVGID_10_">
						<use xlink:href="#SVGID_9_"  overflow="visible"/>
					</clipPath>
					<g clip-path="url(#SVGID_10_)">
						<rect x="-57.2" y="-33.752" fill="#549D86" width="228.913" height="138.969"/>
						<path fill="#231815" d="M171.946,105.45H-57.433V-33.985h229.379V105.45z M-56.967,104.984H171.48V-33.519H-56.967V104.984z"
							/>
					</g>
				</g>
			</g>
		</g>
		<g id="TailFin_1_">
			<g>
				<g>
					<defs>
						<path id="SVGID_11_" d="M63.185,43.736c0.722,0.142,1.338,0.353,1.725,0.637c4.586,3.364,3.707,3.349,8.326,5.77
							c7.608,3.988,13.812,4.369,21.033,3.838c0,0,0.438-4.324-5.302-12.306c-3.284-4.566-8.907-8.22-9.317-8.572
							c2.015-2.148,5.336-4.584,11.129-13.318c5.224-7.878,6.746-11.177,7.676-13.373c0,0-5.968-1.447-16.383,3.76
							c-5.62,2.81-7.997,6.005-13.334,10.464c-1.081,0.904-3.292,1.555-5.439,1.833C65.154,28.13,65.04,38.262,63.185,43.736z"/>
					</defs>
					<clipPath id="SVGID_12_">
						<use xlink:href="#SVGID_11_"  overflow="visible"/>
					</clipPath>
					<rect x="59.529" y="-6.486" clip-path="url(#SVGID_12_)" fill="#AC5555" width="62.364" height="76.768"/>
				</g>
			</g>
		</g>
		<path fill="#231815" d="M89.614,54.403c-5.508,0-10.563-0.949-16.486-4.054c-3.052-1.6-3.746-2.165-5.128-3.289
			c-0.738-0.6-1.656-1.347-3.227-2.5c-1.391-1.02-6.163-1.052-7.39-0.266c-0.108,0.069-0.252,0.038-0.322-0.071
			c-0.069-0.108-0.038-0.252,0.071-0.322c1.385-0.887,6.35-0.867,7.917,0.283c0.174,0.127,0.339,0.25,0.497,0.368
			c-0.592-0.805-0.975-1.177-2.354-1.989c-0.111-0.065-0.148-0.208-0.082-0.319c0.065-0.111,0.208-0.148,0.319-0.082
			c1.701,1.002,2.008,1.432,2.827,2.579c0.092,0.128,0.19,0.266,0.298,0.415c0.041,0.057,0.053,0.125,0.038,0.188
			c0.713,0.55,1.242,0.981,1.702,1.355c1.4,1.139,2.04,1.659,5.05,3.238c3.088,1.619,5.94,2.644,8.746,3.251
			c-4.284-5.606-11.48-10.934-18.102-13.369c-0.121-0.044-0.183-0.178-0.138-0.299c0.044-0.121,0.178-0.183,0.299-0.138
			c3.386,1.245,6.94,3.223,10.279,5.72c3.341,2.5,6.227,5.343,8.351,8.227c3.605,0.695,7.161,0.719,11.077,0.449
			c-8.311-12.466-20.26-16.611-25.042-17.819c-0.023-0.006-0.043-0.014-0.062-0.026c-1.135,0.047-2.155,0.033-3.05,0.02
			c-0.385-0.005-0.749-0.011-1.09-0.011c-0.129,0-0.233-0.104-0.233-0.233c0-0.129,0.104-0.233,0.233-0.233
			c0.345,0,0.71,0.005,1.097,0.011c3.22,0.045,8.082,0.114,14.036-2.82c0.338-0.347,0.707-0.705,1.121-1.106
			c1.972-1.91,4.922-4.769,9.317-11.304c-0.578,0.329-1.162,0.666-1.767,1.015c-6.271,3.617-13.379,7.716-23.775,9.033
			c-0.128,0.016-0.244-0.074-0.26-0.202c-0.016-0.128,0.074-0.244,0.202-0.26c10.303-1.305,17.367-5.379,23.601-8.974
			c0.887-0.512,1.729-0.997,2.572-1.471c2.547-3.852,4.205-6.602,5.361-8.715c-2.014,1.41-7.514,5.12-13.882,8.231
			c-10.314,5.038-18.046,6.447-18.123,6.461c-0.126,0.023-0.247-0.062-0.27-0.189c-0.022-0.127,0.062-0.248,0.189-0.27
			c0.076-0.014,7.749-1.413,18-6.421c7.611-3.718,13.973-8.294,14.581-8.735c0.656-1.252,1.126-2.268,1.516-3.173
			c-0.547-0.085-1.903-0.23-3.966-0.014c-2.524,0.265-6.653,1.14-11.985,3.806c-3.896,1.948-6.187,4.051-9.088,6.713
			c-1.271,1.167-2.586,2.373-4.2,3.721c-1.556,1.3-5.126,2.02-7.694,2.037c-0.03,0-0.06,0-0.089,0c-2.413,0-3.879-0.641-3.941-0.668
			c-0.117-0.052-0.17-0.19-0.118-0.308c0.052-0.118,0.19-0.17,0.308-0.118c0.014,0.006,1.445,0.628,3.753,0.628
			c0.028,0,0.056,0,0.084,0c2.522-0.016,5.979-0.742,7.398-1.928c1.606-1.342,2.917-2.544,4.184-3.707
			c2.928-2.687,5.241-4.809,9.195-6.786c5.412-2.706,9.609-3.59,12.178-3.856c2.802-0.29,4.302,0.063,4.365,0.078l0.267,0.065
			l-0.107,0.253c-0.418,0.987-0.922,2.092-1.655,3.49c-0.007,0.02-0.017,0.039-0.03,0.057c-1.154,2.195-2.873,5.108-5.703,9.397
			c0.022,0.098-0.021,0.203-0.113,0.255c-0.029,0.016-0.058,0.033-0.087,0.049c-0.036,0.054-0.072,0.108-0.108,0.163
			c-4.647,7.006-7.738,10.001-9.784,11.983c-0.416,0.403-0.786,0.762-1.122,1.107c-0.009,0.011-0.019,0.022-0.03,0.031
			c-0.013,0.013-0.025,0.026-0.038,0.039c0.07,0.05,0.153,0.11,0.244,0.175c1.5,1.071,6.066,4.332,8.913,8.29
			c2.984,4.15,4.278,7.303,4.838,9.217c0.614,2.098,0.511,3.203,0.507,3.249l-0.02,0.195l-0.195,0.014
			C92.676,54.332,91.127,54.403,89.614,54.403z M70.164,35.842c2.989,0.864,7.102,2.443,11.5,5.289
			c4.925,3.188,9.076,7.237,12.347,12.045c-0.05-0.524-0.175-1.306-0.478-2.331c-0.553-1.872-1.827-4.96-4.757-9.035
			c-2.802-3.896-7.32-7.123-8.805-8.183c-0.234-0.167-0.383-0.273-0.456-0.333C75.962,34.975,72.807,35.612,70.164,35.842z"/>
	</g>
	<g>
		<g>
			<g>
				<g>
					<defs>
						<path id="SVGID_13_" d="M36.656,45.947c1.521,0.296,7.65,2.714,9.632,6.431c1.142,2.141,1.059,4.352,1.031,8.065
							c-5.383-1.077-13.125-7.176-16.836-15.169c0,0,1.649,0.608,3.264,0.607C35.582,45.878,36.656,45.947,36.656,45.947z"/>
					</defs>
					<clipPath id="SVGID_14_">
						<use xlink:href="#SVGID_13_"  overflow="visible"/>
					</clipPath>
					<rect x="-18.382" y="-25.68" clip-path="url(#SVGID_14_)" fill="#C9822A" width="130.588" height="129.152"/>
				</g>
			</g>
		</g>
		<path fill="#060001" d="M47.492,60.656l-0.207-0.042c-1.749-0.35-3.737-1.224-5.743-2.5c-0.06,0.04-0.141,0.04-0.201-0.006
			c-0.007-0.006-0.279-0.21-0.735-0.619c-0.823-0.574-1.643-1.212-2.445-1.906c-3.323-2.875-6.105-6.511-7.835-10.237
			c-0.041-0.088-0.003-0.191,0.085-0.232c0.088-0.041,0.191-0.003,0.232,0.085c1.709,3.682,4.46,7.276,7.746,10.12
			c0.102,0.088,0.205,0.176,0.307,0.262c-0.581-0.64-1.225-1.403-1.895-2.292c-2.319-3.076-4.522-7.374-4.544-7.417
			c-0.044-0.086-0.01-0.191,0.076-0.235c0.086-0.044,0.191-0.01,0.235,0.076c0.022,0.043,2.212,4.314,4.512,7.365
			c1.54,2.043,2.933,3.411,3.741,4.134c2.194,1.527,4.402,2.587,6.326,3.013l0.003-0.354c0.001-0.144,0.002-0.285,0.004-0.424
			c-0.48-0.274-2.72-1.692-7.646-6.773c-2.785-2.872-5.211-6.622-5.235-6.659c-0.052-0.081-0.029-0.189,0.052-0.241
			c0.081-0.052,0.189-0.029,0.241,0.052c0.024,0.037,2.431,3.759,5.192,6.605c4.417,4.556,6.687,6.159,7.398,6.608
			c0.012-1.988-0.016-3.49-0.349-4.826c-0.506-0.21-3.259-1.413-6.798-4.17c-2.913-2.27-4.539-4.032-4.555-4.05
			c-0.065-0.071-0.06-0.182,0.011-0.247c0.071-0.065,0.182-0.06,0.247,0.011c0.016,0.017,1.625,1.76,4.513,4.011
			c3.112,2.424,5.598,3.63,6.463,4.014c-0.14-0.453-0.32-0.89-0.552-1.325c-1.975-3.704-8.119-6.071-9.511-6.341
			c-0.095-0.018-0.157-0.11-0.138-0.205c0.018-0.095,0.11-0.156,0.205-0.138c0.721,0.14,2.633,0.794,4.695,1.952
			c1.707,0.958,3.97,2.529,5.058,4.568c1.045,1.959,1.084,3.923,1.06,7.045c0,0.005,0,0.01,0,0.016
			c-0.001,0.17-0.003,0.344-0.004,0.521L47.492,60.656z"/>
	</g>
	<g>
		<g>
			<g>
				<g>
					<defs>
						<path id="SVGID_15_" d="M29.992,33.829c0.534,8.58-3.471,16.869-8.969,16.869c-5.498,0-10.83-7.277-11.368-16.54
							c-0.478-8.236,3.027-17.207,9.365-17.213C24.581,16.94,29.416,24.567,29.992,33.829z"/>
					</defs>
					<clipPath id="SVGID_16_">
						<use xlink:href="#SVGID_15_"  overflow="visible"/>
					</clipPath>
					<rect x="-57.2" y="-33.985" clip-path="url(#SVGID_16_)" fill="#58A58C" width="228.913" height="138.969"/>
				</g>
			</g>
		</g>
		<path fill="#231815" d="M21.023,50.931c-1.395,0-2.79-0.444-4.146-1.319c-1.31-0.845-2.517-2.048-3.588-3.577
			c-2.234-3.185-3.606-7.399-3.866-11.863c-0.347-5.971,1.343-11.859,4.305-15.001c1.536-1.629,3.316-2.456,5.292-2.458
			c0.002,0,0.004,0,0.006,0c2.756,0,5.435,1.801,7.545,5.073c2.073,3.215,3.371,7.487,3.653,12.028l0,0
			c0.36,5.795-1.328,11.583-4.3,14.746C24.467,50.111,22.773,50.931,21.023,50.931z M19.026,17.178c-0.002,0-0.004,0-0.006,0
			c-1.843,0.002-3.51,0.78-4.954,2.312c-2.878,3.053-4.519,8.806-4.179,14.655c0.254,4.38,1.598,8.508,3.782,11.623
			c2.093,2.985,4.773,4.697,7.353,4.697c1.617,0,3.195-0.769,4.562-2.223c2.889-3.074,4.528-8.726,4.175-14.398
			c-0.277-4.463-1.549-8.656-3.58-11.805C24.159,18.904,21.618,17.178,19.026,17.178z"/>
	</g>
	<g>
		<g>
			<g>
				<g>
					<defs>
						<path id="SVGID_17_" d="M20.467,50.668C14.923,50.738,5.324,46.285,2.431,38.91c2.49-0.554,5.849-1.65,5.849-1.65
							s-2.702-2.618-6.653-3.011c0.376-8.133,9.862-16.961,16.28-17.206L20.467,50.668z"/>
					</defs>
					<clipPath id="SVGID_18_">
						<use xlink:href="#SVGID_17_"  overflow="visible"/>
					</clipPath>
					<rect x="-57.093" y="-34.266" clip-path="url(#SVGID_18_)" fill="#58A58C" width="228.913" height="138.969"/>
				</g>
			</g>
		</g>
		<path fill="#231815" d="M20.338,50.902c-5.662,0-15.211-4.483-18.124-11.907l-0.099-0.253l0.266-0.059
			c1.955-0.435,4.479-1.216,5.436-1.519c-0.801-0.665-3.132-2.377-6.212-2.683l-0.22-0.022l0.01-0.221
			c0.176-3.807,2.341-8.077,5.941-11.714c3.369-3.404,7.417-5.594,10.562-5.713l0.018,0.465c-3.032,0.116-6.959,2.252-10.249,5.576
			c-3.451,3.486-5.553,7.551-5.795,11.19c3.864,0.467,6.459,2.944,6.57,3.051l0.277,0.269l-0.367,0.12
			C8.32,37.492,5.19,38.51,2.749,39.076c1.327,3.176,4.095,6.116,7.823,8.304c3.225,1.892,6.952,3.057,9.766,3.057
			c0.042,0,0.084,0,0.126-0.001l0.006,0.466C20.426,50.902,20.382,50.902,20.338,50.902z"/>
	</g>
	<g>
		<path opacity="0.3" fill="#514F4F" enable-background="new    " d="M25.119,26.997c0,3.763-3.05,6.813-6.813,6.813
			s-6.813-3.05-6.813-6.813c0-3.763,3.05-6.813,6.813-6.813C22.069,20.185,25.119,23.235,25.119,26.997z"/>
		<g>
			
				<radialGradient id="SVGID_19_" cx="-1184.0342" cy="-2973.0415" r="5.7838" gradientTransform="matrix(1 0 0 1 1202.3398 3000.0391)" gradientUnits="userSpaceOnUse">
				<stop  offset="0.8316" style="stop-color:#FFFFFF"/>
				<stop  offset="1" style="stop-color:#C4C4C4"/>
			</radialGradient>
			<path fill="url(#SVGID_19_)" d="M24.09,26.997c0,3.194-2.589,5.784-5.784,5.784c-3.194,0-5.784-2.589-5.784-5.784
				c0-3.194,2.589-5.784,5.784-5.784C21.5,21.214,24.09,23.803,24.09,26.997z"/>
			<path d="M18.306,33.014c-3.318,0-6.017-2.699-6.017-6.017c0-3.318,2.699-6.017,6.017-6.017c3.318,0,6.017,2.699,6.017,6.017
				C24.322,30.315,21.623,33.014,18.306,33.014z M18.306,21.447c-3.061,0-5.551,2.49-5.551,5.551c0,3.061,2.49,5.551,5.551,5.551
				c3.061,0,5.551-2.49,5.551-5.551C23.857,23.937,21.367,21.447,18.306,21.447z"/>
		</g>
		<g>
			<g>
				<g>
					<defs>
						<circle id="SVGID_20_" cx="18.306" cy="26.997" r="4.11"/>
					</defs>
					<clipPath id="SVGID_21_">
						<use xlink:href="#SVGID_20_"  overflow="visible"/>
					</clipPath>
					<rect x="11.386" y="19.265" clip-path="url(#SVGID_21_)" fill="#6E438F" width="14.557" height="14.557"/>
				</g>
			</g>
		</g>
		<path fill="#231815" d="M21.282,26.997c0,1.644-1.332,2.977-2.977,2.977c-1.644,0-2.977-1.333-2.977-2.977
			c0-1.644,1.333-2.977,2.977-2.977C19.95,24.021,21.282,25.354,21.282,26.997z"/>
		<path fill="#FFFFFF" d="M22.057,24.952c0,0.86-0.697,1.557-1.556,1.557c-0.86,0-1.557-0.697-1.557-1.557
			c0-0.859,0.697-1.556,1.557-1.556C21.36,23.396,22.057,24.093,22.057,24.952z"/>
	</g>
	<g>
		<g>
			<g>
				<g>
					<defs>
						<path id="SVGID_22_" d="M12.686,25.758c0.58-2.582,2.886-4.51,5.643-4.51c2.271,0,4.237,1.309,5.183,3.214
							c-0.978-0.18-2.637-0.442-5.413-0.17C15.332,24.562,13.655,25.359,12.686,25.758z"/>
					</defs>
					<clipPath id="SVGID_23_">
						<use xlink:href="#SVGID_22_"  overflow="visible"/>
					</clipPath>
					<rect x="-135.079" y="-51.188" clip-path="url(#SVGID_23_)" fill="#549D86" width="228.913" height="138.969"/>
				</g>
			</g>
		</g>
		<path d="M12.523,25.951l0.049-0.219c0.289-1.286,1.015-2.454,2.046-3.288c1.045-0.847,2.363-1.313,3.711-1.313
			c2.257,0,4.283,1.256,5.288,3.279l0.104,0.209l-0.229-0.042c-1.22-0.225-2.813-0.42-5.38-0.169
			c-2.497,0.245-4.125,0.93-5.097,1.34c-0.101,0.042-0.195,0.082-0.284,0.119L12.523,25.951z M18.329,21.364
			c-2.552,0-4.818,1.752-5.475,4.198c0.023-0.01,0.046-0.019,0.069-0.029c0.984-0.415,2.632-1.109,5.165-1.357
			c2.436-0.239,4.006-0.079,5.211,0.13C22.302,22.485,20.418,21.364,18.329,21.364z"/>
	</g>
	<g>
		<g>
			
				<linearGradient id="SVGID_24_" gradientUnits="userSpaceOnUse" x1="-1197.572" y1="-2981.8013" x2="-1182.849" y2="-2990.3015" gradientTransform="matrix(1 0 0 1 1202.3398 3000.0391)">
				<stop  offset="0" style="stop-color:#F3EC45"/>
				<stop  offset="0.102" style="stop-color:#D5A61E"/>
				<stop  offset="0.3214" style="stop-color:#E3C52A"/>
				<stop  offset="0.5918" style="stop-color:#D5A61E"/>
				<stop  offset="0.852" style="stop-color:#F3EC45"/>
			</linearGradient>
			<path fill="url(#SVGID_24_)" d="M17.361,6.049c0,0,2.154,6.094,3.494,10.345c-1.397,1.689-4.347,2.959-5.881,3.629
				c-3.422,1.495-7.632,2.608-7.919,2.154c-1.106-1.747-4.833-9.083-4.833-9.083s3.261,0.835,6.483,1.747
				c0.078-1.883,0.369-7.065,0.369-7.065l5.842,4.503L17.361,6.049z"/>
			<path fill="#755223" d="M7.457,22.511c-0.467,0-0.55-0.132-0.599-0.209c-1.1-1.736-4.691-8.803-4.844-9.103
				c-0.041-0.082-0.031-0.18,0.026-0.251c0.057-0.071,0.151-0.103,0.239-0.08c0.032,0.008,3.11,0.797,6.205,1.668
				c0.092-2.058,0.353-6.724,0.356-6.774C8.846,7.677,8.898,7.6,8.977,7.564c0.079-0.036,0.171-0.025,0.239,0.027l5.596,4.314
				l2.332-5.942c0.036-0.09,0.125-0.149,0.221-0.148c0.097,0.002,0.183,0.064,0.216,0.155c0.022,0.061,2.171,6.147,3.496,10.353
				c0.024,0.075,0.008,0.158-0.043,0.218c-1.41,1.704-4.324,2.977-5.89,3.661l-0.077,0.034c-1.597,0.698-3.529,1.378-5.168,1.82
				C8.606,22.405,7.877,22.511,7.457,22.511z M7.235,22.027c0.142,0.049,0.854,0.048,2.736-0.473
				c1.594-0.441,3.383-1.077,4.909-1.744l0.077-0.034c1.5-0.655,4.266-1.864,5.636-3.435c-1.08-3.417-2.679-8.01-3.245-9.624
				l-2.217,5.647c-0.027,0.068-0.084,0.12-0.155,0.139c-0.07,0.02-0.146,0.005-0.204-0.04L9.281,8.231
				c-0.072,1.294-0.281,5.082-0.344,6.62c-0.003,0.071-0.038,0.137-0.096,0.179c-0.058,0.042-0.132,0.055-0.2,0.035
				c-2.446-0.693-4.939-1.347-5.977-1.616C3.495,15.075,6.291,20.525,7.235,22.027z"/>
		</g>
		<path fill="#755223" d="M5.89,19.82c-0.07,0-0.132-0.051-0.144-0.123c-0.012-0.079,0.042-0.154,0.121-0.166
			c0.037-0.006,3.739-0.598,7.303-2.087c4.523-1.889,6.631-3.853,6.652-3.873c0.059-0.055,0.151-0.053,0.206,0.006
			c0.055,0.058,0.053,0.151-0.006,0.206c-0.021,0.02-2.168,2.02-6.74,3.93c-3.597,1.503-7.333,2.1-7.37,2.106
			C5.905,19.819,5.898,19.82,5.89,19.82z"/>
	</g>
	<g>
		<g>
			<path id="Nose1_2_" d="M4.848,30.949c-0.263,0.307-0.588,0.385-0.706,0.321c-0.118-0.064-0.148-0.386-0.01-0.775
				c0.118-0.334,0.508-0.446,0.706-0.321C5.035,30.3,5.08,30.678,4.848,30.949z"/>
			<path fill="#1A1A1A" d="M4.242,31.349c-0.05,0-0.093-0.009-0.127-0.028c-0.161-0.088-0.177-0.452-0.037-0.846
				c0.063-0.177,0.202-0.315,0.382-0.377c0.149-0.052,0.302-0.042,0.409,0.026c0.098,0.062,0.166,0.178,0.187,0.318
				c0.028,0.188-0.033,0.392-0.164,0.545l0,0C4.687,31.226,4.423,31.349,4.242,31.349z M4.648,30.183c-0.048,0-0.1,0.009-0.15,0.026
				c-0.147,0.051-0.26,0.162-0.311,0.306C4.046,30.912,4.1,31.181,4.17,31.219c0.088,0.048,0.383-0.015,0.634-0.308l0,0
				c0.109-0.127,0.16-0.296,0.137-0.452c-0.016-0.106-0.065-0.192-0.134-0.236C4.764,30.196,4.708,30.183,4.648,30.183z"/>
		</g>
	</g>
	<g>
		<path d="M22.718,57.541c-0.082,0.028-6.225-0.963-8.268-5.007c-1.863-3.688-1.043-7.918-2.174-11.723
			c-1.708-5.745-5.716-8.064-5.464-8.53c-0.243-0.466,3.859,2.255,5.697,6.551c2.902,6.783,1.009,9.113,2.911,13.742
			C17.16,56.805,22.777,57.521,22.718,57.541z"/>
	</g>
	<g>
		<path id="Brow1_1_" d="M22.272,20.586c-0.64-0.553-1.203-1.766-3.736-1.97c-2.795-0.116-3.668,1.824-3.998,1.96
			c-0.126-0.349,1.036-2.401,4.192-2.358C20.874,18.247,22.427,20.198,22.272,20.586z"/>
	</g>
</g>
</svg>
