<?xml version="1.0" encoding="utf-8"?>
<!-- Generator: Adobe Illustrator 16.0.0, SVG Export Plug-In . SVG Version: 6.00 Build 0)  -->
<!DOCTYPE svg PUBLIC "-//W3C//DTD SVG 1.1//EN" "http://www.w3.org/Graphics/SVG/1.1/DTD/svg11.dtd" [
	<!ENTITY ns_extend "http://ns.adobe.com/Extensibility/1.0/">
	<!ENTITY ns_ai "http://ns.adobe.com/AdobeIllustrator/10.0/">
	<!ENTITY ns_graphs "http://ns.adobe.com/Graphs/1.0/">
	<!ENTITY ns_vars "http://ns.adobe.com/Variables/1.0/">
	<!ENTITY ns_imrep "http://ns.adobe.com/ImageReplacement/1.0/">
	<!ENTITY ns_sfw "http://ns.adobe.com/SaveForWeb/1.0/">
	<!ENTITY ns_custom "http://ns.adobe.com/GenericCustomNamespace/1.0/">
	<!ENTITY ns_adobe_xpath "http://ns.adobe.com/XPath/1.0/">
]>
<svg version="1.1" id="Fish" xmlns:x="&ns_extend;" xmlns:i="&ns_ai;" xmlns:graph="&ns_graphs;"
	 xmlns="http://www.w3.org/2000/svg" xmlns:xlink="http://www.w3.org/1999/xlink" x="0px" y="0px" width="3000px" height="3000px"
	 viewBox="0 0 3000 3000" enable-background="new 0 0 3000 3000" xml:space="preserve">
<metadata>
	<sfw  xmlns="&ns_sfw;">
		<slices></slices>
		<sliceSourceBounds  height="225.217" width="218.083" x="642.273" y="-1448.997" bottomLeftOrigin="true"></sliceSourceBounds>
	</sfw>
</metadata>
<g id="Eye2_2_">
	
		<radialGradient id="SVGID_1_" cx="778.0029" cy="1362.3057" r="85.5108" gradientTransform="matrix(0.9988 0.0493 -0.0493 0.9988 69.7616 -47.6435)" gradientUnits="userSpaceOnUse">
		<stop  offset="0.8316" style="stop-color:#FFFFFF"/>
		<stop  offset="1" style="stop-color:#C4C4C4"/>
	</radialGradient>
	<path fill="url(#SVGID_1_)" stroke="#000000" stroke-width="8" stroke-miterlimit="10" d="M856.117,1354.597
		c-2.564,51.966-38.857,92.404-81.062,90.323c-42.206-2.083-74.342-45.897-71.777-97.864c2.563-51.965,35.063-93.918,85.532-88.881
		C840.942,1263.378,858.68,1302.631,856.117,1354.597z"/>
	<g id="Eye3_2_">
		<defs>
			
				<ellipse id="Eye3Mask_2_" transform="matrix(0.9938 0.1112 -0.1112 0.9938 155.9658 -75.9309)" cx="758.74" cy="1360.342" rx="42.71" ry="48.06"/>
		</defs>
		<clipPath id="Eye3Mask_1_">
			<use xlink:href="#Eye3Mask_2_"  overflow="visible"/>
		</clipPath>
		<rect id="EyeColor_1_" x="642.273" y="1223.78" clip-path="url(#Eye3Mask_1_)" fill="#6E428D" width="209.062" height="209.062"/>
	</g>
	
		<ellipse transform="matrix(0.9938 0.1112 -0.1112 0.9938 155.9586 -75.928)" fill="#211613" cx="758.74" cy="1360.342" rx="30.488" ry="34.308"/>
	<path id="Eye1_2_" fill="#FFFFFF" d="M788.586,1338.449c0,8.193-6.639,14.832-14.828,14.832c-8.193,0-14.831-6.639-14.831-14.832
		c0-8.188,6.638-14.828,14.831-14.828C781.948,1323.621,788.586,1330.261,788.586,1338.449z"/>
</g>
</svg>
