<?xml version="1.0" encoding="utf-8"?>
<!-- Generator: Adobe Illustrator 16.0.0, SVG Export Plug-In . SVG Version: 6.00 Build 0)  -->
<!DOCTYPE svg PUBLIC "-//W3C//DTD SVG 1.1//EN" "http://www.w3.org/Graphics/SVG/1.1/DTD/svg11.dtd" [
	<!ENTITY ns_extend "http://ns.adobe.com/Extensibility/1.0/">
	<!ENTITY ns_ai "http://ns.adobe.com/AdobeIllustrator/10.0/">
	<!ENTITY ns_graphs "http://ns.adobe.com/Graphs/1.0/">
	<!ENTITY ns_vars "http://ns.adobe.com/Variables/1.0/">
	<!ENTITY ns_imrep "http://ns.adobe.com/ImageReplacement/1.0/">
	<!ENTITY ns_sfw "http://ns.adobe.com/SaveForWeb/1.0/">
	<!ENTITY ns_custom "http://ns.adobe.com/GenericCustomNamespace/1.0/">
	<!ENTITY ns_adobe_xpath "http://ns.adobe.com/XPath/1.0/">
]>
<svg version="1.1" id="Fish" xmlns:x="&ns_extend;" xmlns:i="&ns_ai;" xmlns:graph="&ns_graphs;"
	 xmlns="http://www.w3.org/2000/svg" xmlns:xlink="http://www.w3.org/1999/xlink" x="0px" y="0px" width="3000px" height="3000px"
	 viewBox="0 0 3000 3000" enable-background="new 0 0 3000 3000" xml:space="preserve">
<metadata>
	<sfw  xmlns="&ns_sfw;">
		<slices></slices>
		<sliceSourceBounds  height="2218.08" width="2242.727" x="359.145" y="-2656.167" bottomLeftOrigin="true"></sliceSourceBounds>
	</sfw>
</metadata>
<g id="DorsalFin">
	<g id="DorsalFinColor_4_">
		<defs>
			<path id="DorsalFinMask" d="M1508.387,1045.765c6.322,14.224-74.827,25.575-153.307,57.596
				c-90.597,36.968-183.144,91.487-190.671,89.032c-53.516,0.327-70.254-10.658-99.385-35.803
				c25.374-37.902,243.366-263.071,437.683-244.261c16.477,1.594-53.197,57.039-48.236,79.222
				C1464.433,1036.125,1501.367,1029.973,1508.387,1045.765z"/>
		</defs>
		<clipPath id="DorsalFinMask_1_">
			<use xlink:href="#DorsalFinMask"  overflow="visible"/>
		</clipPath>
		
			<rect id="FinAllColor_11_" x="359.145" y="438.087" clip-path="url(#DorsalFinMask_1_)" fill="#C8812A" width="2242.727" height="2218.08"/>
	</g>
	<path id="DorsalFinLine" fill="none" stroke="#050001" stroke-width="6" stroke-miterlimit="10" d="M1085.318,1172.837
		c0,0,55.96-78.479,190.803-149.136c131.409-68.856,208.95-81.943,208.95-81.943 M1454.471,991.55c0,0-25.51-3.8-167.471,69.45
		c-137.134,70.756-175.832,125.087-175.832,125.087 M1483.91,1030.156c0,0-42.498,0.966-138.406,40.962
		c-142.424,59.394-207.643,120.247-207.643,120.247 M1454.471,991.55c-4.961-22.183,64.713-77.628,48.236-79.222
		c-194.316-18.81-412.309,206.359-437.683,244.261c29.132,25.145,45.87,36.13,99.386,35.803
		c7.526,2.455,100.073-52.063,190.67-89.032c78.479-32.021,159.629-43.373,153.307-57.596
		C1501.367,1029.973,1464.432,1036.125,1454.471,991.55z"/>
</g>
</svg>
