<?xml version="1.0" encoding="utf-8"?>
<!-- Generator: Adobe Illustrator 16.0.0, SVG Export Plug-In . SVG Version: 6.00 Build 0)  -->
<!DOCTYPE svg PUBLIC "-//W3C//DTD SVG 1.1//EN" "http://www.w3.org/Graphics/SVG/1.1/DTD/svg11.dtd" [
	<!ENTITY ns_extend "http://ns.adobe.com/Extensibility/1.0/">
	<!ENTITY ns_ai "http://ns.adobe.com/AdobeIllustrator/10.0/">
	<!ENTITY ns_graphs "http://ns.adobe.com/Graphs/1.0/">
	<!ENTITY ns_vars "http://ns.adobe.com/Variables/1.0/">
	<!ENTITY ns_imrep "http://ns.adobe.com/ImageReplacement/1.0/">
	<!ENTITY ns_sfw "http://ns.adobe.com/SaveForWeb/1.0/">
	<!ENTITY ns_custom "http://ns.adobe.com/GenericCustomNamespace/1.0/">
	<!ENTITY ns_adobe_xpath "http://ns.adobe.com/XPath/1.0/">
]>
<svg version="1.1" id="Fish" xmlns:x="&ns_extend;" xmlns:i="&ns_ai;" xmlns:graph="&ns_graphs;"
	 xmlns="http://www.w3.org/2000/svg" xmlns:xlink="http://www.w3.org/1999/xlink" x="0px" y="0px" width="3000px" height="3000px"
	 viewBox="0 0 3000 3000" enable-background="new 0 0 3000 3000" xml:space="preserve">
<metadata>
	<sfw  xmlns="&ns_sfw;">
		<slices></slices>
		<sliceSourceBounds  height="2218.08" width="2242.727" x="359.145" y="-2659.167" bottomLeftOrigin="true"></sliceSourceBounds>
	</sfw>
</metadata>
<g id="DorsalFin_1_">
	<g id="DorsalFinColor_1_">
		<defs>
			<path id="DorsalFinMask_1_" d="M1163.35,1207.331c-53.142,10.012-77.787,10.526-117.065,12.836
				c-40.05-70.855-100.637-277.256,21.566-297.401C1163.313,907.028,1209.561,1185.254,1163.35,1207.331z M1292.654,880.644
				c-123.092-13.712-120.68,201.387-101.323,280.442c38.437,8.413,62.299,14.596,116.166,19.352
				C1357.961,1171.704,1388.81,891.354,1292.654,880.644z M1476.396,930.816c-120.908-26.865-141.631,187.248-130.883,267.923
				c37.312,12.496,60.374,21.208,113.414,31.729C1510.041,1227.21,1570.85,951.8,1476.396,930.816z M1692.548,1074.043
				c-97.591-76.258-208.398,108.119-233.398,185.571c28.301,27.329,45.376,45.116,88.729,77.428
				C1595.418,1356.086,1768.782,1133.613,1692.548,1074.043z"/>
		</defs>
		<clipPath id="DorsalFinMask_2_">
			<use xlink:href="#DorsalFinMask_1_"  overflow="visible"/>
		</clipPath>
		
			<rect id="FinAllColor_7_" x="359.145" y="441.087" clip-path="url(#DorsalFinMask_2_)" fill="#C8812A" width="2242.727" height="2218.08"/>
	</g>
	<path id="DorsalFinLine_1_" fill="none" stroke="#050001" stroke-width="6" stroke-miterlimit="10" d="M1070.545,1218.78
		c0,0-25.181-51.427-43.638-133.28c-15.247-67.616-19.613-117.73-19.613-117.73 M1055.348,925.685c0,0,2.42,42.988,14.813,111.184
		c14.275,78.557,46.946,177.846,46.946,177.846 M1156.49,1208.595c0,0-6.339-81.837-23.176-159.405
		c-14.615-67.337-28.942-117.631-28.942-117.631 M1067.851,922.766c-122.203,20.145-61.616,226.546-21.566,297.401
		c39.279-2.311,63.924-2.824,117.065-12.836C1209.561,1185.254,1163.313,907.028,1067.851,922.766z M1219.358,910.99
		c0,0-1.255-6.038-7.797,62.968c-7.539,79.486,4.025,192.478,4.025,192.478 M1279.832,880.06c0,0-9.321,42.042-15.864,111.045
		c-7.541,79.488-2.984,183.918-2.984,183.918 M1302.167,1178.811c0,0,14.452-79.508,19.253-158.735
		c4.176-68.781,4.008-121.062,4.008-121.062 M1292.654,880.644c-123.092-13.712-120.68,201.387-101.323,280.442
		c38.437,8.413,62.299,14.596,116.166,19.352C1357.961,1171.704,1388.81,891.354,1292.654,880.644z M1402.979,950.436
		c0,0-11.769,52.148-25.692,120.048c-16.041,78.219-9.085,135.899-9.085,135.899 M1463.379,928.828
		c-21.082,64.09-14.072,43.809-27.378,108.726c-16.034,78.215-22.711,179.092-22.711,179.092 M1454.088,1227.222
		c0,0,22.628-76.438,35.927-154.692c11.537-67.931,16.994-119.94,16.994-119.94 M1476.396,930.816
		c-120.908-26.865-141.631,187.248-130.883,267.923c37.312,12.496,60.374,21.208,113.414,31.729
		C1510.041,1227.21,1570.85,951.8,1476.396,930.816z M1614.233,1061.416c0,0-21.729,28.596-63.514,83.907
		c-48.119,63.709-74.168,131.16-74.168,131.16 M1681.934,1066.823c0,0-29.989,30.895-71.767,86.202
		c-48.126,63.71-99.04,154.999-99.04,154.999 M1543.457,1333.72c0,0,54.764-60.961,100.423-125.888
		c39.637-56.358,67.766-102.283,67.766-102.283 M1692.548,1074.043c-97.591-76.258-208.398,108.119-233.398,185.571
		c28.301,27.329,45.376,45.116,88.729,77.428C1595.418,1356.086,1768.782,1133.613,1692.548,1074.043z"/>
</g>
</svg>
