<?xml version="1.0" encoding="utf-8"?>
<!-- Generator: Adobe Illustrator 16.0.0, SVG Export Plug-In . SVG Version: 6.00 Build 0)  -->
<!DOCTYPE svg PUBLIC "-//W3C//DTD SVG 1.1//EN" "http://www.w3.org/Graphics/SVG/1.1/DTD/svg11.dtd" [
	<!ENTITY ns_extend "http://ns.adobe.com/Extensibility/1.0/">
	<!ENTITY ns_ai "http://ns.adobe.com/AdobeIllustrator/10.0/">
	<!ENTITY ns_graphs "http://ns.adobe.com/Graphs/1.0/">
	<!ENTITY ns_vars "http://ns.adobe.com/Variables/1.0/">
	<!ENTITY ns_imrep "http://ns.adobe.com/ImageReplacement/1.0/">
	<!ENTITY ns_sfw "http://ns.adobe.com/SaveForWeb/1.0/">
	<!ENTITY ns_custom "http://ns.adobe.com/GenericCustomNamespace/1.0/">
	<!ENTITY ns_adobe_xpath "http://ns.adobe.com/XPath/1.0/">
]>
<svg version="1.1" id="Fish" xmlns:x="&ns_extend;" xmlns:i="&ns_ai;" xmlns:graph="&ns_graphs;"
	 xmlns="http://www.w3.org/2000/svg" xmlns:xlink="http://www.w3.org/1999/xlink" x="0px" y="0px" width="3000px" height="3000px"
	 viewBox="0 0 3000 3000" enable-background="new 0 0 3000 3000" xml:space="preserve">
<metadata>
	<sfw  xmlns="&ns_sfw;">
		<slices></slices>
		<sliceSourceBounds  height="414.461" width="387.013" x="601.833" y="1797.372" bottomLeftOrigin="true"></sliceSourceBounds>
	</sfw>
</metadata>
<g id="HeadWear_1_">
	
		<path id="HeadWearColor" fill="#F7E188" stroke="#231815" stroke-width="6" stroke-linecap="round" stroke-linejoin="round" stroke-miterlimit="10" d="
		M986.333,1177.667c0.333,6-5.759,12.651-26,18.333c-19,5.333-19,4.333-33.333,3.333C898,1166,606.333,814.667,605.333,791.667
		C625.667,796.333,923.333,1109.667,986.333,1177.667z"/>
	
		<path id="HeadWearLine" fill="none" stroke="#231815" stroke-width="6" stroke-linecap="round" stroke-linejoin="round" stroke-miterlimit="10" d="
		M930.5,1200c-6.068-23.396-8.046-23.543-12.5-51.75c-4.5-28.5-6-50.75-6-50.75 M912,1097.5c0,0,1.5,22.25,6,50.75
		c4.454,28.207,6.432,28.354,12.5,51.75 M827,1010.5c2.333,18.333,1.311,17.478,7.5,45.333c4.667,21,8,33.167,17.5,54.917
		 M760.5,942.5c0.25,6.25,2,14.75,5.5,35.75c3.537,21.22,13,38.25,16,47.25 M702.25,881.75c0,12,0.104,10.467,1.25,24.5
		c1,12.25,3.5,19.75,11.5,36.667 M649.25,829.5c-0.5,5.75-0.5,7-0.25,15c0.135,4.313,3.25,15.5,6.25,20.5"/>
</g>
</svg>
