<?xml version="1.0" encoding="utf-8"?>
<!-- Generator: Adobe Illustrator 16.0.0, SVG Export Plug-In . SVG Version: 6.00 Build 0)  -->
<!DOCTYPE svg PUBLIC "-//W3C//DTD SVG 1.1//EN" "http://www.w3.org/Graphics/SVG/1.1/DTD/svg11.dtd" [
	<!ENTITY ns_extend "http://ns.adobe.com/Extensibility/1.0/">
	<!ENTITY ns_ai "http://ns.adobe.com/AdobeIllustrator/10.0/">
	<!ENTITY ns_graphs "http://ns.adobe.com/Graphs/1.0/">
	<!ENTITY ns_vars "http://ns.adobe.com/Variables/1.0/">
	<!ENTITY ns_imrep "http://ns.adobe.com/ImageReplacement/1.0/">
	<!ENTITY ns_sfw "http://ns.adobe.com/SaveForWeb/1.0/">
	<!ENTITY ns_custom "http://ns.adobe.com/GenericCustomNamespace/1.0/">
	<!ENTITY ns_adobe_xpath "http://ns.adobe.com/XPath/1.0/">
]>
<svg version="1.1" id="Fish" xmlns:x="&ns_extend;" xmlns:i="&ns_ai;" xmlns:graph="&ns_graphs;"
	 xmlns="http://www.w3.org/2000/svg" xmlns:xlink="http://www.w3.org/1999/xlink" x="0px" y="0px" width="3000px" height="3000px"
	 viewBox="0 0 3000 3000" enable-background="new 0 0 3000 3000" xml:space="preserve">
<metadata>
	<sfw  xmlns="&ns_sfw;">
		<slices></slices>
		<sliceSourceBounds  height="286.759" width="328" x="740.5" y="1738.741" bottomLeftOrigin="true"></sliceSourceBounds>
	</sfw>
</metadata>
<g id="Headwear_1_">
	
		<linearGradient id="HeadwearLine2_1_" gradientUnits="userSpaceOnUse" x1="-413.6211" y1="2891.7051" x2="-160.7654" y2="3037.6914" gradientTransform="matrix(1 0 0 -1 1202.3398 4080.0391)">
		<stop  offset="0" style="stop-color:#E2E2E2"/>
		<stop  offset="0.102" style="stop-color:#999A9D"/>
		<stop  offset="0.3163" style="stop-color:#BBBBBB"/>
		<stop  offset="0.5969" style="stop-color:#95959D"/>
		<stop  offset="0.8571" style="stop-color:#E2E2E2"/>
	</linearGradient>
	
		<path id="HeadwearLine2" fill="url(#HeadwearLine2_1_)" stroke="#231815" stroke-width="8" stroke-linecap="round" stroke-linejoin="round" stroke-miterlimit="10" d="
		M1005,979c0,0,37,104.667,60,177.667c-24,29-74.648,50.816-101,62.333c-58.766,25.683-131.067,44.789-136,37c-19-30-83-156-83-156
		s56,14.333,111.333,30c1.333-32.333,6.333-121.333,6.333-121.333L963,1086L1005,979z"/>
	
		<path id="HeadwearLine1" fill="none" stroke="#231815" stroke-width="5" stroke-linecap="round" stroke-linejoin="round" stroke-miterlimit="10" d="
		M808,1213c0,0,63.786-10.012,126-36c79-33,115-67,115-67"/>
</g>
</svg>
