<?xml version="1.0" encoding="utf-8"?>
<!-- Generator: Adobe Illustrator 16.0.0, SVG Export Plug-In . SVG Version: 6.00 Build 0)  -->
<!DOCTYPE svg PUBLIC "-//W3C//DTD SVG 1.1//EN" "http://www.w3.org/Graphics/SVG/1.1/DTD/svg11.dtd" [
	<!ENTITY ns_extend "http://ns.adobe.com/Extensibility/1.0/">
	<!ENTITY ns_ai "http://ns.adobe.com/AdobeIllustrator/10.0/">
	<!ENTITY ns_graphs "http://ns.adobe.com/Graphs/1.0/">
	<!ENTITY ns_vars "http://ns.adobe.com/Variables/1.0/">
	<!ENTITY ns_imrep "http://ns.adobe.com/ImageReplacement/1.0/">
	<!ENTITY ns_sfw "http://ns.adobe.com/SaveForWeb/1.0/">
	<!ENTITY ns_custom "http://ns.adobe.com/GenericCustomNamespace/1.0/">
	<!ENTITY ns_adobe_xpath "http://ns.adobe.com/XPath/1.0/">
]>
<svg version="1.1" id="Fish" xmlns:x="&ns_extend;" xmlns:i="&ns_ai;" xmlns:graph="&ns_graphs;"
	 xmlns="http://www.w3.org/2000/svg" xmlns:xlink="http://www.w3.org/1999/xlink" x="0px" y="0px" width="3000px" height="3000px"
	 viewBox="0 0 3000 3000" enable-background="new 0 0 3000 3000" xml:space="preserve">
<metadata>
	<sfw  xmlns="&ns_sfw;">
		<slices></slices>
		<sliceSourceBounds  height="533.781" width="352.699" x="705.382" y="-1248.594" bottomLeftOrigin="true"></sliceSourceBounds>
	</sfw>
</metadata>
<g id="HeadWear">
	<path id="HeadWearColor_1_" fill="#C7E3C9" d="M1054.081,1157.463c-22.758,29.984-61.912,50.468-87.755,63.083
		c-57.632,28.133-119.691,27.612-120.333,18.414c-2.529-36.259-43.225-392.526-34.133-414.264
		C836.542,840.34,1009.297,1092.29,1054.081,1157.463z"/>
	<path id="HeadWearSkinColor" fill="#26BAED" d="M871.761,900.244c0,0,2.743,5.415-27.422,26.176
		c-20.913,14.393-30.257,18.29-30.257,18.29l-3.046-60.425c0,0,8.025-4.568,16.937-13.725
		c17.269-17.742,11.907-14.345,11.907-14.345L871.761,900.244z M903.474,940.278c0,0-8.78,13.259-37.921,38.295
		c-25.114,21.576-42.783,29.827-42.783,29.827l5.402,68.834c0,0,2.97,13.524,64.489-37.248
		c46.598-38.458,39.585-58.218,39.585-58.218L903.474,940.278z M959.281,1017.663c0,0-14.719,35.204-58.436,74.025
		c-31.356,27.844-37.183,32.093-66.672,44.846l7.479,58.737c0,0,25.557,1.652,87.006-49.205
		c52.765-43.67,57.805-89.012,57.805-89.012L959.281,1017.663z M1011.447,1091.783c0,0-6.946,33.897-44.291,77.183
		c-36.741,42.584-78.503,72.868-78.503,72.868s52.919-8.985,98.441-33.172c18.531-11.54,26.862-21.169,37.369-33.603
		c21.927-25.946,15.073-40.17,15.073-40.17L1011.447,1091.783z"/>
	
		<path id="HeadWearLine_1_" fill="none" stroke="#231815" stroke-width="8" stroke-linecap="round" stroke-linejoin="round" stroke-miterlimit="10" d="
		M1054.081,1157.463c-22.758,29.984-61.912,50.468-87.755,63.083c-57.632,28.133-119.691,27.612-120.333,18.414
		c-2.529-36.259-40.167-383.313-34.133-414.264C840.181,847.527,1009.297,1092.29,1054.081,1157.463z"/>
	<path id="HeadWearFlower" fill="#FFFFFF" stroke="#ABADB6" stroke-width="2" stroke-miterlimit="10" d="M744.162,900.545
		l-24.059-28.271l90.292-52.503L744.162,900.545z M810.374,819.861l90.292-52.502l-24.058-28.271L810.374,819.861z M810.339,819.807
		l52.502,90.291l28.271-24.059L810.339,819.807z M810.431,819.826l-52.502-90.291l-28.271,24.06L810.431,819.826z M810.347,819.841
		l100.97,26.72l2.979-37.001L810.347,819.841z M810.425,819.792L709.454,793.07l-2.979,37.003L810.425,819.792z M810.411,819.855
		l26.72-100.97l-37.002-2.979L810.411,819.855z M810.36,819.776l-26.72,100.971l37.001,2.979L810.36,819.776z"/>
</g>
</svg>
