<?xml version="1.0" encoding="utf-8"?>
<!-- Generator: Adobe Illustrator 16.0.0, SVG Export Plug-In . SVG Version: 6.00 Build 0)  -->
<!DOCTYPE svg PUBLIC "-//W3C//DTD SVG 1.1//EN" "http://www.w3.org/Graphics/SVG/1.1/DTD/svg11.dtd" [
	<!ENTITY ns_extend "http://ns.adobe.com/Extensibility/1.0/">
	<!ENTITY ns_ai "http://ns.adobe.com/AdobeIllustrator/10.0/">
	<!ENTITY ns_graphs "http://ns.adobe.com/Graphs/1.0/">
	<!ENTITY ns_vars "http://ns.adobe.com/Variables/1.0/">
	<!ENTITY ns_imrep "http://ns.adobe.com/ImageReplacement/1.0/">
	<!ENTITY ns_sfw "http://ns.adobe.com/SaveForWeb/1.0/">
	<!ENTITY ns_custom "http://ns.adobe.com/GenericCustomNamespace/1.0/">
	<!ENTITY ns_adobe_xpath "http://ns.adobe.com/XPath/1.0/">
]>
<svg version="1.1" id="Fish" xmlns:x="&ns_extend;" xmlns:i="&ns_ai;" xmlns:graph="&ns_graphs;"
	 xmlns="http://www.w3.org/2000/svg" xmlns:xlink="http://www.w3.org/1999/xlink" x="0px" y="0px" width="3000px" height="3000px"
	 viewBox="0 0 3000 3000" enable-background="new 0 0 3000 3000" xml:space="preserve">
<metadata>
	<sfw  xmlns="&ns_sfw;">
		<slices></slices>
		<sliceSourceBounds  height="250" width="250" x="879.383" y="-1510.97" bottomLeftOrigin="true"></sliceSourceBounds>
	</sfw>
</metadata>
<g id="Eye_1_">
	
		<radialGradient id="Eye4_2_" cx="1006.2695" cy="1392.2651" r="102.2557" gradientTransform="matrix(0.9988 0.0493 -0.0493 0.9988 69.7616 -47.6435)" gradientUnits="userSpaceOnUse">
		<stop  offset="0.8316" style="stop-color:#FFFFFF"/>
		<stop  offset="1" style="stop-color:#C4C4C4"/>
	</radialGradient>
	<path id="Eye4_1_" fill="url(#Eye4_2_)" stroke="#000000" stroke-width="8" stroke-miterlimit="10" d="M1097.603,1396.404
		c-3.066,62.143-46.466,110.499-96.936,108.01c-50.47-2.49-88.899-54.885-85.833-117.027
		c3.066-62.142,41.929-112.31,102.281-106.286C1079.457,1287.323,1100.668,1334.262,1097.603,1396.404z"/>
	<g id="Eye3_1_">
		<defs>
			
				<ellipse id="Eye3Mask_1_" transform="matrix(0.9938 0.1112 -0.1112 0.9938 164.6857 -104.4351)" cx="1018.656" cy="1424.273" rx="51.073" ry="57.471"/>
		</defs>
		<clipPath id="Eye3Mask_2_">
			<use xlink:href="#Eye3Mask_1_"  overflow="visible"/>
		</clipPath>
		<rect id="EyeColor" x="879.383" y="1260.97" clip-path="url(#Eye3Mask_2_)" fill="#6E428D" width="250" height="250"/>
	</g>
	
		<ellipse id="Eye2_1_" transform="matrix(0.9938 0.1112 -0.1112 0.9938 164.6882 -104.4364)" fill="#211613" cx="1018.656" cy="1424.273" rx="36.458" ry="41.026"/>
	<path id="Eye1_1_" fill="#FFFFFF" d="M1054.347,1398.093c0,9.797-7.938,17.736-17.731,17.736c-9.797,0-17.735-7.939-17.735-17.736
		c0-9.792,7.938-17.731,17.735-17.731C1046.408,1380.362,1054.347,1388.301,1054.347,1398.093z"/>
</g>
</svg>
